<?xml version="1.0" standalone="no"?>
<!DOCTYPE svg PUBLIC "-//W3C//DTD SVG 1.1//EN" "http://www.w3.org/Graphics/SVG/1.1/DTD/svg11.dtd" >
<svg>
<metadata>
Created by FontForge 20120731 at Sat Jul 13 10:19:59 2019
 By www
Copyright (c) 1993 Adobe Systems Incorporated.  All Rights Reserved.Giddyup is a trademark of Adobe Systems Incorporated which may be registered in certain jurisdictions.
</metadata>
<defs>
<font id="Giddyup" horiz-adv-x="432" >
  <font-face 
    font-family="Giddyup"
    font-weight="400"
    font-stretch="normal"
    units-per-em="1000"
    panose-1="2 0 0 0 0 0 0 0 0 0"
    ascent="800"
    descent="-200"
    x-height="338"
    cap-height="642"
    bbox="-184 -333 1067 844.154"
    underline-thickness="50"
    underline-position="-75"
    unicode-range="U+0005-E001"
  />
<missing-glyph horiz-adv-x="170" 
 />
    <glyph glyph-name=".notdef" horiz-adv-x="170" 
 />
    <glyph glyph-name="breve" horiz-adv-x="292" 
d="M138 447q-20 0 -35 16.5t-17 36.5q-1 8 -7 12.5t-13 4.5q-10 0 -14 -7t-4 -15q0 -12 5 -27t16.5 -27.5t28.5 -21.5t40 -9q44 0 68.5 22.5t35.5 48.5q2 5 2.5 9t0.5 7t-2.5 6t-4.5 5q-5 4 -12 4q-5 0 -10.5 -3.5t-8.5 -12.5q-7 -20 -23 -34.5t-46 -14.5z" />
    <glyph glyph-name="dotaccent" horiz-adv-x="122" 
d="M37 479q0 -20 3 -36t21 -16q10 0 16.5 6.5t6.5 15.5q0 2 -1.5 7t-1.5 7v7v15q0 9 -2 16t-7 11.5t-14 4.5t-15.5 -6.5t-6.5 -15.5z" />
    <glyph glyph-name="ring" horiz-adv-x="267" 
d="M134 399q16 0 30.5 6.5t26 18t18 26t6.5 30.5q0 11 -5 23t-13.5 21t-20 15t-24.5 5q-9 0 -15.5 -3.5t-6.5 -11.5q0 -10 7 -16t16 -6q10 0 16 -10.5t6 -16.5q0 -17 -10 -30t-32 -13q-14 0 -27.5 8t-13.5 24q0 10 4 19.5t8 11.5q6 4 10 8t4 10q0 9 -6.5 13t-16.5 4
q-7 0 -14.5 -5.5t-13.5 -14.5t-10 -21t-4 -25q0 -28 22 -49t59 -21z" />
    <glyph glyph-name="hungarumlaut" unicode="&#xa;" horiz-adv-x="356" 
d="M166 518q-9 0 -17 -8q-9 -12 -18 -21.5t-19.5 -19t-23.5 -20.5t-31 -26q-5 -2 -6.5 -7t-1.5 -10q0 -6 5.5 -13t10.5 -7q9 0 15 5q34 28 56 47t43 46q5 5 5 13t-4 14.5t-14 6.5zM252 481q-15 -9 -31.5 -20t-39.5 -28q-9 -9 -9 -18q0 -8 6 -14t11 -6q9 0 15 5
q20 17 35.5 26.5t29.5 18.5q15 9 25 14.5t15 10t7 9t2 9.5q0 8 -4 14.5t-13 6.5q-6 0 -13 -5q-18 -13 -36 -23z" />
    <glyph glyph-name="ogonek" horiz-adv-x="201" 
d="M107 -162q13 0 28.5 5.5t15.5 19.5q0 19 -19 19q-7 0 -15 -4q-5 -4 -15 -4q-11 0 -21 8t-10 32q0 14 7.5 27t18 25t22.5 21.5t21 15.5l-7 30q-6 -1 -22.5 -11t-34 -26.5t-31 -39t-13.5 -48.5q0 -32 23 -51t52 -19z" />
    <glyph glyph-name="caron" horiz-adv-x="289" 
d="M155 388q4 0 16.5 8t27.5 18.5l30 21t23 15.5q10 7 10 18q0 5 -5.5 11t-14.5 6t-15 -3q-17 -11 -32.5 -24.5t-35.5 -27.5q-6 6 -16.5 17t-21.5 21.5t-21 18t-16 7.5q-10 0 -16.5 -5.5t-6.5 -11.5q0 -13 11 -19q22 -14 35.5 -30t34.5 -37q4 -4 13 -4z" />
    <glyph glyph-name="dotlessi" unicode="&#xd;" horiz-adv-x="160" 
d="M112 332q-9 2 -17 -2.5t-10 -13.5q-11 -45 -19.5 -96.5t-14 -96.5t-8.5 -76.5t-3 -36.5q0 -10 6.5 -16.5t16.5 -6.5q9 0 15 6t7 15q2 36 6.5 76.5t10.5 80.5t12.5 76.5t13.5 63.5q1 2 1 5q0 17 -17 22z" />
    <glyph glyph-name="fraction" horiz-adv-x="365" 
d="M0 6q0 -8 4 -14t9 -8q7 -2 14.5 2.5t9.5 13.5q9 39 31.5 89.5t52 106.5t63.5 114t67 114q35 59 62 103.5t45 75.5q7 11 7 18q0 8 -5 14.5t-12 6.5q-13 0 -20 -12q-15 -24 -45 -74.5t-65 -110.5t-69.5 -119.5t-64 -115.5t-52 -106.5t-32.5 -92.5v-5z" />
    <glyph glyph-name="fi" horiz-adv-x="450" 
d="M50 -201q-15 0 -25.5 20t-10.5 52q0 35 8 83.5t25.5 99t45 97.5t66.5 79q-2 -34 -5 -72.5t-7 -78.5t-10 -79.5t-14 -75.5q-14 -63 -30 -94t-43 -31zM363 -13q9 0 15 6t7 15q2 36 6.5 76.5t10.5 79.5t12.5 73.5t12.5 57.5q2 6 2 9v5q0 14 -20 17q-32 6 -71 6
q-18 0 -36.5 -2.5t-36 -6t-32.5 -9t-25 -11.5q5 72 13 126.5t26 93.5q16 34 37 52t46 18q21 0 33 -12.5t12 -23.5t-3 -18t-6 -9q-8 -5 -10 -12t-2 -14q0 -8 7 -12t14 -4q6 0 14 5.5t14.5 14.5t11.5 21.5t5 27.5q0 30 -21.5 53.5t-63.5 23.5t-76.5 -27t-52.5 -69
q-10 -24 -17 -46.5t-11.5 -50.5t-8 -65.5t-7.5 -91.5q-51 -32 -88 -84.5t-60 -111.5t-34 -116.5t-11 -100.5q0 -57 23.5 -86t54.5 -29q49 0 74.5 40t43.5 112q17 69 26 159.5t16 190.5q12 8 28.5 14t33.5 9.5t33 5.5t27 2q12 0 24 -0.5t26 -4.5q-10 -43 -17 -89.5t-12 -86
t-7.5 -67t-2.5 -31.5q0 -10 6.5 -16.5t16.5 -6.5z" />
    <glyph glyph-name="fl" horiz-adv-x="450" 
d="M50 -201q-15 0 -25.5 21t-10.5 56q0 37 8 86t25 99.5t45 97.5t68 82q-5 -77 -12.5 -160.5t-24.5 -156.5q-14 -63 -30 -94t-43 -31zM47 -244q49 0 74.5 40t43.5 112q17 69 26 160.5t17 200.5q23 12 46 15t37 3q2 0 8 -0.5t13 -0.5q8 0 14 5t6 14q0 14 -10 19t-31 5
q-25 0 -44 -3.5t-38 -11.5q5 63 12.5 115.5t27.5 91.5q19 36 49 54t61 18q29 0 50 -11.5t21 -37.5q0 -25 -9 -66t-26 -109q-9 -35 -17.5 -75t-15.5 -80.5t-11.5 -78.5t-4.5 -67q0 -11 0.5 -23.5t3.5 -23t9 -18t17 -7.5q9 0 15.5 6t6.5 16q0 5 -3 10q-1 2 -2.5 10.5
t-1.5 29.5q0 30 5 70t13 83t17.5 85t17.5 76q7 29 13 52t10 42.5t6.5 36.5t2.5 34q0 23 -9 39.5t-24.5 27t-36 15.5t-42.5 5q-48 0 -91 -26.5t-65 -71.5q-11 -24 -18.5 -45.5t-12 -48t-8 -62t-6.5 -86.5q-53 -34 -90 -87t-60 -111.5t-33.5 -116.5t-10.5 -103q0 -60 23.5 -90
t54.5 -30z" />
    <glyph glyph-name="Lslash" horiz-adv-x="563" 
d="M341 455q9 56 24.5 93.5t33 60t35 32t31.5 9.5q13 0 20.5 -9t7.5 -23q0 -22 -11.5 -45t-31.5 -45t-48 -41t-61 -32zM104 -1q-23 0 -41 16t-18 45q0 24 13.5 51t41.5 50.5t70.5 39t100.5 15.5q-22 -106 -64 -161.5t-103 -55.5zM103 -42q158 0 211 256q52 -7 85.5 -25.5
t52.5 -42.5t26 -50.5t7 -48.5q0 -31 -13.5 -58t-44.5 -47q-10 -7 -10 -18q0 -9 6.5 -15.5t16.5 -6.5q6 0 20.5 9.5t29.5 27.5t27 45t12 62q0 29 -9.5 62t-33 63t-64 53t-101.5 32q1 6 3 22t4 35q32 9 65 15.5t63 7.5q8 0 14.5 5.5t6.5 13.5q0 9 -6.5 15t-15.5 6
q-30 0 -60.5 -6t-62.5 -14q1 12 2 28t2 24q41 15 78 37t64.5 49t44 59t16.5 66q0 35 -18.5 55.5t-48.5 20.5q-35 0 -64.5 -19.5t-53 -54t-38.5 -81t-21 -99.5q-29 -7 -64 -7q-17 0 -37 3.5t-37.5 13.5t-29.5 28t-12 46q0 9 -6 15.5t-15 6.5q-10 0 -16 -6.5t-6 -15.5
q0 -66 45 -100t114 -34q15 0 30 1.5t29 3.5q-1 -12 -2 -29t-1 -24q-33 -7 -56 -10.5t-46 -3.5q-14 0 -19.5 -7.5t-5.5 -12.5q0 -20 25 -20q17 0 44.5 3t51.5 9q-1 -13 -1.5 -23.5t-2.5 -18.5q-72 1 -124.5 -18t-86 -49t-50 -65.5t-16.5 -66.5q0 -48 30.5 -75t72.5 -27z" />
    <glyph glyph-name="lslash" horiz-adv-x="220" 
d="M106 -4q9 0 15.5 6t6.5 16q0 5 -3 10q-1 2 -2.5 10.5t-1.5 29.5q0 22 3 50.5t8 59t11 62.5t13 62q27 16 52.5 30t39.5 16q9 2 13.5 10t3.5 17q-1 8 -7 13t-14 5q-10 0 -30.5 -11t-45.5 -27l6 27q11 44 21 89.5t10 80.5q0 12 -0.5 24.5t-3 22t-8 16t-15.5 6.5q-5 0 -9 -2
q-14 -5 -14 -21q0 -2 2 -8q4 -7 4 -38t-10 -73t-26 -110l-11 -45q-22 -13 -41 -22.5t-27 -9.5t-13.5 -6.5t-5.5 -14.5q0 -10 6.5 -16.5t14.5 -6.5q5 0 16 3.5t40 21.5q-5 -24 -10 -51.5t-9 -54.5t-6.5 -52.5t-2.5 -46.5q0 -11 0.5 -23.5t3.5 -23t9 -18t17 -7.5z" />
    <glyph glyph-name="Zcaron" horiz-adv-x="790" 
d="M371 51q-28 17 -56.5 33t-49.5 27q34 41 60.5 83.5t61.5 99.5l21 34q20 32 46.5 72t54.5 75q33 -10 61 -10q54 0 89.5 25.5t35.5 67.5q0 28 -15.5 44t-46.5 16q-41 0 -73.5 -25.5t-66.5 -67.5q-24 9 -43 18t-36.5 18.5t-34 19.5t-35.5 20q5 17 7.5 34t2.5 34
q0 21 -5 41.5t-12.5 36.5t-17 26t-18.5 10q-8 0 -14.5 -6.5t-6.5 -16.5q0 -6 5 -14q11 -14 18.5 -34t7.5 -42q0 -23 -8 -49q-34 18 -65 28t-69 10q-43 0 -74 -23.5t-31 -67.5q0 -45 32.5 -69.5t82.5 -24.5q43 0 83.5 23t63.5 66q38 -22 71 -40.5t68 -33.5q-25 -33 -48 -68.5
t-43 -67.5l-19 -31q-36 -59 -66 -104.5t-67 -87.5q-25 10 -46 15.5t-47 5.5q-33 0 -57.5 -8t-40 -21.5t-23.5 -31.5t-8 -37q0 -31 21 -47t49 -16q48 0 86 21t77 66q35 -17 71.5 -39t81.5 -48q33 -19 60.5 -34.5t53.5 -26t53 -16.5t59 -6q33 0 60 10.5t47 28.5t31 42.5
t11 51.5q0 23 -7 43.5t-21 36.5t-34 25t-45 9q-9 0 -15.5 -6.5t-6.5 -15.5t6.5 -15.5t15.5 -6.5q32 0 47.5 -22t15.5 -48q0 -42 -29 -66.5t-77 -24.5q-40 0 -84 15.5t-104 53.5zM630 577q11 0 16 -7t5 -14q0 -49 -84 -49q-6 0 -14 1t-17 3q24 29 47.5 47.5t46.5 18.5z
M179 516q-32 0 -51 14t-19 38q0 21 17.5 35.5t43.5 14.5q32 0 61.5 -11t56.5 -25q-14 -24 -42.5 -45t-66.5 -21zM45 55q0 20 19 37t62 17q17 0 31.5 -3.5t33.5 -10.5q-26 -27 -56 -45.5t-59 -18.5q-16 0 -23.5 8t-7.5 16zM560 792q-24 -17 -40 -30t-32 -27
q-22 11 -42.5 23.5t-36.5 23.5q-5 4 -13 4q-9 0 -15.5 -6t-6.5 -11q0 -12 10 -18q8 -6 24 -16t33 -19t31.5 -16t18.5 -7q6 0 9.5 2t8.5 6q16 14 34.5 29t40.5 29q10 4 10 19q0 8 -6.5 12t-15.5 4t-12 -2z" />
    <glyph glyph-name="zcaron" horiz-adv-x="336" 
d="M245 332q-8 -5 -30 -5q-6 0 -21.5 2t-32.5 4t-32 4t-21 2q-20 0 -33 -5.5t-20.5 -13t-11 -14.5t-3.5 -11q0 -9 7 -15.5t16 -6.5q14 0 20 13q2 5 6.5 8t18.5 3q6 0 20.5 -1.5t32 -3.5t33 -3.5t23.5 -1.5q-17 -20 -39 -46t-37 -47q-25 -35 -53 -71.5t-73 -83.5
q-5 -7 -5 -16q0 -8 6.5 -14.5t15.5 -6.5q7 0 8 1q19 6 36.5 8.5t34.5 2.5q21 0 40.5 -3t38.5 -7q15 -2 29 -4.5t28 -2.5q33 0 54.5 17t21.5 49q0 8 -4.5 19.5t-20.5 7.5q-19 -2 -19 -22q0 -14 -4.5 -22t-27.5 -8q-11 0 -23.5 2t-26.5 5q-12 2 -27 4t-31.5 3t-33 0.5
t-30.5 -3.5q8 8 21.5 22.5t28 32t28.5 35t23 30.5q22 31 46.5 63t59.5 70q5 8 5 16q0 1 -0.5 4.5t-3 7.5t-7.5 7t-14 3t-14 -5zM184 388q4 0 16.5 8t27.5 18.5l30 21t23 15.5q10 7 10 18q0 5 -5.5 11t-14.5 6t-15 -3q-17 -11 -32.5 -24.5t-35.5 -27.5q-6 6 -16.5 17
t-21.5 21.5t-21 18t-16 7.5q-10 0 -16.5 -5.5t-6.5 -11.5q0 -13 11 -19q22 -14 35.5 -30t34.5 -37q4 -4 13 -4z" />
    <glyph glyph-name="space" unicode=" " horiz-adv-x="170" 
 />
    <glyph glyph-name="exclam" unicode="!" horiz-adv-x="278" 
d="M139 110q11 0 18.5 11.5t12.5 27.5t7.5 33.5t2.5 30.5q0 35 -3.5 71.5t-5.5 72.5q-2 33 -2.5 63.5t-0.5 56.5q0 8 1 21.5t5 21.5q22 -12 49 -12q32 0 52 19t20 48q0 25 -17.5 42t-43.5 17q-28 0 -47.5 -13t-28.5 -29q-5 11 -6.5 21.5t-1.5 20.5q0 4 1 13.5t1 12.5
q0 8 -5 14.5t-15 6.5q-18 0 -21 -15.5t-3 -30.5q0 -26 7.5 -47.5t21.5 -38.5q-5 -11 -9.5 -31t-4.5 -43q0 -29 1 -63.5t5 -69.5q4 -34 5 -66t1 -63q0 -18 -2.5 -35.5t-12.5 -34.5q-2 -6 -2 -12q0 -8 6 -14.5t15 -6.5zM228 592q11 0 17 -6.5t6 -14.5t-7 -14t-21 -6
q-11 0 -22 3t-17 8q16 30 44 30zM107 9q-2 -10 5 -18t20 -8q21 0 24 19l5 32q2 9 -4 16.5t-17 8.5q-11 2 -18.5 -3.5t-9.5 -14.5z" />
    <glyph glyph-name="quotedbl" unicode="&#x22;" horiz-adv-x="230" 
d="M71 612q-9 0 -15.5 -6.5t-6.5 -15.5v-31v-28q0 -12 -0.5 -20.5t-0.5 -11.5q-3 -23 16 -23q23 0 26 24q1 11 1.5 24.5t1 26t0.5 23.5v16q0 9 -6.5 15.5t-15.5 6.5zM159 612q-9 0 -15.5 -6.5t-6.5 -15.5v-31v-28q0 -12 -0.5 -20.5t-0.5 -11.5q-3 -23 16 -23q23 0 26 24
q1 11 1.5 24.5t1 26t0.5 23.5v16q0 9 -6.5 15.5t-15.5 6.5z" />
    <glyph glyph-name="numbersign" unicode="#" horiz-adv-x="480" 
d="M412 219h-78l16 122h88l-3 40h-79l26 179h-45l-25 -179h-109l26 179h-45l-25 -179h-93l2 -40h86l-17 -122h-95l3 -40h86l-25 -179h44l25 179h109l-26 -179h45l25 179h86zM306 341l-16 -122h-109l17 122h108z" />
    <glyph glyph-name="dollar" unicode="$" horiz-adv-x="450" 
d="M210 -73q0 8 5.5 37t12.5 64q46 0 81.5 13.5t59.5 34.5t36.5 47t12.5 52q0 43 -17 71.5t-43 46.5t-58 28t-62 17q-11 2 -31 7.5t-39.5 17t-34.5 29.5t-15 46q0 18 7 36t22 33t38.5 25t55.5 11q-5 -24 -10 -47.5t-5 -41.5q0 -23 8 -38t19 -23t24 -11t23 -3q22 0 40.5 7
t32 19t21.5 28t8 33q0 44 -28.5 77t-78.5 38q8 31 12 52t4 35q0 16 -6.5 22t-15.5 6q-10 0 -16.5 -6.5t-6.5 -15.5q0 -17 -4 -38.5t-12 -51.5q-45 0 -78.5 -14.5t-55.5 -36t-32.5 -47t-10.5 -48.5q0 -56 41 -90t115 -51q80 -19 112.5 -46.5t32.5 -74.5q0 -22 -10.5 -41
t-29 -33.5t-43.5 -23t-54 -8.5q3 18 6 31.5t4.5 25t2.5 22.5t1 24q0 12 -2.5 26.5t-11 27.5t-24.5 21.5t-43 8.5q-32 0 -57.5 -10.5t-44.5 -27t-29 -37.5t-10 -42q0 -47 42.5 -76.5t111.5 -33.5q-17 -83 -17 -103q0 -9 6.5 -15.5t14.5 -6.5q10 0 16.5 6.5t6.5 15.5zM192 70
q-23 1 -44 6t-38 14t-27 21.5t-10 28.5t8 30t21.5 24t30.5 16t34 6q20 0 29.5 -14.5t9.5 -31.5q0 -12 -0.5 -21t-2 -19t-4.5 -24t-7 -36zM285 542q38 -5 55 -26t17 -50q0 -19 -15 -32.5t-40 -13.5q-20 0 -25.5 11.5t-5.5 22.5q0 16 4.5 40t9.5 48z" />
    <glyph glyph-name="percent" unicode="%" horiz-adv-x="772" 
d="M159 252q37 0 66.5 18t50.5 46.5t33 64.5t14 71q51 12 91.5 33t82.5 50q-57 -100 -99.5 -195t-71 -172.5t-43 -131.5t-14.5 -70q0 -9 5 -16t15 -7q8 0 14 5.5t8 13.5q10 61 37 142.5t64.5 169t81.5 174t87 158.5q3 6 3 11q0 9 -6.5 15.5t-15.5 6.5q-10 0 -16 -6
q-55 -54 -109.5 -90t-113.5 -50q-8 47 -36.5 77t-69.5 30q-49 0 -73.5 -25t-24.5 -55q0 -17 9 -31.5t24 -25t35 -16t43 -5.5q25 0 49 3q-2 -26 -11 -53t-24 -49t-36 -36t-46 -14q-20 0 -34 9t-23 23.5t-13.5 33t-4.5 37.5q0 38 16 76q2 2 2 9q0 9 -6.5 15.5t-15.5 6.5
q-14 0 -20 -13q-19 -45 -19 -94q0 -69 31.5 -106.5t83.5 -37.5zM533 241q0 -29 11 -46.5t24.5 -26.5t25 -11.5t12.5 -2.5q9 0 15.5 6.5t6.5 14.5q0 17 -16 22q-19 5 -27.5 15t-8.5 29t14 38t40 19q18 0 30.5 -9t19.5 -23t10 -31t3 -32q0 -32 -8 -62.5t-23.5 -54.5
t-37.5 -38.5t-49 -14.5q-19 0 -33 9t-23.5 23t-14 32.5t-4.5 38.5q0 37 15 73q2 6 2 8q0 10 -6.5 16.5t-15.5 6.5q-14 0 -20 -14q-9 -20 -14 -43.5t-4 -46.5q0 -65 31.5 -104.5t82.5 -39.5q39 0 69.5 18t52 47.5t33 67.5t11.5 78q0 60 -28.5 98.5t-78.5 38.5
q-23 0 -40.5 -8.5t-30.5 -23t-19.5 -32t-6.5 -35.5zM278 486q-24 -3 -48 -3q-28 0 -47.5 12.5t-19.5 26.5q0 17 14 27.5t40 10.5t41.5 -22.5t19.5 -51.5z" />
    <glyph glyph-name="ampersand" unicode="&#x26;" horiz-adv-x="760" 
d="M715 482q-8 8 -18 8q-22 0 -22 -22q0 -5 5 -13q10 -16 16 -32.5t6 -36.5q0 -6 -1 -16t-5.5 -22t-13 -25t-23.5 -25q-19 60 -64 92t-97 32q-43 0 -72.5 -26t-29.5 -63q0 -51 42.5 -82.5t113.5 -31.5q41 0 73 12q0 -37 -16 -73t-49 -64.5t-83 -46t-118 -17.5
q-61 0 -110.5 17.5t-85 47.5t-54.5 71t-19 89q0 54 21.5 103.5t76.5 81.5q12 -23 28 -38.5t33.5 -25t35.5 -13.5t33 -4q14 0 28 4.5t25 13t17.5 21.5t6.5 30q0 30 -27.5 55t-88.5 25q-14 0 -32 -3t-34 -10q-2 8 -2 15v16q0 24 7 41.5t18 29.5t25 18t29 6t29 -7.5t17 -23.5
q2 -8 7.5 -13t13.5 -5q10 0 16.5 6.5t6.5 15.5q0 7 -4 18.5t-14.5 22.5t-28 19t-43.5 8q-23 0 -45 -9.5t-39.5 -27t-28.5 -42.5t-11 -57q0 -27 7 -48q-25 -13 -48 -33t-41 -47t-28.5 -62.5t-10.5 -80.5q0 -56 22 -104.5t63 -84.5t99 -56.5t130 -20.5q81 0 141 22.5
t98.5 59.5t56 84t13.5 96q36 23 57 57.5t21 76.5q0 50 -31 97zM351 428q0 -15 -11 -21.5t-22 -6.5q-19 0 -46.5 12.5t-46.5 44.5q13 5 28 7.5t26 2.5q35 0 53.5 -12t18.5 -27zM441 333q0 19 15.5 33.5t42.5 14.5q44 0 77.5 -28.5t47.5 -79.5q-17 -7 -35.5 -10t-36.5 -3
q-21 0 -40.5 4.5t-35.5 13.5t-25.5 22.5t-9.5 32.5z" />
    <glyph glyph-name="quotesingle" unicode="'" horiz-adv-x="140" 
d="M71 612q-9 0 -15.5 -6.5t-6.5 -15.5v-31v-28q0 -12 -0.5 -20.5t-0.5 -11.5q-3 -23 16 -23q23 0 26 24q1 11 1.5 24.5t1 26t0.5 23.5v16q0 9 -6.5 15.5t-15.5 6.5z" />
    <glyph glyph-name="parenleft" unicode="(" horiz-adv-x="243" 
d="M243 669q-36 -24 -72 -62t-64.5 -92t-46.5 -124.5t-18 -158.5q0 -86 12.5 -150.5t31.5 -111.5t41.5 -78t43.5 -50t37 -26.5t21 -7.5q9 0 14 6t5 14q0 15 -14 21q-18 8 -43.5 33t-48.5 70.5t-39 114.5t-16 166q0 83 15.5 148.5t41 114.5t57.5 83t65 55q10 6 10 19
q0 20 -20 20q-8 0 -13 -4z" />
    <glyph glyph-name="parenright" unicode=")" horiz-adv-x="244" 
d="M26 673q-2 2 -8 2q-20 0 -20 -20q0 -15 13 -21q20 -10 46 -33.5t49 -67.5t39 -111.5t16 -164.5q0 -74 -13 -141.5t-36 -123t-56.5 -94.5t-73.5 -54q-11 -5 -11 -17q0 -8 5.5 -14t14.5 -6q8 0 26.5 9t42.5 30.5t49.5 55.5t47 84t35 117t13.5 153q0 99 -16.5 171.5
t-42.5 123t-58 80t-62 42.5z" />
    <glyph glyph-name="asterisk" unicode="*" horiz-adv-x="275" 
d="M86 670l26 -91l-97 -35l95 -6l-1 -99l42 95l103 -25l-86 58l73 68l-95 -40z" />
    <glyph glyph-name="plus" unicode="+" 
d="M195 223h-161v-42h161v-161h42v161h161v42h-161v162h-42v-162z" />
    <glyph glyph-name="comma" unicode="," horiz-adv-x="130" 
d="M73 60q-9 0 -15.5 -6.5t-6.5 -15.5q0 -62 -11 -78q-4 -7 -4 -13q0 -10 7 -16.5t18 -6.5q14 0 21.5 15t11 34.5t4 38t0.5 26.5q0 9 -6.5 15.5t-18.5 6.5z" />
    <glyph glyph-name="minus" unicode="-" 
d="M398 181v42h-364v-42h364z" />
    <glyph glyph-name="period" unicode="." horiz-adv-x="130" 
d="M46 11q-2 -11 5 -18t19 -7q22 0 25 18l5 34q1 9 -4.5 16t-16.5 9t-19 -3.5t-10 -14.5z" />
    <glyph glyph-name="slash" unicode="/" horiz-adv-x="328" 
d="M-19 -14q0 -17 16 -22q10 -2 18 2.5t10 13.5q10 39 33 92t53.5 112.5t64.5 121t66 118.5q12 21 31.5 55.5t37.5 68.5t31.5 60.5t13.5 32.5q0 8 -6.5 14.5t-15.5 6.5q-14 0 -20 -12q-19 -39 -48 -92t-64 -112q-34 -61 -68.5 -124t-65 -122.5t-54 -113t-33.5 -95.5v-5z" />
    <glyph glyph-name="zero" unicode="0" horiz-adv-x="561" 
d="M334 605q-37 0 -68.5 -13.5t-54.5 -37t-36 -55t-13 -67.5q0 -28 9.5 -52.5t26.5 -42.5t40 -28.5t51 -10.5q7 0 18 1t21.5 4t18.5 9t8 16t-6.5 16t-15.5 6q-6 0 -9 -2q-8 -6 -19 -6h-16q-18 0 -33 7.5t-26 20t-17 29t-6 35.5q0 29 10 53t27 41t39.5 26.5t47.5 9.5
q40 0 69.5 -17t48 -45.5t27.5 -65.5t9 -78q0 -56 -14 -115t-41.5 -107t-69.5 -78.5t-98 -30.5q-50 0 -83.5 19.5t-54 50.5t-29 70t-8.5 79q0 24 3 48t7 43.5t9 33t9 18.5q2 2 2 10q0 9 -6 15.5t-14 6.5q-15 0 -22 -12q-5 -9 -11 -26t-11 -38.5t-8 -47t-3 -51.5
q0 -121 55.5 -190t162.5 -69q67 0 117.5 33t84.5 85.5t50.5 119t16.5 133.5q0 55 -13 101t-38 78t-61.5 50t-82.5 18z" />
    <glyph glyph-name="one" unicode="1" horiz-adv-x="392" 
d="M244 441q3 25 10.5 47t17.5 38.5t22 25.5t24 9q7 0 11 -5t4 -12q0 -30 -22 -56.5t-67 -46.5zM208 -14q11 0 20.5 6.5t17 21.5t12 40.5t4.5 63.5q0 66 -10.5 132.5t-10.5 125.5q0 4 0.5 9t0.5 10q69 27 102.5 66t33.5 85q0 23 -15 40t-41 17q-25 0 -46.5 -14.5t-38 -39.5
t-26.5 -58t-12 -70q-35 -14 -71 -25t-82 -19q-9 -2 -15 -6.5t-6 -12.5q0 -21 19 -21q11 0 31.5 4t43 10t43.5 13.5t35 13.5q0 -23 1.5 -41.5t3.5 -38.5q1 -18 4 -41t5.5 -47.5t4.5 -49t2 -45.5q0 -43 -7 -63.5t-12 -27.5t-8 -11t-3 -12q0 -15 20 -15z" />
    <glyph glyph-name="two" unicode="2" horiz-adv-x="537" 
d="M50 508q11 1 26.5 -2t25.5 -8q-28 -47 -28 -99q0 -51 25.5 -77.5t60.5 -26.5q39 0 61.5 27t22.5 67q0 35 -18.5 69t-54.5 57q17 22 49.5 35t65.5 13q32 0 57.5 -12.5t43.5 -34t27.5 -51t9.5 -62.5q0 -43 -14.5 -86.5t-37.5 -82.5t-52.5 -72t-59.5 -55q-33 24 -67 40
t-72 15q-26 0 -46 -9t-34 -22.5t-21 -31.5t-7 -36q0 -34 23.5 -51.5t64.5 -17.5q45 0 84 17t74 44q55 -40 94.5 -63.5t77.5 -23.5q55 0 83 28.5t28 73.5q0 14 -4.5 28t-11 25t-15 18t-16.5 7q-9 0 -15 -6q-7 -6 -7 -16t6 -15q8 -6 13 -17.5t5 -23.5q0 -26 -15.5 -43.5
t-50.5 -17.5q-24 0 -58.5 20t-79.5 55q36 28 68 65.5t56 79.5t38 86.5t14 87.5t-13 79.5t-37 63.5t-58 42.5t-75 15.5q-51 0 -89.5 -20.5t-64.5 -49.5q-17 6 -38 10.5t-44 4.5q-15 0 -26 -5.5t-11 -16.5q0 -9 6.5 -15t14.5 -5zM58 69q0 19 18 35t47 16q24 0 52.5 -11.5
t50.5 -28.5q-24 -18 -56.5 -31.5t-66.5 -13.5q-20 0 -32.5 9t-12.5 25zM161 336q-15 0 -29 16t-14 47q0 21 5.5 42.5t18.5 41.5q23 -16 40 -40t17 -54q0 -22 -9.5 -37.5t-28.5 -15.5z" />
    <glyph glyph-name="three" unicode="3" horiz-adv-x="523" 
d="M388 317q11 9 20.5 23.5t16.5 31.5t11 36t4 36q0 29 -9 57.5t-28 51t-48.5 36.5t-71.5 14q-12 0 -27 -2t-27 -5q-20 16 -48 24.5t-50 8.5q-17 0 -33 -3t-16 -21q0 -9 7 -12t16 -3q7 0 14.5 0.5t11.5 0.5q19 -2 32 -6t24 -10q-24 -16 -40.5 -40.5t-16.5 -50.5
q0 -32 19.5 -51t48.5 -19q15 0 29.5 6.5t25.5 18.5t18 28.5t7 36.5q0 17 -5 32.5t-13 26.5q4 1 10 1h11q33 0 55 -11.5t35.5 -29.5t19 -39t5.5 -40q0 -29 -11 -59t-30 -46q-24 12 -51 19t-56 7q-35 0 -55 -8.5t-30 -19.5t-12.5 -22.5t-2.5 -17.5q0 -27 24.5 -45t60.5 -18
q32 0 66 13t62 39q26 -19 43 -47.5t17 -69.5q0 -32 -12 -60.5t-35.5 -49.5t-58.5 -33.5t-80 -12.5q-48 0 -79 16t-49 38t-25 45t-7 37t2.5 23t4.5 14q2 4 2 10q0 10 -6.5 16.5t-14.5 6.5q-12 0 -19 -8t-10 -19.5t-3.5 -24.5t-0.5 -22q0 -28 11.5 -58t36 -55t63 -41.5
t92.5 -16.5q57 0 100.5 15t73 41t44.5 61t15 75q0 94 -78 151zM235 504q0 -23 -11 -37t-25 -14q-13 0 -20 8.5t-7 22.5q0 17 13 37t35 31q8 -11 11.5 -23.5t3.5 -24.5zM193 297q0 14 17.5 20.5t37.5 6.5t40.5 -4.5t36.5 -12.5q-17 -14 -44 -22.5t-48 -8.5q-19 0 -29.5 6.5
t-10.5 14.5z" />
    <glyph glyph-name="four" unicode="4" horiz-adv-x="642" 
d="M310 574q16 -1 26 -8.5t16 -18t8 -22t2 -21.5q0 -29 -11 -59.5t-30 -61.5t-45.5 -61t-57.5 -57q-29 12 -57.5 21t-58.5 9q-38 0 -64.5 -20t-26.5 -56q0 -29 20 -47.5t53 -18.5q38 0 73.5 18t68.5 46q15 -5 29.5 -10.5t29.5 -11.5q32 -12 65.5 -24t66.5 -21
q-5 -27 -9.5 -59.5t-4.5 -61.5q0 -32 6.5 -51.5t23.5 -19.5q10 0 16.5 6.5t6.5 15.5q0 5 -3 11q-3 5 -4 14t-1 21q0 25 3.5 57t8.5 57q17 -4 34 -5.5t34 -1.5q31 0 52.5 8t35 18.5t20 21t6.5 16.5q0 10 -6.5 16t-14.5 6q-11 0 -17 -8q-13 -14 -29.5 -25t-46.5 -11
q-31 0 -60 7q3 15 9 47.5t13 67t13.5 64.5t8.5 40q1 6 3.5 17t4.5 22.5t3.5 23t1.5 19.5q0 7 -0.5 16.5t-3 17.5t-8 14t-15.5 6q-9 0 -15.5 -6.5t-6.5 -15.5q0 -3 2 -9q3 -8 3 -28q0 -11 -5.5 -39.5t-18.5 -84.5q-10 -42 -17.5 -82.5t-14.5 -79.5q-13 3 -32.5 9.5
t-41.5 14.5t-45.5 16.5t-43.5 16.5q68 63 106.5 128t38.5 127q0 47 -25.5 80t-71.5 33q-5 0 -12 -0.5t-13.5 -3t-11 -7.5t-4.5 -14t6.5 -15.5t15.5 -5.5zM57 219q0 12 12 23.5t35 11.5q19 0 37.5 -4.5t40.5 -13.5q-51 -42 -95 -42q-11 0 -20.5 6t-9.5 19z" />
    <glyph glyph-name="five" unicode="5" horiz-adv-x="507" 
d="M461 619q-9 0 -15 -3t-9 -12q1 -10 -7.5 -15.5t-24 -8.5t-36.5 -4t-43 -1q-12 0 -36.5 2t-51 4.5t-50 4.5t-34.5 2q-25 0 -40 -3t-15 -22q0 -12 11 -18q4 -3 14.5 -12t20 -26t15.5 -42t3 -59q-48 -11 -79.5 -38t-31.5 -62q0 -26 17 -40.5t42 -14.5q29 0 56.5 30.5
t35.5 92.5l18 2t19 1q46 0 80 -13.5t56.5 -36.5t33.5 -53t11 -63q0 -45 -17.5 -80.5t-46.5 -59.5t-67 -36.5t-78 -12.5q-28 0 -53.5 6t-46.5 18t-35.5 30.5t-18.5 43.5q-2 8 -7 13t-13 5q-10 0 -16 -6.5t-6 -16.5q0 -20 11.5 -43.5t35.5 -43.5t61 -33t87 -13q51 0 97.5 16
t81.5 46t55.5 72.5t20.5 95.5q0 37 -13 74t-40 66.5t-69 47.5t-100 18q-11 0 -21.5 -1t-17.5 -2q2 38 -8 74t-32 58q10 -1 33 -3t48 -4t47.5 -3.5t32.5 -1.5q25 0 49.5 0.5t45 6t35.5 17t21 33.5q1 2 1 6q0 7 -4.5 14t-12.5 7zM112 291q-16 0 -16 17q0 6 4 14.5t12 16.5
t20 14.5t27 8.5q-5 -30 -19 -50.5t-28 -20.5z" />
    <glyph glyph-name="six" unicode="6" horiz-adv-x="501" 
d="M304 355q-31 0 -57.5 -12t-46.5 -31.5t-31.5 -45.5t-11.5 -54q0 -22 8 -39.5t21 -29.5t30.5 -18.5t35.5 -6.5q29 0 51.5 20t22.5 49q0 3 -0.5 9t-3 12.5t-7.5 11.5t-14 5q-21 0 -21 -22q0 -2 2 -8t2 -8q0 -11 -10 -19.5t-21 -8.5q-23 0 -37 14.5t-14 38.5q0 22 8.5 40.5
t22.5 32t32.5 21.5t38.5 8q59 0 92 -39t33 -101q0 -23 -9 -49t-28 -48t-48.5 -36.5t-70.5 -14.5q-39 0 -74 13.5t-61 39.5t-41.5 65.5t-15.5 91.5q0 43 8 79t20.5 65t28 52t30.5 41q19 22 43.5 39.5t50.5 29.5t52.5 18.5t51.5 6.5q4 0 11.5 -1t10.5 -1q9 0 16 7t7 15
q0 15 -12.5 19t-28.5 4q-30 0 -62 -8t-63 -22t-59 -34.5t-49 -44.5q-19 -22 -37 -47.5t-32.5 -58t-23 -71.5t-8.5 -88q0 -62 19 -108.5t51 -78.5t75 -48t91 -16q47 0 84.5 16.5t63.5 43t40 60.5t14 69q0 41 -12 74.5t-34.5 57t-54 36.5t-69.5 13z" />
    <glyph glyph-name="seven" unicode="7" horiz-adv-x="470" 
d="M183 548q13 0 28 -0.5t28 -2.5q-16 -52 -50 -80.5t-80 -28.5q-20 0 -33 10.5t-13 28.5q0 17 9.5 30.5t25.5 23t38 14.5t47 5zM152 -24q9 0 15.5 5.5t7.5 14.5q8 113 72.5 230.5t193.5 257.5q5 5 15 18t20.5 28t18 29t7.5 23q0 13 -10 19q-8 4 -12 4q-9 0 -16 -7
q-27 -27 -97 -27q-18 0 -40.5 3t-38.5 5q1 7 1.5 13t0.5 13q0 43 -26.5 75t-73.5 32q-9 0 -23 -3t-14 -21q0 -9 6.5 -13.5t16.5 -3.5l12 1q15 1 26 -5.5t18 -16.5t10.5 -22.5t3.5 -22.5v-11q0 -4 -1 -9q-16 2 -31 3t-31 1q-80 0 -122.5 -33t-42.5 -84q0 -32 24.5 -54.5
t62.5 -22.5q58 0 105 35t71 109q30 -3 52.5 -5.5t43.5 -2.5q16 0 32 1.5t28 4.5q-62 -61 -117.5 -131t-97.5 -141t-66.5 -139.5t-24.5 -126.5q0 -10 5.5 -16.5t15.5 -6.5z" />
    <glyph glyph-name="eight" unicode="8" horiz-adv-x="524" 
d="M482 493q0 35 -12.5 63t-30.5 47t-37.5 29t-32.5 10q-20 0 -20 -18q0 -8 5 -12t13 -8q38 -17 54.5 -48t16.5 -63q0 -21 -5.5 -43t-21 -42.5t-42 -37t-68.5 -27.5q-8 -2 -16.5 -3t-16.5 -3q-65 17 -101 47.5t-36 72.5q0 19 8 37.5t23 33.5t37.5 24t52.5 9q32 0 51 -15
t19 -38q0 -18 -12.5 -28.5t-30.5 -10.5q-5 0 -12.5 3t-10.5 8q-7 10 -20 10q-9 0 -15 -6t-6 -16q0 -14 17.5 -27t44.5 -13q42 0 65.5 24t23.5 56q0 39 -28.5 66t-80.5 27q-39 0 -70.5 -12t-54 -32t-34.5 -46t-12 -54q0 -27 10.5 -48.5t27 -38.5t37.5 -28t41 -17
q-29 -6 -58.5 -20t-53.5 -37t-39.5 -54.5t-15.5 -71.5q0 -39 18.5 -69t49.5 -50.5t72 -30.5t87 -10q51 0 92.5 12t71 34t46 53.5t16.5 71.5q0 23 -7.5 47t-25 46.5t-45.5 41.5t-70 32q38 10 65 29t44 42t25 49.5t8 52.5zM262 21q-34 0 -66.5 8t-58 23.5t-41.5 39t-16 54.5
q0 32 14 59t38.5 47t57.5 32.5t71 16.5q22 -4 53.5 -13t60 -25.5t48.5 -43t20 -66.5q0 -33 -15 -58t-39.5 -41.5t-57.5 -24.5t-69 -8z" />
    <glyph glyph-name="nine" unicode="9" horiz-adv-x="517" 
d="M255 601q-54 0 -94.5 -17t-68 -45.5t-41 -64.5t-13.5 -73q0 -39 14 -70.5t37.5 -53.5t55 -34t66.5 -12q36 0 65 11t49.5 30.5t31 46t10.5 57.5q0 20 -7 37t-18 29.5t-24 19.5t-25 7q-9 0 -15.5 -6.5t-6.5 -15.5q0 -7 4.5 -14t11.5 -8q8 -1 15 -6.5t11.5 -13t7 -15.5
t2.5 -15q0 -46 -28.5 -74.5t-83.5 -28.5q-26 0 -49.5 9t-41 26t-28 40.5t-10.5 53.5q0 28 10 57t31.5 51.5t54 37t77.5 14.5q42 0 75.5 -16t57 -43.5t36 -64.5t12.5 -79q0 -68 -21.5 -126.5t-60.5 -102t-93.5 -68t-120.5 -24.5q-3 0 -9 0.5t-13 0.5t-13 0.5t-7 0.5
q-8 0 -15 -5t-7 -15q0 -18 15 -20.5t47 -2.5q77 0 140 28t108 76.5t69.5 114.5t24.5 143q0 52 -16 96.5t-45 77t-71 51t-93 18.5z" />
    <glyph glyph-name="colon" unicode=":" horiz-adv-x="130" 
d="M46 9q-2 -10 5 -18t20 -8q21 0 24 19l6 32q1 10 -4.5 17t-16.5 8q-11 2 -19 -3.5t-10 -14.5zM46 218q-2 -9 4 -16.5t18 -8.5q11 -2 18 4t9 15l6 34q1 10 -6.5 17.5t-18.5 7.5q-22 0 -25 -19z" />
    <glyph glyph-name="semicolon" unicode=";" horiz-adv-x="130" 
d="M52 219q-2 -11 5 -18.5t20 -7.5q9 0 15.5 5.5t8.5 13.5l6 32q1 9 -5 16t-16 9q-12 2 -19.5 -3.5t-8.5 -14.5zM75 63q-10 0 -16.5 -7t-6.5 -16q0 -61 -12 -79q-3 -5 -3 -11q0 -10 7 -16.5t18 -6.5q14 0 22 15t11.5 34t4 37.5t0.5 26.5q0 9 -7 16t-18 7z" />
    <glyph glyph-name="less" unicode="&#x3c;" 
d="M399 59l-314 143l314 144v44l-366 -167v-42l366 -166v44z" />
    <glyph glyph-name="equal" unicode="=" 
d="M398 295h-364v-42h364v42zM398 152h-364v-42h364v42z" />
    <glyph glyph-name="greater" unicode="&#x3e;" 
d="M33 59v-44l366 166v42l-366 167v-44l314 -144z" />
    <glyph glyph-name="question" unicode="?" horiz-adv-x="425" 
d="M217 108q9 0 15.5 6.5t6.5 15.5q0 8 -7 17q-4 3 -12 16t-8 33q0 32 21 55.5t53 46.5q24 18 47 37.5t41 43.5t28.5 53t10.5 67q0 60 -39 99q-45 45 -125 45q-26 0 -48.5 -6.5t-39.5 -16.5q-9 3 -17.5 3.5t-14.5 0.5q-25 0 -46 -6.5t-36 -16.5t-23.5 -21.5t-8.5 -21.5
t6.5 -15.5t16.5 -5.5q7 0 11 4t9 12q5 9 23 21t44 10q-17 -16 -24 -36.5t-7 -39.5q0 -23 7.5 -40t19 -28t26 -16.5t29.5 -5.5q30 0 55 24t25 66q0 29 -12 53t-36 38q9 2 18.5 3t17.5 1q60 0 92 -30t32 -73q0 -30 -8.5 -54t-22 -43.5t-31.5 -35t-37 -29.5q-44 -32 -72.5 -64
t-28.5 -78q0 -16 4.5 -32t11.5 -28.5t16 -20t17 -7.5zM185 14q-2 -11 5 -19t21 -8q9 0 15 5.5t8 13.5l6 33q1 8 -4.5 15.5t-16.5 9.5t-19 -3.5t-10 -15.5zM212 508q0 -25 -11 -37t-23 -12q-14 0 -27 10.5t-13 38.5q0 45 32 72q20 -11 31 -30t11 -42z" />
    <glyph glyph-name="at" unicode="@" horiz-adv-x="576" 
d="M482 188q-31 -42 -79.5 -66.5t-100.5 -24.5q-46 0 -86.5 17.5t-70.5 48t-47.5 71t-17.5 86.5t16.5 87.5t46 72.5t70 49t88.5 18q39 0 74.5 -12.5t62.5 -35.5t43.5 -56.5t16.5 -75.5q0 -23 -9 -49t-23.5 -48.5t-33.5 -37.5t-40 -15q-16 0 -16 18t7 38l58 186h-41l-17 -42
q-13 30 -32.5 44.5t-42.5 14.5q-38 0 -69 -18t-53 -46t-34 -62.5t-12 -68.5q0 -40 26 -70t70 -30q28 0 50.5 14.5t39.5 31.5l2 1q2 -23 15.5 -35t31.5 -12q27 0 55.5 15t52 42t38.5 63.5t15 79.5q0 42 -18.5 79t-51 64t-75.5 43t-92 16q-53 0 -100 -20t-82.5 -55t-56 -82
t-20.5 -101t20 -102t55 -84t83 -57t104 -21q33 0 63.5 8t57 22.5t48.5 33.5t37 40zM306 435q22 0 39 -21t17 -46q0 -20 -8.5 -45.5t-24 -48t-36.5 -38t-45 -15.5q-26 0 -43 19t-17 51q0 19 8.5 44t24 47t37.5 37.5t48 15.5z" />
    <glyph glyph-name="A" unicode="A" horiz-adv-x="662" 
d="M491 364q2 21 3 40.5t1 38.5q0 123 -45 167q-29 30 -78 30q-37 0 -68 -19.5t-56.5 -52.5t-46 -76t-35.5 -91q-67 -18 -106.5 -54t-39.5 -86q0 -38 25.5 -67.5t80.5 -40.5q-1 -75 13.5 -117.5t35.5 -42.5q10 0 16.5 6.5t6.5 15.5q0 8 -6 14q-10 14 -16 44.5t-6 74.5
q36 -1 68 7.5t56 25t38 39.5t14 51q0 10 -6.5 16t-15.5 6q-21 0 -21 -22q0 -20 -11 -35.5t-29.5 -26t-42.5 -16t-49 -4.5q2 40 9.5 86.5t20.5 91.5q20 3 40.5 5t43.5 2q91 0 160 -33q-7 -72 -11 -123t-4 -77q0 -52 8.5 -84.5t26.5 -51.5q10 -11 24 -16t30 -5q20 0 40 8.5
t36.5 27t26.5 47.5t10 69q0 67 -35.5 127.5t-105.5 100.5zM474 141q0 15 1.5 36.5t3.5 45.5t4.5 48.5t4.5 46.5q45 -30 72.5 -77t27.5 -105q0 -47 -18 -79.5t-49 -32.5q-14 0 -23.5 9t-14.5 25t-7 37.5t-2 45.5zM372 599q28 0 46 -18q33 -33 33 -137q0 -29 -3 -59
q-76 31 -163 31q-18 0 -35 -1.5t-33 -3.5q13 39 29.5 73t36 59.5t42 40.5t47.5 15zM154 354q-11 -39 -18 -82.5t-9 -77.5q-35 10 -48.5 27t-13.5 40q0 33 27 56.5t62 36.5z" />
    <glyph glyph-name="B" unicode="B" horiz-adv-x="562" 
d="M391 319q30 10 50.5 25t33.5 32.5t18.5 36t5.5 35.5q0 42 -16.5 72.5t-42.5 51t-59 32.5t-65.5 18t-61.5 7t-48 0q-4 51 -19 77t-30 26q-10 0 -16 -6.5t-6 -15.5q0 -10 6 -16q11 -11 15 -31t5 -40q-60 -12 -90.5 -43t-30.5 -69q0 -34 25 -59.5t73 -35.5
q-14 -56 -25.5 -112t-11.5 -111q0 -57 17 -97.5t46 -67t68 -38.5t84 -12q43 0 82 11.5t69 34.5t47.5 57t17.5 80q0 21 -6.5 46t-23 47.5t-43.5 40.5t-68 24zM316 15q-30 0 -60.5 9t-55 30t-39.5 55.5t-15 85.5t9.5 103t24.5 112q60 -1 91.5 27.5t31.5 67.5q0 9 -3 22.5
t-20 13.5q-10 0 -15.5 -6.5t-5.5 -14.5q0 -2 1 -7.5t1 -7.5q0 -15 -8 -25.5t-19 -17t-23.5 -9.5t-22.5 -3q8 38 13 73t6 67q35 2 67.5 -2t60.5 -12t50.5 -20t37.5 -27q32 -30 32 -81q0 -16 -8.5 -36t-29 -37t-55.5 -29t-89 -13q-9 0 -15.5 -6.5t-6.5 -15.5q0 -10 6.5 -15.5
t15.5 -4.5q51 4 91 -4t67.5 -25t41.5 -43t14 -58q0 -37 -15 -64.5t-39.5 -45.5t-55 -27t-61.5 -9zM85 511q0 21 18.5 42t59.5 30q-2 -28 -7.5 -62.5t-12.5 -66.5q-20 5 -39 18t-19 39z" />
    <glyph glyph-name="C" unicode="C" horiz-adv-x="601" 
d="M368 396q22 -22 48 -34t52 -12q51 0 77.5 31t26.5 73q0 32 -13.5 63t-39 55.5t-62.5 40t-85 18.5q17 30 42 42t52 12q5 0 18 -2t17 -2q9 0 15.5 5t6.5 15q0 9 -6 14.5t-14.5 8.5t-18.5 3.5t-18 0.5q-47 0 -86 -25t-59 -73q-63 -6 -115 -36t-89 -76.5t-57.5 -105.5
t-20.5 -125q0 -64 19 -119t55 -95.5t88 -63.5t118 -23q63 0 108 16.5t73.5 37.5t42 40.5t13.5 25.5q0 10 -6.5 16.5t-14.5 6.5q-12 0 -19 -10q-29 -43 -79.5 -66.5t-117.5 -23.5q-57 0 -101 20t-74 55t-45.5 82t-15.5 101q0 53 15.5 102.5t45 90t71 68.5t94.5 38
q-1 -6 -1.5 -12.5t-0.5 -13.5q0 -49 15.5 -92t45.5 -72zM468 393q-18 0 -38 11t-37.5 32t-29 52t-11.5 72q0 16 3 30q41 -1 73 -13t53.5 -30.5t33 -43t11.5 -49.5q0 -7 -1.5 -17.5t-7.5 -20t-17.5 -16.5t-31.5 -7z" />
    <glyph glyph-name="D" unicode="D" horiz-adv-x="602" 
d="M273 -14q47 0 88.5 16.5t76 44.5t62 66t46.5 80t29 86.5t10 86.5q0 51 -15.5 99t-50.5 86t-93 61t-143 23q-54 0 -100.5 -14t-80.5 -39t-53 -58.5t-19 -72.5q0 -54 32 -88.5t87 -45.5q-3 -17 -5 -43.5t-2 -54.5q0 -38 3.5 -79t17 -75.5t39.5 -56.5t71 -22zM274 26
q-26 0 -43 14t-27 39.5t-14 61t-4 78.5q0 27 2 53t5 41q46 1 77.5 12t51 27t28 34t8.5 33q0 9 -6.5 15.5t-15.5 6.5t-15.5 -6t-7.5 -14q-2 -26 -31.5 -45.5t-83.5 -21.5q7 49 15 89t13 60q1 2 1 7q0 9 -6.5 15.5t-15.5 6.5q-7 0 -13 -4t-8 -12q-6 -21 -14.5 -62.5
t-16.5 -95.5q-14 3 -28 9.5t-25 17.5t-18 27t-7 39q0 28 14.5 53.5t41.5 45.5t64.5 32t83.5 12q84 0 135.5 -23.5t79 -58t37 -74t9.5 -72.5q0 -53 -19 -112.5t-53.5 -110t-84 -84t-109.5 -33.5z" />
    <glyph glyph-name="E" unicode="E" horiz-adv-x="523" 
d="M302 177q-57 0 -102.5 -12t-80.5 -33q-6 16 -10 33.5t-4 36.5q0 83 56 135q25 -38 70 -61t105 -23q39 0 61.5 10t33.5 23.5t14 27.5t3 21q0 21 -11.5 38.5t-32 30t-49 19.5t-61.5 7q-30 0 -59.5 -7t-53.5 -20q-4 13 -4 31q0 32 13 64t42 55q32 -34 75 -52.5t80 -18.5
q35 0 56.5 18.5t21.5 47.5q0 34 -32 57.5t-92 23.5q-28 0 -52.5 -5.5t-44.5 -15.5q-5 11 -8.5 22.5t-3.5 24.5q0 10 -6.5 16.5t-14.5 6.5q-10 0 -16.5 -6.5t-6.5 -16.5q0 -35 19 -68q-36 -29 -55.5 -69.5t-19.5 -83.5q0 -29 10 -57q-38 -30 -60 -75.5t-22 -99.5
q0 -27 6 -50.5t16 -45.5q-23 -22 -38.5 -53.5t-15.5 -64.5q0 -9 6.5 -15.5t15.5 -6.5t15 6t7 15q2 23 10.5 43.5t24.5 36.5q41 -49 105.5 -71.5t133.5 -22.5q42 0 68.5 8.5t42.5 22t22 29.5t6 30q0 26 -15 47t-40 36t-58 23t-70 8zM440 63q0 -21 -24.5 -35.5t-69.5 -14.5
q-62 0 -118 21t-88 60q28 18 69.5 30t92.5 12q27 0 51.5 -5.5t44 -15.5t31 -23.5t11.5 -28.5zM404 334q0 -40 -69 -40q-48 0 -84 20t-56 48q7 6 18.5 11t25 8t27.5 5t27 2q48 0 79.5 -16.5t31.5 -37.5zM341 588q35 0 57.5 -11t22.5 -29q0 -13 -11 -19.5t-23 -6.5
q-27 0 -60.5 14.5t-57.5 37.5q13 6 33.5 10t38.5 4z" />
    <glyph glyph-name="F" unicode="F" horiz-adv-x="559" 
d="M137 459q-24 -2 -43 14t-19 41q0 34 31.5 56t78.5 22q40 0 72.5 -10t60.5 -23q-25 -30 -37 -66t-12 -72q0 -21 3 -40t8 -39q-36 -20 -65 -49.5t-49.5 -64t-31 -70t-10.5 -67.5q0 -55 25.5 -80t63.5 -25q17 0 39 7.5t41.5 33t33 72.5t13.5 127q0 27 -2.5 50t-6.5 43
q15 5 31 8.5t34 3.5q32 0 55.5 -9t34.5 -25q6 -9 18 -9q9 0 15.5 6t6.5 16q0 6 -7 16.5t-23 21t-40.5 18t-59.5 7.5q-20 0 -38.5 -3.5t-36.5 -9.5q-3 17 -5.5 31t-2.5 30q0 35 11 65t32 51q48 -26 85 -42t84 -16q41 0 66 20.5t25 53.5q0 30 -29.5 55t-83.5 25q-51 0 -87 -12
t-64 -32q-35 17 -75 30.5t-92 13.5q-34 0 -62.5 -9t-49 -25t-32 -38t-11.5 -47q0 -20 8 -37.5t22.5 -31t33 -21.5t39.5 -8q5 0 12 0.5t13.5 3t11 7.5t4.5 13q0 10 -7 16t-16 4zM502 591q35 0 52 -13t17 -26q0 -15 -13 -23.5t-33 -8.5q-36 0 -68.5 14.5t-64.5 31.5
q18 11 48 18t62 7zM296 226q0 -31 -3.5 -66t-13 -64.5t-25.5 -49t-41 -19.5q-8 0 -16 2.5t-14 9.5t-10 19.5t-4 32.5q0 25 8 54t23.5 57.5t38 54t50.5 43.5q2 -16 4.5 -35t2.5 -39z" />
    <glyph glyph-name="G" unicode="G" horiz-adv-x="730" 
d="M680 257q-26 26 -67 26q-16 0 -30 -4t-27 -9q-29 43 -72.5 59.5t-86.5 16.5q-27 0 -47 -7t-32.5 -18t-19 -25t-6.5 -28q0 -38 35 -62.5t98 -24.5q35 0 61.5 10t48.5 22q9 -38 -1 -71.5t-34 -58t-59 -38.5t-76 -14q-59 0 -110 22t-88.5 59.5t-59 88.5t-21.5 109
q0 57 19.5 108t55.5 89t87.5 60t114.5 22q20 0 38 -3q-1 -8 -1 -13v-10q0 -34 10.5 -67t28.5 -59.5t42 -42.5t51 -16q32 0 49.5 21t17.5 50q0 21 -9.5 45t-28 47t-46 43t-63.5 32q11 37 30 44q15 5 15 20q0 10 -6.5 16.5t-15.5 6.5q-3 0 -10.5 -3t-17 -11t-19.5 -23.5
t-16 -39.5q-25 5 -49 5q-70 0 -129.5 -24t-102.5 -67t-67 -102t-24 -128q0 -68 25 -126t69 -101.5t103.5 -68t127.5 -24.5q56 0 97 18t68 45.5t40.5 60.5t13.5 62t-9 56q18 7 38 7q18 0 29 -7.5t17 -17.5t7.5 -21t1.5 -18q0 -19 -7 -36q-1 -3 -1 -9q0 -8 5.5 -15t14.5 -7
q10 0 16 8t9.5 18.5t4.5 22t1 18.5q0 25 -8 46.5t-23 35.5zM336 268q0 12 15 24t46 12q29 0 63 -11t57 -42q-20 -10 -42 -19t-50 -9q-35 0 -62 12t-27 33zM533 420q-14 0 -31 12t-30.5 33t-21.5 49.5t-5 60.5q27 -11 47.5 -27t34 -33.5t20.5 -35t7 -30.5q0 -29 -21 -29z" />
    <glyph glyph-name="H" unicode="H" horiz-adv-x="775" 
d="M371 322q-5 -2 -10.5 -3.5t-10.5 -3.5q5 34 7.5 70.5t2.5 72.5q0 26 -4 51t-13 46.5t-25 39t-40 27.5q-2 27 -10 47.5t-18 34t-20 20.5t-16 7q-10 0 -16.5 -6.5t-6.5 -15.5q0 -10 9 -19q13 -8 21 -23t12 -33q-43 3 -77 -9t-57.5 -32t-36 -45t-12.5 -49q0 -36 22 -56.5
t54 -20.5q27 0 52 11.5t45 32t34.5 48.5t19.5 60q20 -17 29 -45.5t9 -70.5t-3.5 -82.5t-9.5 -77.5q-53 -19 -103.5 -41t-90 -51t-64 -67t-24.5 -87q0 -44 27 -67.5t63 -23.5q43 0 79.5 24t65.5 65.5t51 97t35 119.5q11 5 22.5 8.5t22.5 7.5l46 17q25 9 53 19.5t59 22.5
q-3 -32 -3 -69q0 -80 20.5 -143t52.5 -106t72.5 -65.5t81.5 -22.5q9 0 15.5 6.5t6.5 16.5q0 8 -6.5 11.5t-15.5 5.5q-39 6 -67.5 25t-49 46t-33.5 58.5t-20 62.5t-10 58.5t-3 45.5q0 46 6 88q36 18 69.5 38t59 43.5t41 49.5t15.5 55q0 30 -17 52.5t-55 22.5q-29 0 -54 -18.5
t-45.5 -50t-34.5 -74t-21 -90.5q-37 -17 -71 -29t-60 -21zM702 578q30 1 30 -32q0 -17 -10.5 -34.5t-28.5 -35t-42.5 -33.5t-52.5 -31q17 87 46 125.5t58 40.5zM128 465q-14 0 -23.5 9.5t-9.5 24.5q0 12 7 28t22 30.5t38.5 24.5t56.5 10q5 0 9 -0.5t8 -1.5q-3 -22 -11 -44
t-21 -40t-32 -29.5t-44 -11.5zM110 0q-20 0 -32.5 14t-12.5 38q0 37 18.5 66.5t50 53.5t72.5 43t86 36q-13 -54 -32 -99.5t-42.5 -79.5t-51 -53t-56.5 -19z" />
    <glyph glyph-name="I" unicode="I" horiz-adv-x="441" 
d="M294 16q-40 0 -64 25t-27 63q14 3 29.5 5.5t27.5 2.5q43 0 74.5 -15t31.5 -39q0 -22 -21.5 -32t-50.5 -10zM234 523q-14 -2 -27 -3t-23 -1q-37 0 -62 11.5t-25 31.5q0 15 15.5 23.5t38.5 8.5q21 0 35.5 -6.5t24 -16.5t15 -23t8.5 -25zM184 478q28 0 56 5
q2 -45 -10.5 -86.5t-29.5 -87.5q-7 -20 -14.5 -42t-14 -45t-10.5 -45.5t-4 -41.5q-48 -13 -78.5 -35.5t-48 -45.5t-24 -43t-6.5 -27q0 -9 5.5 -15.5t15.5 -6.5q8 0 13.5 5t7.5 13q7 40 41 70.5t75 41.5q6 -53 42.5 -85t92.5 -32q57 0 87.5 23.5t30.5 58.5q0 18 -9 35.5
t-28 30.5t-48.5 21t-69.5 8q-13 0 -26.5 -2t-26.5 -4q2 34 15 74t25 73q17 48 31 95.5t10 103.5q39 9 64 24.5t39.5 33t20.5 35t7 32.5q1 10 -5 17.5t-17 7.5q-8 0 -14.5 -6t-7.5 -14q-4 -37 -30.5 -58t-62.5 -30q-7 27 -20 46.5t-30 31.5t-37 17.5t-40 5.5
q-42 0 -70.5 -20.5t-28.5 -52.5q0 -16 7.5 -31t23 -27t40.5 -19t61 -7z" />
    <glyph glyph-name="J" unicode="J" horiz-adv-x="521" 
d="M160 80q0 -9 6.5 -16t16.5 -7q8 0 12.5 4t7 9.5t3 10.5t0.5 7q0 26 -17 46.5t-55 20.5q-24 0 -45 -9.5t-36 -27t-24 -41.5t-9 -52q0 -32 13 -60t36.5 -49t56 -33t72.5 -12q56 0 99.5 19.5t73 54t45 81.5t15.5 101q0 42 -1.5 71.5t-3.5 55t-3.5 51.5t-1.5 61q0 33 5.5 63
t18.5 52q23 -5 47 -5q45 0 72 19.5t27 51.5q0 26 -14.5 41.5t-47.5 15.5q-36 0 -63.5 -21t-44.5 -53q-28 12 -52 22t-44 20q-42 20 -83 34.5t-85 14.5q-30 0 -52.5 -9t-38 -24t-23 -34t-7.5 -39q0 -15 4.5 -29t12 -24.5t15.5 -17t16 -6.5t14.5 6.5t6.5 15.5q0 10 -7 17
q-18 15 -18 38q0 27 18 46t59 19q42 0 76.5 -14t72.5 -31l45 -20t52 -23q-14 -22 -20.5 -54t-6.5 -70q0 -39 1.5 -66.5t3.5 -53.5t3.5 -54.5t1.5 -70.5q0 -51 -14.5 -90t-40 -66t-60.5 -41t-75 -14q-27 0 -51 8.5t-42 24t-28.5 36.5t-10.5 46q0 37 19 62.5t48 25.5
q16 0 23.5 -9t6.5 -18zM526 564q20 0 20 -18q0 -30 -54 -30q-7 0 -13.5 1t-13.5 2q11 20 27 32.5t34 12.5z" />
    <glyph glyph-name="K" unicode="K" horiz-adv-x="710" 
d="M158 -15q0 -9 7.5 -15t15.5 -6q3 0 5 0.5t4 1.5q32 9 52 32t31.5 57t16.5 77t7 92q30 2 58 16.5t54 35.5q5 -6 9.5 -13t9.5 -14l15 -25q30 -47 66.5 -104.5t78 -107.5t87.5 -83.5t96 -33.5q9 0 18.5 1t17.5 4t13 9.5t5 17.5q0 9 -5.5 11.5t-12.5 2.5q-5 0 -13 -1.5
t-22 -1.5q-41 0 -81 32t-77.5 79t-71 101t-61.5 98q-3 4 -8.5 12t-11.5 16.5t-12 16t-9 11.5q34 34 65 73.5t57 74.5q16 22 31.5 39.5t26.5 28.5q14 15 30.5 26t25.5 11t15.5 5.5t6.5 15.5q0 9 -6.5 15t-15.5 6q-23 0 -47.5 -15.5t-40.5 -32.5q-12 -14 -26.5 -30.5
t-34.5 -42.5q-25 -32 -54 -72t-62 -72q-27 24 -54 39t-59 18q0 19 0.5 40.5t2.5 39.5q69 19 108 56.5t39 80.5q0 27 -17 48t-49 21q-20 0 -39 -9t-35.5 -30t-28.5 -54t-18 -81q-30 -6 -64 -6q-54 0 -87.5 27t-35.5 72q-2 20 -22 20q-9 0 -15.5 -6t-6.5 -16q0 -20 8.5 -43.5
t28.5 -44.5t51.5 -35t78.5 -14q16 0 31 1t29 3q-2 -33 -3 -73q-33 -8 -57 -30t-24 -51q0 -12 3.5 -24t12.5 -23.5t24.5 -20t39.5 -12.5q-2 -56 -7.5 -94.5t-15.5 -65t-24 -41.5t-33 -23q-15 -5 -15 -18zM217 307q0 11 10.5 22.5t25.5 15.5v-15t-0.5 -23.5t-0.5 -23.5v-15
q-35 6 -35 39zM298 350q21 -2 43.5 -13.5t40.5 -31.5q-20 -17 -43 -28t-43 -12q0 11 0.5 25.5t0.5 25.5zM381 637q12 0 17.5 -8.5t5.5 -20.5q0 -25 -27 -51t-72 -42q10 58 30.5 90t45.5 32z" />
    <glyph glyph-name="L" unicode="L" horiz-adv-x="563" 
d="M341 455q9 56 25 93.5t33.5 60t34.5 32t30 9.5q14 0 21.5 -9t7.5 -23q0 -22 -11.5 -45t-31.5 -45t-48 -41t-61 -32zM104 0q-23 0 -41 15.5t-18 44.5q0 25 13.5 53t41.5 50.5t70.5 37.5t100.5 15q-22 -106 -64 -161t-103 -55zM295 441q-29 -7 -64 -7q-17 0 -37 3.5
t-37.5 13.5t-29.5 28t-12 46q0 9 -6 15.5t-15 6.5q-10 0 -16 -6.5t-6 -15.5q0 -66 45 -100t114 -34q15 0 30 1.5t29 3.5q-3 -35 -4.5 -56t-3 -35t-2.5 -24t-3 -22q-72 1 -124.5 -18t-86 -49t-50 -65.5t-16.5 -66.5q0 -48 30.5 -75t72.5 -27q158 0 211 256q52 -7 85.5 -25.5
t52.5 -42.5t26 -50.5t7 -48.5q0 -31 -13.5 -58t-44.5 -47q-10 -7 -10 -18q0 -9 6.5 -15.5t16.5 -6.5q6 0 20.5 9.5t29.5 27.5t27 45t12 62q0 29 -9.5 62t-33 63t-64 53t-101.5 32q1 9 3.5 28t4.5 41.5l4 45t3 37.5q41 15 78 37t64.5 49t44 59t16.5 66q0 37 -19.5 56.5
t-47.5 19.5q-35 0 -64.5 -19.5t-53 -54t-38.5 -81t-21 -99.5z" />
    <glyph glyph-name="M" unicode="M" horiz-adv-x="895" 
d="M111 714q-9 0 -16 -6t-7 -16q0 -8 5.5 -13.5t13.5 -7.5q76 -15 106 -126q-43 -38 -78.5 -93t-61 -114t-39.5 -117.5t-14 -104.5q0 -66 26.5 -98t64.5 -32q39 0 69.5 31t52.5 82t33.5 117.5t11.5 137.5q0 44 -3.5 91.5t-12.5 85.5q26 25 55 39t59 14q25 0 45 -9t36 -25
q32 -35 44 -88q-30 -41 -55.5 -89t-44 -97.5t-28.5 -97t-10 -85.5q0 -63 24 -88q18 -15 41 -15q34 0 59.5 29.5t42.5 77t26 107t9 119.5q0 38 -4 72t-12 58q6 8 20.5 26.5t35 38t45.5 34.5t52 15q33 0 55 -19t34.5 -49t17.5 -66t5 -70q0 -47 -6.5 -95t-17.5 -92.5
t-26.5 -82.5t-33.5 -63q-3 -6 -3 -13q0 -10 6 -16t15 -6q13 0 19 9q20 29 37 70t29 88.5t19 99t7 101.5q0 55 -12.5 111.5t-49.5 95.5q-37 38 -93 38q-25 0 -48.5 -8.5t-45 -23t-41 -33t-36.5 -39.5q-3 13 -13 33.5t-28.5 40t-46 34t-66.5 14.5q-35 0 -67.5 -13t-61.5 -35
q-17 52 -49 89.5t-85 46.5h-5zM233 354q0 -65 -10 -124t-26.5 -104t-38.5 -72t-46 -27q-18 0 -27.5 12t-14 27.5t-5.5 30t-1 19.5q0 42 12 92t33.5 102t51 101t63.5 89q4 -32 6.5 -68t2.5 -78zM520 313q-1 -60 -9.5 -111.5t-21 -89.5t-28.5 -60t-32 -22q-8 0 -12 8
t-6.5 18.5t-3 21t-0.5 15.5q0 31 7.5 69t22 79.5t34 84t43.5 83.5q4 -25 5 -48t1 -48z" />
    <glyph glyph-name="N" unicode="N" horiz-adv-x="710" 
d="M297 329q0 -68 -8.5 -124t-23 -96.5t-32 -63t-35.5 -22.5q-17 0 -25 14t-8 30q0 30 9.5 70.5t27 84.5t41 88t52.5 82q1 -14 1.5 -31.5t0.5 -31.5zM633 397q0 -41 -8 -88t-23.5 -96t-37.5 -97.5t-50 -93.5q-3 -6 -3 -12q0 -10 6.5 -16.5t15.5 -6.5q12 0 19 11
q59 96 92.5 200.5t33.5 198.5q0 65 -13 107t-33.5 66t-46.5 33.5t-53 9.5q-54 0 -105.5 -34t-99.5 -86q-5 25 -10.5 49.5t-13.5 45.5q38 27 59.5 65t21.5 81q0 13 -3.5 30.5t-9.5 33t-14.5 26.5t-18.5 11t-16 -6.5t-6 -16.5q0 -8 3 -11q20 -31 20 -67q0 -30 -14 -57.5
t-38 -47.5q-31 65 -77.5 99t-100.5 34q-47 0 -78 -26.5t-31 -66.5q0 -26 13.5 -48t37.5 -38t56.5 -25t70.5 -9q24 0 49 6t36 11q9 -26 15 -52t10 -64q-37 -42 -67.5 -93.5t-53 -103.5t-35 -100.5t-12.5 -85.5q0 -39 21.5 -62.5t53.5 -23.5q35 0 62 28.5t46 76.5t28.5 111
t9.5 132q0 59 -6 110q46 57 96.5 95t99.5 38q52 0 77 -47.5t25 -127.5zM46 669q0 27 17.5 39.5t45.5 12.5q39 0 76 -28.5t66 -88.5q-14 -5 -34 -9.5t-39 -4.5q-28 0 -52 6.5t-42 17t-28 25t-10 30.5z" />
    <glyph glyph-name="O" unicode="O" horiz-adv-x="660" 
d="M621 640q4 -11 5.5 -22.5t1.5 -22.5q0 -25 -9 -51t-32 -49q-46 76 -111.5 110t-135.5 34q-63 0 -101 -28t-38 -70q0 -33 19 -59t51 -45t74 -29t87 -10q36 0 75 9t61 23q8 -25 11 -48.5t3 -52.5q0 -60 -20 -113.5t-55 -93.5t-82 -63t-102 -23q-52 0 -95.5 17.5t-75 50.5
t-49 81t-17.5 108q0 30 5 59t13.5 55.5t20.5 47.5t27 35q6 6 6 15q0 10 -6.5 16t-15.5 6t-16 -6q-19 -18 -33.5 -44.5t-24.5 -57t-15.5 -63.5t-5.5 -63q0 -70 21 -125t58 -93.5t88.5 -59t112.5 -20.5q64 0 119.5 25t97 69.5t65.5 106t24 133.5q0 35 -5 67t-16 59
q31 26 48.5 63t17.5 78q0 7 -0.5 20.5t-4 26t-10.5 20t-19 4.5q-17 -5 -17 -22v-5zM552 469q-19 -13 -52 -21.5t-64 -8.5q-39 0 -73.5 8t-61 22t-41.5 31.5t-15 37.5q0 24 22 42t73 18q59 0 116.5 -32t95.5 -97z" />
    <glyph glyph-name="P" unicode="P" horiz-adv-x="519" 
d="M367 630q-80 0 -147 -38q-27 37 -66.5 58.5t-85.5 21.5q-8 0 -15 -6.5t-7 -15.5t6.5 -14.5t15.5 -5.5q37 0 67 -17.5t52 -44.5q-39 -34 -67.5 -77.5t-47 -92.5t-27.5 -99.5t-9 -98.5q0 -109 34 -160.5t90 -51.5q65 0 104 75t39 213q0 75 -13.5 148.5t-44.5 131.5
q55 32 122 32q31 0 58 -10t46 -27.5t30 -42t11 -53.5q0 -31 -13 -56t-33.5 -42t-44.5 -27t-45 -11q-9 -1 -15 -6.5t-6 -13.5q0 -10 6 -16.5t16 -6.5q26 0 57 11.5t58 34.5t45.5 56t18.5 77q0 37 -14 69.5t-38.5 55.5t-59.5 36.5t-77 13.5zM258 267q-1 -55 -9 -99.5
t-21 -75.5t-30.5 -48t-36.5 -17q-21 0 -36.5 15t-25 39t-14.5 55t-5 64q0 37 7 82t22 89.5t39.5 86t59.5 73.5q28 -53 39.5 -123t10.5 -141z" />
    <glyph glyph-name="Q" unicode="Q" horiz-adv-x="665" 
d="M665 -105q12 0 28.5 3t31 8t24.5 13t10 18t-6.5 14.5t-15.5 4.5q-5 0 -11 -4q-15 -10 -30.5 -12.5t-31.5 -2.5q-24 0 -49.5 10t-50 26t-47.5 36.5t-42 41.5q34 22 61.5 53t47 67.5t30.5 77.5t11 85q0 66 -20.5 121.5t-57 95t-86.5 61.5t-108 22q-75 0 -133 -28.5t-98 -75
t-60.5 -106t-20.5 -120.5q0 -22 2 -43.5t7.5 -39t13.5 -28t20 -10.5q9 0 15.5 5.5t6.5 15.5q0 7 -4 14q-7 11 -11.5 32t-4.5 54q0 48 16 99t48.5 93.5t83 70t119.5 27.5q49 0 90.5 -19.5t72 -54t47.5 -82t17 -104.5q0 -42 -10.5 -80.5t-28 -70.5t-41.5 -58t-51 -43
q-18 21 -41 47t-51 48.5t-61 37.5t-71 15q-47 0 -78 -24.5t-31 -68.5q0 -29 14.5 -54t40.5 -43.5t61 -29.5t77 -11q66 0 128 30q36 -39 68.5 -65t61 -41.5t53 -21.5t45.5 -6zM160 136q0 20 16.5 36t47.5 16q27 0 54.5 -13t52 -32t45 -41.5t34.5 -40.5q-23 -11 -49.5 -17
t-51.5 -6q-32 0 -59.5 8.5t-47.5 22.5t-31 31.5t-11 35.5z" />
    <glyph glyph-name="R" unicode="R" horiz-adv-x="632" 
d="M601 17q-17 11 -28.5 33t-22.5 46q-9 19 -21 43t-29 47.5t-41 45.5t-58 38q39 4 70 18t53.5 35t34.5 47t12 56q0 52 -27.5 93.5t-73.5 70t-106 43.5t-126 15q-51 0 -87 -10.5t-58 -27.5t-32 -38t-10 -43q0 -20 10 -44t42 -47q-29 -60 -29 -151q0 -94 11 -166.5t33 -119.5
q6 -13 21 -13q9 0 15.5 6.5t6.5 15.5q0 4 -3 10q-19 42 -29 110.5t-10 156.5q0 79 23 130q32 -14 65.5 -19.5t61.5 -5.5q72 0 110 20.5t38 52.5q0 34 -35 56.5t-90 22.5q-112 0 -166 -68q-10 8 -20 20.5t-10 32.5q0 35 38.5 56.5t103.5 21.5q52 0 103.5 -11.5t92.5 -34.5
t66.5 -57t25.5 -78q0 -35 -19.5 -59t-51 -39t-71.5 -21.5t-80 -6.5q-9 0 -15 -6.5t-6 -16.5q0 -8 5.5 -14.5t13.5 -7.5q51 -7 85.5 -26t58 -44.5t38.5 -54t26 -53.5q6 -13 15 -30.5t20 -33.5t23.5 -27.5t24.5 -11.5q9 0 15.5 6.5t6.5 15.5q0 12 -14 21zM292 500q38 0 59 -10
t21 -25q0 -11 -24.5 -21t-78.5 -10q-27 0 -54.5 6t-50.5 14q5 5 14.5 13t24.5 15.5t37 12.5t52 5z" />
    <glyph glyph-name="S" unicode="S" horiz-adv-x="579" 
d="M331 378q-35 12 -62 23.5t-46.5 25t-29.5 30.5t-10 40q0 20 9.5 39.5t29 35.5t48 25.5t67.5 9.5q8 0 18 -1t18 -3q-9 -14 -14 -32t-5 -35q0 -41 24.5 -66t57.5 -25q30 0 48.5 22t18.5 49q0 18 -6.5 40.5t-30.5 45.5q-4 4 -9 7.5t-10 7.5q28 18 62 18q10 0 17 5t7 13
q0 10 -6.5 16t-16.5 6q-32 0 -59 -10t-48 -27q-14 4 -30.5 6.5t-34.5 2.5q-50 0 -87 -13t-62.5 -34t-38 -48t-12.5 -55q0 -36 15.5 -61t40.5 -43t57 -30.5t66 -24.5q41 -14 75 -28.5t58 -34t37.5 -45t13.5 -61.5q0 -35 -18.5 -65t-52.5 -47q-1 46 -19 85.5t-48.5 68.5
t-72 45t-90.5 16q-35 0 -65.5 -10.5t-53 -28.5t-35.5 -42.5t-13 -52.5q0 -36 18.5 -65t51 -49.5t75 -31.5t90.5 -11q61 0 108 11q-12 -33 -33 -56t-44 -33q-14 -6 -14 -21q0 -9 6.5 -14.5t16.5 -5.5q7 0 23 8.5t34 26.5t34.5 45.5t25.5 65.5q60 25 90 67.5t30 93.5
q0 50 -20 84t-51 57.5t-69 39t-74 28.5zM459 516q0 -12 -6 -21t-17 -9q-15 0 -26.5 14.5t-11.5 35.5q0 31 16 55q16 -10 25 -20.5t13.5 -20.5t5.5 -19t1 -15zM200 230q46 0 82 -15t60 -41.5t35.5 -61.5t9.5 -75q-26 -8 -56 -12t-63 -4q-40 0 -75 9t-60.5 24.5t-40.5 36.5
t-15 46q0 20 10 37t27 29.5t39 19.5t47 7z" />
    <glyph glyph-name="T" unicode="T" horiz-adv-x="659" 
d="M63 445q34 -26 75 -26q7 0 15 0.5t15 3.5t12 8t5 14t-7 14t-16 5q-2 0 -11.5 -1.5t-12.5 -1.5q-30 0 -50.5 21t-20.5 46q0 33 28 57t83 24q51 0 100.5 -19t109.5 -53q-51 -56 -51 -158q0 -23 3 -51t8 -57q3 -29 7 -57t4 -51q0 -60 -15.5 -95t-59.5 -35q-11 0 -22.5 -2.5
t-11.5 -18.5q0 -18 12.5 -20t21.5 -2q45 0 69 20.5t35 48.5t13 57.5t2 46.5q0 26 -3.5 55t-7.5 59q-5 28 -7.5 55t-2.5 47q0 38 8.5 75t36.5 63q47 -26 98.5 -47t103.5 -21q45 0 70.5 20t25.5 50q0 14 -7 28.5t-24.5 26.5t-46 20t-70.5 8q-95 0 -153 -35q-31 17 -60.5 32
t-59.5 26.5t-61 18t-65 6.5q-40 0 -69.5 -10.5t-48.5 -27.5t-28.5 -39t-9.5 -45t10.5 -45t30.5 -38zM680 518q0 -14 -16 -21t-35 -7q-38 0 -80.5 14.5t-80.5 37.5q21 9 49 13.5t60 4.5q57 0 80 -13.5t23 -28.5z" />
    <glyph glyph-name="U" unicode="U" horiz-adv-x="725" 
d="M84 562q0 17 12 26.5t28 9.5q25 0 45.5 -24t30.5 -65q-5 -1 -12.5 -2t-14.5 -1q-16 0 -32 4t-28.5 11t-20.5 17.5t-8 23.5zM358 27q-49 0 -81 42.5t-32 140.5q0 14 1 47.5t2 70t1.5 69.5t0.5 45q0 10 -0.5 19.5t-1.5 18.5q48 21 78.5 65t30.5 99q0 13 -2 30t-7 32
t-13 25.5t-19 10.5q-22 0 -22 -22q0 -7 5 -14q6 -8 9.5 -25.5t3.5 -36.5q0 -39 -19 -71.5t-52 -49.5q-13 59 -46 88.5t-70 29.5q-36 0 -60.5 -23t-24.5 -56q0 -23 11 -41.5t29.5 -31t42.5 -19t50 -6.5q16 0 31 3q1 -6 1 -12v-13q0 -14 -0.5 -47.5t-1 -70t-1.5 -69.5t-1 -45
q0 -104 39 -164t118 -60q46 0 89 24.5t80 65.5q10 -32 23.5 -53.5t30.5 -34.5t36 -18.5t40 -5.5q13 0 26 4t13 20q0 10 -6.5 13.5t-15.5 3.5q-2 0 -10.5 -0.5t-10.5 -0.5q-35 0 -56 27.5t-37 84.5q33 45 59.5 97.5t45.5 106t29.5 104t10.5 90.5q0 35 -7.5 57t-18.5 34
t-23.5 16t-22.5 4q-34 0 -59.5 -32t-42 -82.5t-24.5 -113t-8 -123.5q0 -33 3.5 -72t11.5 -77q-35 -44 -74.5 -71t-81.5 -27zM660 514q0 -33 -7 -74t-21.5 -86.5t-35.5 -93t-48 -93.5q-3 20 -4 47t-1 50q0 73 8.5 132t22 100.5t29.5 64t30 22.5q16 0 21.5 -20t5.5 -49z" />
    <glyph glyph-name="V" unicode="V" horiz-adv-x="687" 
d="M536 617q-9 0 -15.5 -6.5t-6.5 -16.5q0 -9 6.5 -14.5t15.5 -5.5q33 0 54 -11t32 -27.5t15 -37t4 -38.5q0 -29 -11 -72t-29 -91t-42 -96t-51 -86t-55 -62t-53 -24q-38 0 -49.5 54.5t-11.5 151.5q0 27 -0.5 60t-4 67t-11 67.5t-21.5 61.5q45 54 45 128q0 37 -14.5 64
t-33 45t-37.5 26.5t-28 8.5t-15.5 -6t-6.5 -16q0 -17 17 -22q27 -7 49.5 -34t22.5 -66q0 -21 -4 -43.5t-15 -40.5q-6 12 -19 29t-32.5 32t-46 26t-61.5 11q-46 0 -74.5 -25.5t-28.5 -66.5q0 -22 11 -42t29.5 -35.5t44.5 -24.5t56 -9t57.5 7.5t48.5 23.5q10 -26 16 -55
t8.5 -58.5t3 -59t0.5 -54.5q0 -41 1.5 -84.5t11 -79.5t30.5 -59t59 -23q37 0 73 27t68 70.5t59 96.5t47 105.5t31 98.5t11 74q0 34 -9.5 63t-28.5 50t-47 32.5t-65 11.5zM64 541q0 23 17 37t42 14q27 0 48 -9.5t36.5 -23t26.5 -30t18 -29.5q-16 -12 -39.5 -20t-51.5 -8
q-21 0 -38.5 6.5t-30.5 16t-20.5 22t-7.5 24.5z" />
    <glyph glyph-name="W" unicode="W" horiz-adv-x="870" 
d="M872 564q0 10 -6.5 16.5t-15.5 6.5q-10 0 -16 -6.5t-5 -16.5q1 -13 -15 -23.5t-39 -14.5q-32 54 -77.5 91.5t-95.5 37.5q-43 0 -63.5 -21t-20.5 -47q0 -34 23.5 -56t58.5 -34t75.5 -15.5t73.5 -0.5q18 -38 27.5 -81t9.5 -87q0 -62 -15.5 -114.5t-44 -90.5t-68 -59
t-86.5 -21q-28 0 -48.5 9t-35.5 21.5t-25 26.5t-16 25q24 30 43 63t32 66t20 63.5t7 54.5q0 34 -7.5 55.5t-18 33.5t-23.5 16t-23 4q-28 0 -49 -18.5t-34.5 -46t-20 -60.5t-6.5 -62q0 -92 28 -162q-29 -32 -66 -54.5t-79 -22.5q-26 0 -46 9.5t-35 24.5q-40 42 -40 131
q0 40 9.5 84t29.5 86q45 0 92.5 15.5t86.5 39.5t63.5 52t24.5 53q0 28 -18.5 45.5t-47.5 17.5q-33 0 -65 -14t-61 -38t-54.5 -56.5t-45.5 -69.5q-28 7 -52 29t-24 62q0 3 1 12t1 11q0 9 -6 15.5t-15 6.5t-14 -4.5t-7 -11.5t-2.5 -15t-0.5 -14q0 -50 29 -83t71 -46
q-18 -44 -29 -89t-11 -88q0 -96 42.5 -150.5t123.5 -54.5q88 0 166 78q26 -47 67.5 -69t88.5 -22q56 0 103.5 24t82 67t54 103t19.5 132q0 45 -10 90t-27 86q44 11 61 32t17 43zM564 587q0 11 9.5 18t28.5 7q30 0 64 -23.5t63 -67.5q-39 -2 -70 3.5t-52 15t-32 22t-11 25.5z
M477 423q15 0 21 -18.5t6 -47.5q0 -18 -5 -42.5t-15 -52t-24 -56.5t-32 -55q-8 27 -12.5 60.5t-4.5 67.5q0 22 5 47.5t13.5 47t20.5 35.5t27 14zM369 556q7 0 14 -4.5t7 -16.5t-17.5 -30.5t-45.5 -36.5t-64 -32t-73 -18q35 62 83.5 100t95.5 38z" />
    <glyph glyph-name="X" unicode="X" horiz-adv-x="705" 
d="M744 -27q-31 0 -69.5 20t-80.5 65t-85.5 118t-84.5 178q72 115 138 173.5t107 55.5q11 -1 16.5 7.5t5.5 16.5q0 10 -6 16.5t-15 6.5q-39 0 -75 -21.5t-69.5 -54.5t-63.5 -73.5t-56 -78.5q-14 36 -30.5 71t-33.5 63q16 22 22.5 50t6.5 47q0 33 -11 61.5t-26 49.5t-31 32.5
t-26 11.5q-9 0 -15 -6.5t-6 -15.5q0 -12 12 -18q14 -7 25 -20t18.5 -29t11.5 -33.5t4 -32.5v-10q0 -6 -1 -14.5t-3.5 -18t-6.5 -17.5q-28 32 -67 53.5t-92 21.5q-28 0 -49.5 -8t-36.5 -21.5t-23 -30t-8 -34.5q0 -17 8.5 -35t26 -33t44.5 -24.5t65 -9.5q35 0 69.5 13.5
t57.5 36.5q17 -29 33.5 -65.5t32.5 -79.5q-30 -51 -66.5 -107.5t-74.5 -104t-75.5 -78.5t-70.5 -30q-11 0 -17 -7.5t-6 -15.5q0 -3 4 -12.5t22 -9.5q37 0 74 25t74.5 67.5t76 100t78.5 123.5q37 -89 79.5 -159.5t87 -119t90.5 -74t90 -25.5q9 0 21.5 2t12.5 19q0 10 -6.5 16
t-15.5 6h-11zM85 554q0 20 18 36.5t54 16.5q43 0 77 -20t57 -50q-16 -20 -46.5 -32t-59.5 -12q-50 0 -75 19t-25 42z" />
    <glyph glyph-name="Y" unicode="Y" horiz-adv-x="687" 
d="M557 322q0 121 13 184.5t48 63.5q30 0 30 -57q0 -25 -6.5 -56t-18.5 -64.5t-28.5 -67.5t-35.5 -65q0 17 -1 35t-1 27zM378 112q-22 0 -38.5 9t-28 30.5t-17 57t-5.5 89.5v63t-0.5 45t-1.5 33t-2 26q44 32 64 80.5t20 96.5q0 22 -3.5 39.5t-22.5 17.5q-9 0 -14.5 -7
t-5.5 -15q0 -5 1.5 -18t1.5 -17q0 -8 -1.5 -23.5t-7 -34t-15 -37.5t-25.5 -34q-9 42 -24.5 69t-34 43.5t-39 23t-39.5 6.5q-45 0 -74 -29t-29 -71q0 -27 11 -50t29.5 -39t44.5 -25t56 -9q34 0 65 11q1 -14 1.5 -28.5t0.5 -30.5v-63q0 -38 2.5 -81.5t14.5 -81.5t37.5 -63
t71.5 -25q41 0 76 20.5t72 57.5q-2 -97 -29 -166t-71.5 -112.5t-101.5 -63.5t-118 -20q-23 0 -50 6.5t-50 21.5t-39 39.5t-16 61.5q0 35 19 57.5t44 22.5q15 0 27.5 -10.5t12.5 -31.5q0 -11 -5 -28q-2 -4 -2 -8q0 -8 6.5 -15t16.5 -7q9 0 15 6.5t9 15.5t4 19t1 17
q0 38 -25.5 61t-59.5 23q-22 0 -41.5 -9.5t-34 -26t-23 -39t-8.5 -47.5q0 -44 17.5 -76t45.5 -53t63.5 -31t72.5 -10q61 0 126 20.5t117.5 67.5t86.5 125t34 193q0 5 -0.5 17.5t-1.5 26.5q28 36 52 77t41.5 83t27.5 82.5t10 74.5q0 26 -6 48t-20 34q-20 17 -43 17
q-38 0 -60 -23t-33 -62t-14 -91.5t-3 -112.5q0 -16 1 -46.5t3 -71.5q-35 -42 -68 -67t-71 -25zM237 485q-26 -12 -58 -12q-41 0 -69 22t-28 60q0 24 16 41.5t42 17.5q21 0 37 -10t28 -27.5t19.5 -41t12.5 -50.5z" />
    <glyph glyph-name="Z" unicode="Z" horiz-adv-x="790" 
d="M371 51q-28 17 -56.5 33t-49.5 27q34 41 60.5 83.5t61.5 99.5l21 34q20 32 46.5 72t54.5 75q33 -10 61 -10q54 0 89.5 25.5t35.5 67.5q0 28 -15.5 44t-46.5 16q-41 0 -73.5 -25.5t-66.5 -67.5q-24 9 -43 18t-36.5 18.5t-34 19.5t-35.5 20q5 17 7.5 34t2.5 34
q0 21 -5 41.5t-12.5 36.5t-17 26t-18.5 10q-8 0 -14.5 -6.5t-6.5 -16.5q0 -6 5 -14q11 -14 18.5 -34t7.5 -42q0 -23 -8 -49q-34 18 -65 28t-69 10q-43 0 -74 -23.5t-31 -67.5q0 -45 32.5 -69.5t82.5 -24.5q43 0 83.5 23t63.5 66q38 -22 71 -40.5t68 -33.5q-25 -33 -48 -68.5
t-43 -67.5l-19 -31q-36 -59 -66 -104.5t-67 -87.5q-25 10 -46 15.5t-47 5.5q-33 0 -57.5 -8t-40 -21.5t-23.5 -31.5t-8 -37q0 -31 21 -47t49 -16q48 0 86 21t77 66q35 -17 71.5 -39t81.5 -48q33 -19 60.5 -34.5t53.5 -26t53 -16.5t59 -6q33 0 60 10.5t47 28.5t31 42.5
t11 51.5q0 23 -7 43.5t-21 36.5t-34 25t-45 9q-9 0 -15.5 -6.5t-6.5 -15.5t6.5 -15.5t15.5 -6.5q32 0 47.5 -22t15.5 -48q0 -42 -29 -66.5t-77 -24.5q-40 0 -84 15.5t-104 53.5zM630 577q11 0 16 -7t5 -14q0 -49 -84 -49q-6 0 -14 1t-17 3q24 29 47.5 47.5t46.5 18.5z
M179 516q-32 0 -51 14t-19 38q0 21 17.5 35.5t43.5 14.5q32 0 61.5 -11t56.5 -25q-14 -24 -42.5 -45t-66.5 -21zM45 55q0 20 19 37t62 17q17 0 31.5 -3.5t33.5 -10.5q-26 -27 -56 -45.5t-59 -18.5q-16 0 -23.5 8t-7.5 16z" />
    <glyph glyph-name="bracketleft" unicode="[" horiz-adv-x="280" 
d="M203 -119q-23 0 -45 2.5t-34 10.5q-9 6 -14.5 40t-9 88.5t-5 125t-1.5 148.5q0 57 1 110t2.5 97.5t4 77.5t5.5 50q36 -1 79 0.5t78 6.5q19 3 19 20q0 22 -22 22h-3q-28 -5 -61.5 -6t-65.5 -1h-38q-5 0 -12.5 -3t-12.5 -17q-5 -15 -9 -52.5t-6 -88.5t-3 -109t-1 -113v-42
q0 -20 1 -38q2 -96 5.5 -159t9.5 -103t14 -61t19 -31q6 -5 17 -8.5t25 -5.5t30.5 -2.5t31.5 -0.5h74q11 -1 17.5 4.5t6.5 14.5t-5.5 15.5t-14.5 7.5h-77z" />
    <glyph glyph-name="backslash" unicode="\" horiz-adv-x="328" 
d="M352 -9q-11 42 -34 95.5t-53.5 113t-65 122.5t-68.5 124q-35 59 -64 112t-48 92q-6 12 -21 12q-9 0 -15.5 -6.5t-6.5 -14.5q0 -6 13.5 -32.5t32 -60.5t38 -68.5t31.5 -55.5q32 -57 66 -118.5t64.5 -121t53.5 -112.5t33 -92q2 -9 10 -13.5t18 -2.5q16 5 16 22v5z" />
    <glyph glyph-name="bracketright" unicode="]" horiz-adv-x="280" 
d="M2 -112q-9 0 -15.5 -5t-6.5 -14q0 -16 11 -19.5t34 -5.5q35 -3 63 -5t49 -2q15 0 30 1.5t26.5 6t19 12.5t7.5 21v4q-4 20 -5.5 53.5t-1.5 75.5q0 24 1.5 67.5t3.5 96t4 110t4 109t3.5 93.5t1.5 64q0 34 -1.5 58t-9 39t-24.5 21.5t-48 6.5q-19 0 -41 -2.5t-47 -6.5
q-14 -2 -25 -3.5t-18 -1.5q-9 0 -15 -5.5t-6 -14.5q0 -10 6 -16.5t15 -6.5q10 0 22.5 2t27.5 4t38.5 5.5t43.5 3.5q26 0 34 -7q3 -18 3 -73q0 -27 -0.5 -60t-2 -69.5t-3 -74t-2.5 -73.5q-2 -45 -3.5 -78.5t-3 -63t-2.5 -58.5t-1 -64q0 -82 6 -130q-11 -3 -35 -3
q-26 0 -63.5 3t-71.5 5h-2z" />
    <glyph glyph-name="asciicircum" unicode="^" 
d="M195 524l-164 -327h46l138 278l140 -278h46l-164 327h-42z" />
    <glyph glyph-name="underscore" unicode="_" horiz-adv-x="500" 
d="M500 -125v50h-500v-50h500z" />
    <glyph glyph-name="grave" unicode="`" horiz-adv-x="205" 
d="M179 411q0 11 -8 17q-25 20 -48.5 38t-41.5 34q-4 3 -10.5 9t-13.5 11q-3 1 -6.5 2t-5.5 1q-8 0 -13 -4.5t-5 -12.5t4 -15t16 -16q10 -8 23.5 -18t27 -21t26.5 -21.5t22 -17.5q5 -4 9.5 -5t8.5 -1q6 0 10.5 5.5t4.5 14.5z" />
    <glyph glyph-name="a" unicode="a" horiz-adv-x="346" 
d="M216 346q-41 0 -74.5 -24.5t-57.5 -61t-37 -80.5t-13 -83q0 -28 7 -48t18.5 -32.5t26 -18.5t29.5 -6q27 0 46.5 10.5t32.5 25t19 28.5t6 20q0 9 -5.5 15.5t-15.5 6.5q-14 0 -19 -13q-8 -20 -22.5 -35.5t-34.5 -15.5t-31.5 17.5t-11.5 45.5q0 34 10 70.5t28 67t42 50
t53 19.5q20 0 36 -15t16 -51q0 -26 -4 -54.5t-9 -56.5q-4 -27 -7.5 -48t-3.5 -37q0 -15 5.5 -31.5t22.5 -16.5q9 0 16 6.5t7 14.5q0 4 -1 6.5t-3 5.5q-2 6 -2 13q0 15 3.5 37.5t6.5 42.5q5 29 9 60t4 60q0 52 -24.5 79t-67.5 27z" />
    <glyph glyph-name="b" unicode="b" horiz-adv-x="337" 
d="M155 438q32 75 65 121.5t62 46.5q10 0 15.5 -8t5.5 -21q0 -15 -11.5 -36.5t-25.5 -35.5q-21 -22 -50.5 -39.5t-60.5 -27.5zM162 -10q30 0 58.5 20t50.5 52t35 72.5t13 81.5q0 57 -24.5 92t-69.5 35q-23 0 -39.5 -5.5t-27 -13t-15.5 -16t-5 -13.5q0 -9 6.5 -15.5
t15.5 -6.5q10 0 17 7q9 10 19.5 14.5t26.5 4.5q26 0 39 -23.5t13 -59.5t-10.5 -70.5t-27 -61t-36.5 -42.5t-38 -16q-36 0 -52 32.5t-16 86.5q0 28 3.5 60t9.5 64t14.5 63.5t18.5 58.5q42 11 82.5 31t71.5 52q8 8 17 19t17 24.5t13.5 29t5.5 32.5q0 33 -17 50.5t-47 17.5
q-35 0 -64 -25.5t-51.5 -61.5t-38.5 -73.5t-24 -61.5q-16 -4 -31 -6t-33 -2q-17 0 -20.5 -8.5t-3.5 -10.5q0 -7 5 -15t19 -8q11 0 24 0.5t24 2.5q-17 -57 -28 -117.5t-11 -115.5q0 -51 10.5 -81.5t27 -47t36 -21.5t37.5 -5z" />
    <glyph glyph-name="c" unicode="c" horiz-adv-x="300" 
d="M275 305q-6 15 -22 26t-47 11q-37 0 -68 -19.5t-53 -51t-34.5 -71t-12.5 -80.5q0 -68 31 -99t78 -31q28 0 51 10t39 23t24.5 26.5t8.5 20.5q0 10 -5 16.5t-14 6.5q-12 0 -19 -13q-15 -27 -38.5 -38.5t-43.5 -11.5q-8 0 -19.5 3t-22 12t-18 27t-7.5 48q0 28 8 59.5t23 58
t37.5 44t51.5 17.5q14 0 22 -5.5t13 -13.5q8 -11 19 -11q10 0 15.5 6.5t5.5 15.5q0 8 -3 14z" />
    <glyph glyph-name="d" unicode="d" horiz-adv-x="340" 
d="M151 -8q44 0 78 34q25 25 42.5 65.5t28.5 88.5t16 100t6 100q19 -4 39 -4q5 0 11.5 6.5t6.5 14.5q0 17 -19 20q-10 1 -19.5 2t-17.5 3q0 8 -1 31t-6.5 51.5t-17 57t-30.5 47.5q-13 13 -28 19t-30 6q-19 0 -34 -8t-25.5 -21t-16 -29.5t-5.5 -32.5q0 -27 11.5 -51.5
t31.5 -45t47 -36t59 -23.5q-1 -68 -9 -132t-23.5 -113.5t-39 -79t-54.5 -29.5t-49.5 32t-18.5 83q0 28 7 54.5t19 47.5t28.5 34t36.5 13q11 0 20 -4.5t13 -10.5q6 -11 19 -11q9 0 15.5 6.5t6.5 15.5q0 7 -5.5 15.5t-15.5 16t-23.5 12.5t-29.5 5q-31 0 -56 -17t-42.5 -45
t-27 -62.5t-9.5 -69.5q0 -36 8.5 -65t23.5 -49t35.5 -31t43.5 -11zM208 592q10 0 22 -8.5t23 -27t18.5 -49.5t7.5 -76q-45 12 -75 43.5t-30 69.5q0 15 8.5 31.5t25.5 16.5z" />
    <glyph glyph-name="e" unicode="e" horiz-adv-x="298" 
d="M144 188q-10 -1 -16 -7.5t-6 -14.5q0 -10 6.5 -15.5t15.5 -5.5q22 0 47 7.5t46 22t35 36.5t14 52t-19.5 53.5t-64.5 23.5q-30 0 -59.5 -15.5t-53.5 -44t-39 -68t-15 -86.5q0 -64 34 -100t91 -36q23 0 43 6.5t34.5 16t23 19.5t8.5 17q0 10 -5.5 16.5t-14.5 6.5
q-10 0 -16 -8q-13 -16 -31.5 -24.5t-38.5 -8.5q-27 0 -43.5 10t-25 24.5t-11.5 31t-3 29.5q0 40 12 72t30 54t39 33.5t40 11.5q20 0 30 -9.5t10 -24.5q0 -17 -8.5 -30.5t-22.5 -23.5t-31 -15.5t-35 -5.5z" />
    <glyph glyph-name="f" unicode="f" horiz-adv-x="302" 
d="M50 -201q-15 0 -25.5 21t-10.5 56q0 37 8 86t25 100t45 99t68 84q-5 -80 -12.5 -164t-24.5 -157q-14 -63 -30 -94t-43 -31zM410 556q0 33 -20 55.5t-62 22.5t-73.5 -26.5t-49.5 -69.5q-10 -24 -16.5 -46t-11 -48.5t-8 -61t-6.5 -83.5q-53 -36 -90 -90t-60 -113
t-33.5 -117t-10.5 -103q0 -60 23 -90t55 -30q49 0 74.5 40t43.5 112q17 69 26 161.5t17 204.5q23 12 46 15t37 3q4 0 10.5 -0.5t13.5 -0.5q8 0 14 5t6 14q0 14 -10 19t-31 5q-27 0 -46.5 -3.5t-38.5 -11.5q5 60 11.5 112t25.5 92q16 34 34.5 52t42.5 18q21 0 31.5 -11.5
t10.5 -24.5q0 -11 -3 -18t-6 -9q-8 -5 -10 -13t-2 -13t5 -10.5t16 -5.5q12 0 28.5 19t16.5 49z" />
    <glyph glyph-name="g" unicode="g" horiz-adv-x="321" 
d="M195 300q18 0 29.5 -10t18 -24.5t9.5 -30t3 -27.5q0 -10 5.5 -16.5t14.5 -6.5q10 0 16.5 6.5t6.5 16.5q0 60 -26 96.5t-77 36.5q-36 0 -66 -20t-51.5 -51.5t-33.5 -71.5t-12 -79q0 -63 31.5 -97.5t82.5 -34.5q6 0 13.5 0.5t13.5 2.5q8 -12 15.5 -22t20.5 -23
q18 -19 28 -37.5t10 -41.5q0 -34 -15.5 -59.5t-39 -43t-52 -26t-55.5 -8.5q-49 0 -78.5 20.5t-29.5 58.5q0 29 17.5 48.5t43.5 19.5q6 0 14 -3.5t13 -11.5q2 -4 7.5 -5.5t9.5 -1.5q8 0 14 5.5t6 14.5q0 19 -17.5 31.5t-44.5 12.5q-23 0 -42.5 -8.5t-34 -23.5t-23 -35
t-8.5 -43q0 -58 42 -89t111 -31q39 0 76 12t66 35t47 56t18 75q0 31 -15 59t-38 49q-13 11 -25 28q33 18 49.5 45t16.5 55t-15 47.5t-42 19.5q-18 0 -32 -8.5t-23.5 -22t-15 -30.5t-5.5 -34q0 -11 2.5 -24t7.5 -23q-16 -1 -30.5 3t-25.5 15q-24 22 -24 74q0 31 9 63t24.5 58
t37 43t47.5 17zM189 73q0 21 10 37.5t22 16.5q10 0 13.5 -8.5t3.5 -16.5q0 -17 -11 -36.5t-31 -29.5q-4 9 -5.5 19t-1.5 18z" />
    <glyph glyph-name="h" unicode="h" horiz-adv-x="361" 
d="M79 -4q10 0 16.5 6.5t4.5 15.5q-5 42 6.5 90.5t32 90t47 69.5t50.5 28q19 0 28.5 -22.5t9.5 -79.5q0 -24 -2.5 -48t-5.5 -46t-7 -39.5t-7 -29.5q0 -2 -0.5 -3t-0.5 -3q0 -8 6.5 -15t16.5 -7q16 0 21 17q1 3 5 19t8 40t7.5 54t3.5 61q0 16 -1.5 41t-9 49t-23.5 41t-46 17
q-41 0 -81.5 -43t-63.5 -118q9 72 19.5 124t17.5 79q37 9 73.5 27t65.5 42t46.5 53t17.5 59q0 31 -18 49t-50 18q-29 0 -55 -19t-47.5 -49.5t-38.5 -68.5t-29 -75q-17 -3 -38 -3h-19q-8 2 -14.5 -4.5t-6.5 -15.5q0 -17 12.5 -19.5t26.5 -2.5h14q8 0 13 1q-4 -16 -9.5 -46
t-11 -68.5t-9 -81.5t-3.5 -84q0 -25 1.5 -42t5.5 -40q2 -8 7.5 -13t13.5 -5zM265 591q14 0 19.5 -7.5t5.5 -18.5q0 -18 -11.5 -37.5t-31.5 -37.5t-46.5 -33.5t-55.5 -25.5q12 35 27 64.5t31 50.5t32 33t30 12z" />
    <glyph glyph-name="i" unicode="i" horiz-adv-x="160" 
d="M119 455l-30 33l5 -46l-49 -28l50 -4l-1 -58l28 55l74 -12l-61 39l40 28zM112 332q-9 2 -17 -2.5t-10 -13.5q-11 -45 -19.5 -96.5t-14 -96.5t-8.5 -76.5t-3 -36.5q0 -10 6.5 -16.5t16.5 -6.5q9 0 15 6t7 15q2 36 6.5 76.5t10.5 80.5t12.5 76.5t13.5 63.5q1 2 1 5
q0 17 -17 22z" />
    <glyph glyph-name="j" unicode="j" horiz-adv-x="183" 
d="M119 394q2 -1 7 -1q12 0 16.5 7.5t11.5 27.5q1 3 1 8q0 9 -6.5 15.5t-16.5 6.5q-12 0 -16.5 -8t-11.5 -28q-1 -2 -1 -7q0 -16 16 -21zM-81 -312q66 0 112 51.5t66 141.5q7 32 12.5 64.5t10.5 72.5t9.5 91t9.5 119q2 16 3.5 39t1.5 40q0 9 -6 15.5t-16 6.5q-9 0 -15 -6
t-7 -15l-6 -79q-5 -66 -9.5 -117.5t-9 -92.5t-10 -73t-11.5 -58q-19 -79 -53.5 -119t-79.5 -40q-29 0 -44.5 16.5t-15.5 36.5q0 19 12 31.5t24 12.5q5 0 8.5 -0.5t8.5 -0.5t13 3.5t8 15.5q0 15 -9 19.5t-24 4.5q-35 0 -60.5 -24.5t-25.5 -62.5q0 -40 28.5 -66.5t74.5 -26.5z
" />
    <glyph glyph-name="k" unicode="k" horiz-adv-x="368" 
d="M133 138q37 -1 66 11t46 25q23 -33 35.5 -74.5t12.5 -79.5q0 -9 3 -14.5t6.5 -7.5t6.5 -2.5t4 -0.5q5 0 14 4t9 21q0 46 -13.5 94.5t-44.5 87.5q10 7 21.5 21.5t21.5 32t16.5 36t6.5 34.5q0 9 -6.5 15.5t-15.5 6.5t-14 -6t-6 -14q-2 -28 -16.5 -52.5t-30.5 -40.5
q-17 20 -40.5 36.5t-52.5 23.5q5 25 9.5 46.5t9.5 39.5q9 44 18 89.5t9 80.5q0 12 -0.5 24.5t-3 22t-8 16t-15.5 6.5q-5 0 -9 -2q-14 -5 -14 -21q0 -2 2 -8q4 -7 4 -38t-8.5 -73t-23.5 -110q-3 -14 -7 -32t-7 -35q-48 0 -73.5 -23.5t-25.5 -57.5q0 -23 16.5 -43.5
t54.5 -32.5q-3 -21 -5 -41t-2 -36q0 -11 0.5 -23.5t3.5 -23t9 -18t17 -7.5q9 0 15.5 6t6.5 16q0 5 -3 10q-1 2 -2.5 10.5t-1.5 29.5q0 14 1 32.5t4 38.5zM73 196q-10 10 -10 24q0 20 14.5 29.5t32.5 10.5q-5 -19 -8.5 -39t-6.5 -38q-14 4 -22 13zM139 177q3 20 6.5 40
t8.5 39q20 -5 39.5 -19t30.5 -30q-14 -14 -36 -22t-47 -8h-2z" />
    <glyph glyph-name="l" unicode="l" horiz-adv-x="156" 
d="M139 619q-14 -5 -14 -21q0 -2 2 -8q4 -7 4 -38t-10 -73t-26 -110q-7 -29 -15.5 -68.5t-16 -81t-12.5 -81.5t-5 -70q0 -11 0.5 -23.5t3.5 -23t9 -18t17 -7.5q9 0 15.5 6t6.5 16q0 5 -3 10q-1 2 -2.5 10.5t-1.5 29.5q0 30 5 70t13 83t17.5 85t17.5 76q11 44 21 89.5
t10 80.5q0 12 -0.5 24.5t-3 22t-8 16t-15.5 6.5q-5 0 -9 -2z" />
    <glyph glyph-name="m" unicode="m" horiz-adv-x="546" 
d="M54 -9q18 0 21 18q12 65 29 118t36 91t39 59t40 21q16 0 25 -12t13 -28t5 -32.5t1 -24.5q0 -29 -4 -60.5t-9 -64.5q-3 -16 -6 -34t-3 -21q0 -9 6 -16t16 -7q7 0 11 2.5t7 10t5.5 22.5t6.5 41q7 44 20 84.5t29.5 72t36.5 50t41 18.5q13 0 21.5 -9t13.5 -24t7 -34t2 -40
q0 -24 -3 -49.5t-7 -49t-8.5 -43t-8.5 -32.5q-1 -2 -1 -6q0 -9 6.5 -16t16.5 -7q15 0 22 16q3 13 8 34.5t9 46.5t7 53t3 55q0 81 -24.5 115t-58.5 35q-80 0 -120 -117q-2 34 -9.5 56t-19 35t-25.5 18.5t-27 5.5q-30 0 -59 -22t-52 -78q6 48 -7.5 77.5t-29.5 29.5
q-10 0 -16.5 -6.5t-6.5 -15.5q0 -8 5 -16q6 -6 9 -14.5t4.5 -17.5t1.5 -17v-12q0 -40 -9 -87t-18 -85q-5 -20 -9 -38t-4 -26q0 -10 5.5 -16.5t15.5 -6.5z" />
    <glyph glyph-name="n" unicode="n" horiz-adv-x="350" 
d="M230 338q-70 0 -111 -94q3 45 -12.5 71t-30.5 26q-9 0 -15.5 -6.5t-6.5 -14.5t5 -16q10 -10 13.5 -23.5t4.5 -36.5q-1 -26 -7 -57.5t-14 -65.5q-2 -6 -5.5 -21t-7 -31t-6.5 -30.5t-3 -18.5q0 -10 5.5 -16.5t15.5 -6.5q18 0 21 17q12 62 29.5 113t37.5 88t41.5 57t41.5 20
t28 -25.5t8 -65.5q0 -24 -2.5 -50t-5.5 -49.5t-7 -43.5t-7 -33q-1 -2 -1 -4q0 -10 6.5 -16.5t16.5 -6.5q2 0 11 2.5t11 17.5q3 13 6.5 33t7.5 45t6.5 52t2.5 53q0 46 -9 73t-21 41.5t-25 18.5t-22 4z" />
    <glyph glyph-name="o" unicode="o" horiz-adv-x="341" 
d="M213 348q-24 0 -42.5 -8.5t-30.5 -22.5t-18.5 -31.5t-6.5 -35.5q0 -35 22 -59.5t66 -24.5q19 0 23 8.5t4 13.5q0 9 -6.5 15.5t-16.5 6.5q-6 0 -14.5 0.5t-15.5 4.5t-12 12t-5 23q0 9 2.5 19t8.5 18t16 13.5t24 5.5q18 0 30 -9t19.5 -23t11 -30.5t3.5 -31.5
q0 -32 -8.5 -64t-23.5 -58t-37 -42t-49 -16q-19 0 -32.5 10.5t-22.5 26.5t-13 36t-4 40q0 16 2 34.5t7 29.5q2 6 2 10q0 8 -6 15t-15 7q-16 0 -21 -16q-14 -38 -14 -81q0 -70 31.5 -112t83.5 -42q38 0 68.5 19.5t52 51t33 71.5t11.5 80q0 60 -28.5 98t-78.5 38z" />
    <glyph glyph-name="p" unicode="p" horiz-adv-x="345" 
d="M219 341q-42 0 -79 -29.5t-64 -82t-42.5 -126t-16.5 -161.5q-21 -5 -36 -15t-25 -21t-15 -22.5t-5 -20.5q0 -8 4.5 -14t13.5 -6q7 0 12.5 3t6.5 8q2 12 14.5 26t29.5 19q0 -46 9 -86t25 -70t39 -47t53 -17q38 0 61 24.5t23 75.5q0 31 -11.5 61.5t-33 54.5t-52 39
t-69.5 15q1 75 15 138.5t35.5 110.5t49.5 73.5t58 26.5q18 0 29.5 -12t18.5 -28.5t9.5 -34t2.5 -29.5q0 -79 -24 -120.5t-59 -41.5q-20 0 -29 11t-14 22q-6 11 -20 11q-9 0 -15.5 -6t-6.5 -16q0 -5 5 -16t15 -21.5t26 -18.5t39 -8q25 0 48.5 13t41 38.5t28 64t10.5 88.5
q0 64 -26.5 105.5t-78.5 41.5zM142 -281q-28 0 -54 47.5t-27 140.5q28 1 50.5 -10.5t38.5 -30t24 -41.5t8 -47q0 -28 -9 -43.5t-31 -15.5z" />
    <glyph glyph-name="q" unicode="q" horiz-adv-x="333" 
d="M263 -305q11 0 17 6t6 15q0 8 -5 15q-5 6 -9 14t-7.5 21t-5.5 33t-2 49q0 45 8.5 92t17.5 91q8 41 16.5 87t8.5 96q0 66 -27 96.5t-72 30.5q-39 0 -70.5 -22t-53.5 -55.5t-34 -73t-12 -74.5q0 -36 7.5 -59.5t20 -38t29.5 -20t35 -5.5t33.5 6.5t26.5 16t17 20.5t6 20
t-5 16.5t-14 6.5q-8 -1 -12.5 -3.5t-7.5 -10.5q-7 -16 -18.5 -23.5t-22.5 -7.5q-51 0 -51 83q0 27 9 59t25 59t38.5 45.5t49.5 18.5q58 0 58 -91q0 -40 -8.5 -84.5t-16.5 -84.5q-9 -45 -17.5 -94.5t-8.5 -102.5q0 -41 5 -69t12.5 -45.5t16.5 -25t17 -7.5z" />
    <glyph glyph-name="r" unicode="r" horiz-adv-x="237" 
d="M88 44q9 48 18 93t25 80.5t40.5 58t63.5 24.5q9 1 15 6t6 14q0 10 -7 16t-17 6q-38 0 -73.5 -23t-52.5 -73q1 19 -3.5 34.5t-11 26.5t-15 17t-15.5 6q-8 0 -14.5 -6.5t-6.5 -15.5q0 -11 6 -16q10 -10 16 -25.5t6 -48.5q0 -8 -2 -26t-5 -40t-7 -45.5t-7 -43.5t-5 -33.5
t-2 -15.5q0 -9 5.5 -15.5t14.5 -6.5q19 0 22 19z" />
    <glyph glyph-name="s" unicode="s" horiz-adv-x="285" 
d="M90 141q-29 0 -49 -20t-20 -52q0 -19 9 -34t24 -26t35 -17t41 -6q57 0 88.5 30.5t31.5 77.5q0 38 -22.5 62.5t-59.5 46.5q-30 18 -39.5 29.5t-9.5 25.5q0 20 13 33t37 13q20 0 30.5 -12t12.5 -20q2 -6 7.5 -9.5t10.5 -3.5q10 0 16.5 6.5t6.5 16.5q0 6 -4.5 16.5t-14.5 20
t-26 16.5t-38 7q-23 0 -41 -7.5t-30 -19.5t-18 -27t-6 -30q0 -19 7 -33.5t17.5 -26t23.5 -20t25 -14.5q34 -18 45.5 -38t11.5 -38q0 -34 -23.5 -50t-50.5 -16t-46 15t-19 33q0 11 5 20t19 9q5 0 8 -1t8 -2t12.5 2.5t7.5 16.5q0 15 -11 20.5t-25 5.5z" />
    <glyph glyph-name="t" unicode="t" horiz-adv-x="210" 
d="M168 13q0 8 -6 14.5t-14 6.5q-4 1 -10.5 3.5t-13 11t-11 25t-4.5 46.5q0 38 6.5 84t20.5 94q14 -1 36 -2t36 -1q19 0 19 20q0 8 -7 13.5t-15 7.5q-20 1 -35 1.5t-26 0.5q2 8 5 21.5t7 28t8 29.5t8 26q2 4 2 11q0 9 -6.5 14.5t-16.5 5.5q-15 -2 -20 -16q-8 -30 -16.5 -62
t-14.5 -57q-14 0 -27.5 -1t-25 -4t-18.5 -9t-7 -16q0 -8 4.5 -12.5t9.5 -4.5q11 0 21.5 2.5t32.5 2.5q-14 -57 -19.5 -100.5t-5.5 -79.5q0 -114 74 -126q1 0 3.5 -0.5t3.5 -0.5q9 1 15.5 7.5t6.5 15.5z" />
    <glyph glyph-name="u" unicode="u" horiz-adv-x="336" 
d="M104 307q0 9 -6.5 16t-16.5 7q-14 0 -17.5 -9t-5.5 -16q-3 -14 -6.5 -34t-7 -43.5t-6 -49.5t-2.5 -51q0 -43 8.5 -69.5t21 -41.5t27.5 -20.5t29 -5.5q33 0 63 26.5t50 73.5q0 -21 4 -39t10.5 -31t14.5 -20.5t16 -7.5q9 0 15.5 6.5t6.5 15.5t-5 15q-20 21 -20 69
q0 26 5 60t12 75q5 26 9 50t5 32q2 9 -3 17t-13 8q-23 0 -26 -19q-8 -59 -22.5 -111.5t-33.5 -91.5t-41.5 -62t-46.5 -23q-12 0 -20.5 8t-13 21.5t-6.5 30.5t-2 34q0 47 8 94.5t16 80.5v5z" />
    <glyph glyph-name="v" unicode="v" horiz-adv-x="302" 
d="M100 299q2 8 -5.5 14.5t-17.5 6.5q-7 0 -13 -4.5t-8 -12.5q-2 -12 -4.5 -30.5t-4.5 -40t-3.5 -44t-1.5 -40.5q0 -26 2.5 -53.5t10 -50t20.5 -36.5t33 -14q18 0 38 14.5t40 39.5t38.5 58t33 69t25 73.5t14.5 71.5v2q0 8 -6 14.5t-14 7.5q-9 2 -16 -4t-9 -16
q-6 -54 -24.5 -106t-41 -92.5t-44 -65t-32.5 -24.5q-8 0 -15.5 27.5t-7.5 84.5q0 19 1 40.5t3 41t3.5 35.5t3.5 24z" />
    <glyph glyph-name="w" unicode="w" horiz-adv-x="506" 
d="M451 340q-6 -2 -10 -8t-4 -12q0 -3 2 -9q6 -11 6 -30q0 -35 -10.5 -77t-28 -78.5t-39 -61t-42.5 -24.5q-12 0 -19.5 8t-12.5 20.5t-7 28.5t-2 33q0 29 4 69t8 77q2 14 2.5 23.5t0.5 10.5q0 10 -6.5 16.5t-16.5 6.5q-8 0 -13 -6t-6 -15q-4 -57 -17.5 -106.5t-32 -87
t-40.5 -59t-43 -21.5q-19 0 -29 24.5t-10 67.5q0 45 7 92t15 78q1 2 1 5q0 10 -6.5 16.5t-15.5 6.5q-17 0 -22 -18q-4 -16 -8.5 -37t-8 -45t-5.5 -49t-2 -49q0 -23 4 -46.5t13 -43t24.5 -32t39.5 -12.5q38 0 70.5 31.5t51.5 82.5q0 -31 7 -52.5t18.5 -35t26 -19.5t28.5 -6
q25 0 47 14.5t40 38.5t33 54t25 62t15.5 62t5.5 53q0 4 -0.5 14.5t-3 21t-8.5 18.5t-17 8q-5 0 -9 -3z" />
    <glyph glyph-name="x" unicode="x" horiz-adv-x="320" 
d="M-2 32q-9 0 -15.5 -6.5t-6.5 -15.5q0 -5 4.5 -14t20.5 -9q33 0 71 44.5t92 119.5q38 -73 67.5 -116t62.5 -47q10 -2 17.5 4.5t7.5 17.5q0 9 -6 15t-14 7q-9 1 -22.5 17t-28.5 39t-29.5 50t-26.5 50q12 17 25.5 35t26.5 32t23.5 23.5t16.5 10.5q8 1 14.5 7.5t6.5 14.5
q0 10 -7 16.5t-15 6.5q-25 0 -53 -30t-60 -75q-8 15 -19 34.5t-23.5 37t-26 29.5t-26.5 12q-9 0 -16 -6.5t-7 -15.5q0 -16 17 -21q6 -2 15 -12.5t19 -25.5t20.5 -33t19.5 -36q-18 -26 -39 -54t-41 -51.5t-36.5 -39t-25.5 -15.5h-3z" />
    <glyph glyph-name="y" unicode="y" horiz-adv-x="331" 
d="M108 315q0 10 -6.5 16.5t-15.5 6.5q-14 0 -18 -9t-6 -14q-3 -14 -6.5 -34.5t-7 -44.5t-6 -50.5t-2.5 -52.5t4 -51t14 -44t26 -30.5t39 -11.5q18 0 37 10t35.5 27.5t31 41t23.5 49.5q-2 -23 -6 -49t-9 -51.5t-10.5 -49t-11.5 -42.5q-27 9 -64 9q-39 0 -80.5 -12
t-75.5 -33.5t-56 -52.5t-22 -70q0 -46 28 -65.5t65 -19.5q33 0 67.5 13t65 37t56 58.5t42.5 76.5q7 -3 19 -14.5t12 -32.5q0 -9 6 -15.5t15 -6.5t15.5 6.5t6.5 15.5q0 29 -16.5 52.5t-41.5 37.5q20 65 27 121.5t9 88.5q1 18 3 43.5t3.5 52.5t2.5 52t1 42q0 9 -5.5 15.5
t-14.5 6.5t-16 -6t-7 -15q0 -45 -12.5 -94t-32 -89.5t-43.5 -67t-47 -26.5q-13 0 -20.5 10.5t-11.5 25t-5 30.5t-1 27q0 24 2.5 49t5.5 48t7 44t7 37zM14 -271q-20 0 -37 11.5t-17 35.5q0 27 18 49.5t45.5 39t61 26t64.5 9.5q13 0 27 -1.5t25 -4.5q-15 -38 -36 -68t-46 -52
t-52 -33.5t-53 -11.5z" />
    <glyph glyph-name="z" unicode="z" horiz-adv-x="336" 
d="M245 332q-8 -5 -30 -5q-6 0 -21.5 2t-32.5 4t-32 4t-21 2q-20 0 -33 -5.5t-20.5 -13t-11 -14.5t-3.5 -11q0 -9 7 -15.5t16 -6.5q14 0 20 13q2 5 6.5 8t18.5 3q6 0 20.5 -1.5t32 -3.5t33 -3.5t23.5 -1.5q-17 -20 -39 -46t-37 -47q-25 -35 -53 -71.5t-73 -83.5
q-5 -7 -5 -16q0 -8 6.5 -14.5t15.5 -6.5q7 0 8 1q19 6 36.5 8.5t34.5 2.5q21 0 40.5 -3t38.5 -7q15 -2 29 -4.5t28 -2.5q33 0 54.5 17t21.5 49q0 8 -4.5 19.5t-20.5 7.5q-19 -2 -19 -22q0 -14 -4.5 -22t-27.5 -8q-11 0 -23.5 2t-26.5 5q-12 2 -27 4t-31.5 3t-33 0.5
t-30.5 -3.5q8 8 21.5 22.5t28 32t28.5 35t23 30.5q22 31 46.5 63t59.5 70q5 8 5 16q0 1 -0.5 4.5t-3 7.5t-7.5 7t-14 3t-14 -5z" />
    <glyph glyph-name="braceleft" unicode="{" horiz-adv-x="370" 
d="M340 -132q-8 -2 -16.5 -3t-17.5 -1q-17 0 -35.5 3.5t-34.5 13.5t-26 28.5t-10 47.5q0 17 5 40t13 47q8 27 14 54t6 67q0 35 -8 62t-24 50q13 23 18.5 48.5t5.5 45.5q0 33 -3.5 54t-8.5 43q-2 11 -6 29t-4 47q0 39 28 63t73 24q24 0 41 -10q6 -3 11 -3q9 0 15.5 6.5
t6.5 16.5q0 11 -11 17q-26 16 -63 16q-27 0 -53.5 -8t-46.5 -24t-32.5 -40.5t-12.5 -57.5q0 -29 3 -47.5t7 -38.5q5 -20 8 -40.5t3 -46.5q0 -11 -2.5 -26.5t-8.5 -30.5q-30 24 -74 24q-47 0 -73.5 -22.5t-26.5 -48.5q0 -11 4 -23t14.5 -22t29.5 -17t49 -7q17 0 38.5 7
t43.5 29q8 -16 11 -31t3 -38q0 -35 -5 -57.5t-13 -48.5q-7 -25 -13.5 -51t-6.5 -51q0 -38 13 -63.5t34.5 -42t48.5 -23.5t55 -7h16t20.5 2.5t18 7.5t7.5 16q0 9 -6.5 15t-15.5 6h-6zM97 242q-5 0 -13.5 0.5t-17.5 2.5t-15.5 7.5t-6.5 14.5q0 8 13.5 18t42.5 10q16 0 32 -5.5
t27 -16.5q-11 -13 -27.5 -22t-34.5 -9z" />
    <glyph glyph-name="bar" unicode="|" horiz-adv-x="222" 
d="M88 -250h46v1000h-46v-1000z" />
    <glyph glyph-name="braceright" unicode="}" horiz-adv-x="370" 
d="M260 297q26 0 36 -11.5t10 -20.5q0 -11 -12.5 -19t-32.5 -8q-17 0 -32.5 8t-27.5 25q24 26 59 26zM150 540q0 -17 -2 -36t-7 -36q-5 -18 -9 -47t-4 -53q0 -20 5 -46t20 -49q-18 -26 -25.5 -52.5t-7.5 -58.5q0 -20 1.5 -34t3.5 -25t5 -21.5t6 -22.5q3 -11 6 -21t5 -21.5
t3.5 -25t1.5 -32.5q0 -28 -8.5 -46.5t-22.5 -29.5t-31 -15.5t-33 -4.5q-10 0 -19 2t-18 5q-2 1 -8 1q-9 0 -15.5 -6.5t-6.5 -15.5q0 -11 10 -17t22 -8.5t22 -2.5h13q25 0 50.5 7t45 23.5t32 43.5t12.5 66q0 21 -1.5 36t-4 27.5t-5.5 23.5t-6 23q-4 17 -10 36.5t-6 54.5
q0 22 3 37t12 32q22 -23 43.5 -29.5t38.5 -6.5q46 0 67.5 22t21.5 48q0 13 -5.5 26t-16.5 23.5t-28 17.5t-40 7q-45 0 -77 -27q-6 17 -8 30.5t-2 25.5q0 18 1 30.5t2.5 22.5t3.5 19t4 19q4 20 7.5 37t3.5 36q0 73 -38 108t-100 35q-28 0 -53 -7q-8 -2 -12.5 -7.5t-4.5 -13.5
q0 -10 6.5 -15t15.5 -5q1 0 2 0.5t3 0.5q11 3 22 4t21 1q41 0 67 -24t26 -69z" />
    <glyph glyph-name="asciitilde" unicode="~" 
d="M61 190q11 19 28.5 36.5t40.5 17.5q22 0 41 -8.5t40 -19.5q20 -9 42 -17.5t50 -8.5q36 -2 58.5 19t40.5 51l-30 29q-12 -20 -29 -37.5t-40 -17.5q-20 0 -39.5 9t-40.5 19q-20 10 -42.5 18.5t-50.5 8.5q-36 0 -59 -20.5t-40 -50.5z" />
    <glyph glyph-name="quotesinglbase" unicode="&#x201a;" horiz-adv-x="80" 
d="M56 60q-9 0 -15.5 -6.5t-6.5 -15.5q0 -63 -12 -79q-4 -5 -4 -12q0 -10 6.5 -16.5t16.5 -6.5q14 0 21.5 15t11 34.5t4 38t0.5 26.5q0 9 -6.5 15.5t-15.5 6.5z" />
    <glyph glyph-name="florin" unicode="&#x192;" horiz-adv-x="390" 
d="M401 501q0 45 -29 72t-75 27q-38 0 -70.5 -17t-55 -52t-32.5 -89.5t-4 -129.5q-14 -1 -26.5 -1.5t-23.5 -0.5q-4 0 -17.5 1t-17.5 1q-9 0 -15.5 -5.5t-6.5 -15.5q0 -18 16 -20t41 -2q12 0 24.5 0.5t26.5 1.5q2 -28 3.5 -47.5t2 -35t1 -29t0.5 -28.5q0 -66 -9.5 -123
t-37.5 -89q-28 -33 -72 -33q-24 0 -41.5 15t-17.5 35q0 14 6.5 22.5t11.5 8.5q12 0 18 7t6 15q0 7 -6 14.5t-18 7.5q-13 0 -24.5 -6t-20 -16.5t-13.5 -24t-5 -28.5q0 -19 8 -35.5t22 -29t32.5 -19.5t40.5 -7q42 0 73.5 19.5t51.5 56t30 88.5t10 117q0 19 -0.5 35t-1.5 32.5
t-2.5 35.5t-2.5 45q20 1 39 2t38 1q39 0 63 -6q2 -1 6 -1q9 0 16 5.5t7 14.5q0 16 -17 19q-30 9 -76 9q-18 0 -38 -1t-40 -3q-7 120 21.5 182.5t94.5 62.5q31 0 46 -19.5t15 -38.5q0 -17 -9.5 -27t-22.5 -10q-6 0 -15 6q-7 5 -15 5q-10 0 -16 -6t-6 -15q0 -16 16 -24t36 -8
q32 0 54.5 24t22.5 55z" />
    <glyph glyph-name="quotedblbase" unicode="&#x201e;" horiz-adv-x="165" 
d="M143 61q-10 0 -16.5 -6.5t-6.5 -15.5q0 -60 -11 -79q-4 -8 -4 -12q0 -9 7 -15.5t15 -6.5q14 0 22 15t11.5 34t4 37.5t0.5 26.5q0 9 -6.5 15.5t-15.5 6.5zM21 -43q-2 -3 -2.5 -6.5t-0.5 -5.5q0 -10 6 -16.5t16 -6.5q14 0 21.5 15t11 34.5t4 38t0.5 26.5q0 9 -6.5 15.5
t-16.5 6.5q-8 0 -14.5 -6.5t-6.5 -15.5q0 -32 -3.5 -51.5t-8.5 -27.5z" />
    <glyph glyph-name="ellipsis" unicode="&#x2026;" horiz-adv-x="800" 
d="M108 11q-2 -11 5 -18t19 -7q22 0 25 18l5 34q1 9 -4.5 16t-16.5 9t-19 -3.5t-10 -14.5zM373 11q-2 -11 5 -18t19 -7q22 0 25 18l5 34q1 9 -4.5 16t-16.5 9t-19 -3.5t-10 -14.5zM638 11q-2 -11 5 -18t19 -7q22 0 25 18l5 34q1 9 -4.5 16t-16.5 9t-19 -3.5t-10 -14.5z" />
    <glyph glyph-name="dagger" unicode="&#x2020;" horiz-adv-x="340" 
d="M136 -124q9 0 15.5 6t6.5 16q0 5 -3 10q-1 2 -2.5 10.5t-1.5 29.5q0 30 5 71t13 88.5t16.5 99.5t16.5 105l3 15h6q60 -2 95.5 2.5t35.5 24.5q0 8 -6.5 15t-15.5 7q-3 0 -7 -2q-5 -2 -17.5 -2.5t-27 -1.5t-30.5 -1h-26q10 60 16.5 98t6.5 65q0 12 -0.5 24.5t-3 22t-8 16
t-15.5 6.5q-5 0 -9 -2q-14 -5 -14 -21q0 -2 2 -8q4 -7 4 -38q0 -12 -1.5 -25.5t-4.5 -32.5t-7.5 -44t-10.5 -60h-38q-46 0 -65.5 -3t-19.5 -23q0 -10 7.5 -16.5t18.5 -2.5q6 2 18 2h41h31l-5 -28q-7 -48 -15.5 -97.5t-16 -96t-12.5 -87t-5 -70.5q0 -11 0.5 -23.5t3.5 -23
t9 -18t17 -7.5z" />
    <glyph glyph-name="daggerdbl" unicode="&#x2021;" horiz-adv-x="340" 
d="M136 -124q9 0 15.5 6t6.5 16q0 5 -3 10q-1 2 -2.5 10.5t-1.5 29.5q0 35 7 86.5t17 112.5h36q18 -1 36.5 -0.5t32.5 3t23 8.5t9 16q0 8 -6.5 15t-15.5 7q-3 0 -7 -2q-11 -3 -30.5 -4t-41.5 -1h-29q5 29 10 60t10 63l5 25h6q58 -2 93.5 2.5t35.5 24.5q0 8 -6.5 15t-15.5 7
q-3 0 -7 -2q-5 -2 -17.5 -2.5t-27 -1.5t-29.5 -1h-25q8 52 14.5 89t6.5 64q0 12 -0.5 24.5t-3 22t-8 16t-15.5 6.5q-5 0 -9 -2q-14 -5 -14 -21q0 -2 2 -8q4 -7 4 -38q0 -23 -6 -56.5t-16 -95.5h-40q-46 0 -65.5 -3t-19.5 -23q0 -10 7.5 -16.5t18.5 -2.5q6 2 18 2h41h33
l-6 -38q-5 -27 -9 -54.5t-9 -54.5h-54q-31 0 -48 -3t-17 -23q0 -10 7.5 -16.5t18.5 -2.5q6 2 16 2h23h47q-11 -60 -18 -111.5t-7 -87.5q0 -11 0.5 -23.5t3.5 -23t9 -18t17 -7.5z" />
    <glyph glyph-name="circumflex" unicode="&#x2c6;" horiz-adv-x="290" 
d="M152 513q-4 0 -16.5 -8t-27.5 -18.5l-30 -21t-23 -15.5q-10 -7 -10 -18q0 -5 5.5 -11t14.5 -6t15 3q17 11 32.5 24.5t35.5 27.5q6 -6 16.5 -17t21.5 -21.5t21 -18t16 -7.5q10 0 16.5 5.5t6.5 11.5q0 13 -11 19q-22 14 -35.5 30t-34.5 37q-4 4 -13 4z" />
    <glyph glyph-name="perthousand" unicode="&#x2030;" horiz-adv-x="1102" 
d="M159 252q37 0 66.5 18t50.5 46.5t33 64.5t14 71q51 12 91.5 33t82.5 50q-57 -100 -99.5 -195t-71 -172.5t-43 -131.5t-14.5 -70q0 -9 5 -16t15 -7q8 0 14 5.5t8 13.5q10 61 37 142.5t64.5 169t81.5 174t87 158.5q3 6 3 11q0 9 -6.5 15.5t-15.5 6.5q-10 0 -16 -6
q-55 -54 -109.5 -90t-113.5 -50q-8 47 -36.5 77t-69.5 30q-49 0 -73.5 -25t-24.5 -55q0 -17 9 -31.5t24 -25t35 -16t43 -5.5q25 0 49 3q-2 -26 -11 -53t-24 -49t-36 -36t-46 -14q-20 0 -34 9t-23 23.5t-13.5 33t-4.5 37.5q0 38 16 76q2 2 2 9q0 9 -6.5 15.5t-15.5 6.5
q-14 0 -20 -13q-19 -45 -19 -94q0 -69 31.5 -106.5t83.5 -37.5zM533 241q0 -29 11 -46.5t24.5 -26.5t25 -11.5t12.5 -2.5q9 0 15.5 6.5t6.5 14.5q0 17 -16 22q-19 5 -27.5 15t-8.5 29t14 38t40 19q18 0 30.5 -9t19.5 -23t10 -31t3 -32q0 -32 -8 -62.5t-23.5 -54.5
t-37.5 -38.5t-49 -14.5q-19 0 -33 9t-23.5 23t-14 32.5t-4.5 38.5q0 37 15 73q2 6 2 8q0 10 -6.5 16.5t-15.5 6.5q-14 0 -20 -14q-9 -20 -14 -43.5t-4 -46.5q0 -65 31.5 -104.5t82.5 -39.5q39 0 69.5 18t52 47.5t33 67.5t11.5 78q0 60 -28.5 98.5t-78.5 38.5
q-23 0 -40.5 -8.5t-30.5 -23t-19.5 -32t-6.5 -35.5zM278 486q-24 -3 -48 -3q-28 0 -47.5 12.5t-19.5 26.5q0 17 14 27.5t40 10.5t41.5 -22.5t19.5 -51.5zM863 241q0 -29 11 -46.5t24.5 -26.5t25 -11.5t12.5 -2.5q9 0 15.5 6.5t6.5 14.5q0 17 -16 22q-19 5 -27.5 15t-8.5 29
t14 38t40 19q18 0 30.5 -9t19.5 -23t10 -31t3 -32q0 -32 -8 -62.5t-23.5 -54.5t-37.5 -38.5t-49 -14.5q-19 0 -33 9t-23.5 23t-14 32.5t-4.5 38.5q0 37 15 73q2 6 2 8q0 10 -6.5 16.5t-15.5 6.5q-14 0 -20 -14q-9 -20 -14 -43.5t-4 -46.5q0 -65 31.5 -104.5t82.5 -39.5
q39 0 69.5 18t52 47.5t33 67.5t11.5 78q0 60 -28.5 98.5t-78.5 38.5q-23 0 -40.5 -8.5t-30.5 -23t-19.5 -32t-6.5 -35.5z" />
    <glyph glyph-name="Scaron" unicode="&#x160;" horiz-adv-x="579" 
d="M331 378q-35 12 -62 23.5t-46.5 25t-29.5 30.5t-10 40q0 20 9.5 39.5t29 35.5t48 25.5t67.5 9.5q8 0 18 -1t18 -3q-9 -14 -14 -32t-5 -35q0 -41 24.5 -66t57.5 -25q30 0 48.5 22t18.5 49q0 18 -6.5 40.5t-30.5 45.5q-4 4 -9 7.5t-10 7.5q28 18 62 18q10 0 17 5t7 13
q0 10 -6.5 16t-16.5 6q-32 0 -59 -10t-48 -27q-14 4 -30.5 6.5t-34.5 2.5q-50 0 -87 -13t-62.5 -34t-38 -48t-12.5 -55q0 -36 15.5 -61t40.5 -43t57 -30.5t66 -24.5q41 -14 75 -28.5t58 -34t37.5 -45t13.5 -61.5q0 -35 -18.5 -65t-52.5 -47q-1 46 -19 85.5t-48.5 68.5
t-72 45t-90.5 16q-35 0 -65.5 -10.5t-53 -28.5t-35.5 -42.5t-13 -52.5q0 -36 18.5 -65t51 -49.5t75 -31.5t90.5 -11q61 0 108 11q-12 -33 -33 -56t-44 -33q-14 -6 -14 -21q0 -9 6.5 -14.5t16.5 -5.5q7 0 23 8.5t34 26.5t34.5 45.5t25.5 65.5q60 25 90 67.5t30 93.5
q0 50 -20 84t-51 57.5t-69 39t-74 28.5zM459 516q0 -12 -6 -21t-17 -9q-15 0 -26.5 14.5t-11.5 35.5q0 31 16 55q16 -10 25 -20.5t13.5 -20.5t5.5 -19t1 -15zM200 230q46 0 82 -15t60 -41.5t35.5 -61.5t9.5 -75q-26 -8 -56 -12t-63 -4q-40 0 -75 9t-60.5 24.5t-40.5 36.5
t-15 46q0 20 10 37t27 29.5t39 19.5t47 7zM409 792q-24 -17 -40 -30t-32 -27q-22 11 -42.5 23.5t-36.5 23.5q-5 4 -13 4q-9 0 -15.5 -6t-6.5 -11q0 -12 10 -18q8 -6 24 -16t33 -19t31.5 -16t18.5 -7q6 0 9.5 2t8.5 6q16 14 34.5 29t40.5 29q10 4 10 19q0 8 -6.5 12t-15.5 4
t-12 -2z" />
    <glyph glyph-name="guilsinglleft" unicode="&#x2039;" horiz-adv-x="204" 
d="M126 175q-11 7 -23.5 15.5t-23.5 17.5q4 4 14.5 15.5t21.5 24.5t21 24t14 15q6 7 6 15q0 9 -6.5 15.5t-16.5 6.5q-4 0 -7.5 -1.5t-8.5 -6t-13 -14t-21 -25.5q-14 -16 -26 -30t-23 -21q-9 -9 -9 -18q0 -11 7 -16q15 -15 33.5 -29t34.5 -25q9 -6 17.5 -12.5t12.5 -9.5
q7 -7 16 -7t15 7t6 15q0 11 -9 19t-32 25z" />
    <glyph glyph-name="OE" unicode="&#x152;" horiz-adv-x="1094" 
d="M910 -10q72 0 109 28t37 70q0 39 -27 68q-11 12 -35.5 23t-64.5 11q-52 0 -107.5 -24t-92.5 -72q-53 47 -53 120q0 28 8 49.5t19 36.5t21.5 24t16.5 13q29 -35 70 -52t86 -17q42 0 68 19.5t26 51.5q0 13 -5.5 27.5t-19.5 26t-37 19t-57 7.5q-29 0 -58.5 -6.5t-56.5 -17.5
q-4 11 -6.5 23.5t-2.5 24.5q39 14 71 32t55 38.5t36 42.5t13 44q0 26 -17 43t-46 17q-30 0 -57 -16.5t-47.5 -43.5t-34 -61t-17.5 -68q-31 -9 -64 -15t-71 -8q-31 93 -97.5 139t-148.5 46q-33 0 -59 -8t-43.5 -20.5t-26.5 -29t-9 -33.5q0 -34 28 -62q18 -18 49 -32.5t73 -24
t93 -14.5t108 -3q5 -20 7 -42.5t2 -46.5q0 -63 -16.5 -116t-47 -91t-73 -59t-94.5 -21q-44 0 -85.5 17t-73 51t-50.5 84t-19 116q0 55 16.5 106t45.5 80q6 7 6 16t-6.5 15.5t-15.5 6.5t-16 -7q-35 -36 -55 -95t-20 -122q0 -76 23 -133.5t61 -96.5t87 -59t102 -20
q61 0 112 24t87.5 67.5t56.5 104t20 132.5q0 50 -10 91q61 3 125 20q3 -27 14 -54q-38 -26 -62.5 -66t-24.5 -94q0 -49 17.5 -87t51.5 -68q-17 -27 -26 -55t-9 -55q0 -10 3 -22.5t20 -12.5q9 0 15.5 6.5t6.5 14.5q0 13 0.5 25t3 23.5t7.5 24t15 27.5q24 -15 49 -24t48 -13.5
t42.5 -6t33.5 -1.5zM912 31q-51 0 -84.5 10.5t-65.5 27.5q30 38 75 59t92 21q42 0 62.5 -18t20.5 -42q0 -29 -27 -43.5t-73 -14.5zM779 357q17 10 43.5 15.5t49.5 5.5q31 0 53 -8.5t22 -30.5q0 -13 -13.5 -21.5t-36.5 -8.5q-5 0 -18 0.5t-30 5t-35.5 14.5t-34.5 28zM751 486
q5 27 16.5 51t26 42t32 28t34.5 10q8 0 13 -6t5 -11q0 -28 -35 -59.5t-92 -54.5zM524 447q-69 -1 -124 6.5t-92.5 21t-57.5 31t-20 35.5q0 14 8.5 23.5t22 15.5t30 9t31.5 3q25 0 53.5 -7t56 -24t51.5 -44.5t41 -69.5z" />
    <glyph glyph-name="quoteleft" unicode="&#x2018;" horiz-adv-x="80" 
d="M39 602q-7 -8 -13 -21.5t-11 -28.5t-8 -29t-3 -23t6.5 -16t14.5 -7t14.5 5.5t8.5 13.5q9 61 23 76q6 5 6 15q0 9 -6 15.5t-16 6.5q-4 0 -8.5 -1t-7.5 -6z" />
    <glyph glyph-name="quoteright" unicode="&#x2019;" horiz-adv-x="80" 
d="M56 612q-9 0 -15.5 -6.5t-6.5 -15.5q0 -63 -12 -79q-4 -5 -4 -12q0 -10 6.5 -16.5t16.5 -6.5q14 0 21.5 15t11 34.5t4 38t0.5 26.5q0 9 -6.5 15.5t-15.5 6.5z" />
    <glyph glyph-name="quotedblleft" unicode="&#x201c;" horiz-adv-x="165" 
d="M124 602q-7 -8 -13 -21.5t-11 -28.5t-8 -29t-3 -23t6.5 -16t15.5 -7q19 0 22 19q5 30 10.5 49t13.5 27q5 5 5 15q0 9 -6 15.5t-15 6.5q-5 0 -9.5 -1t-7.5 -6zM40 602q-7 -8 -13.5 -21.5t-11.5 -28.5t-8 -29t-3 -23t6.5 -16t16.5 -7q8 0 14 5.5t8 13.5q9 61 23 76
q7 7 7 15q0 9 -7 15.5t-16 6.5q-10 0 -16 -7z" />
    <glyph glyph-name="quotedblright" unicode="&#x201d;" horiz-adv-x="165" 
d="M143 613q-10 0 -16.5 -6.5t-6.5 -15.5q0 -60 -11 -79q-4 -8 -4 -12q0 -9 7 -15.5t15 -6.5q14 0 22 15t11.5 34t4 37.5t0.5 26.5q0 9 -6.5 15.5t-15.5 6.5zM21 509q-2 -3 -2.5 -6.5t-0.5 -5.5q0 -10 6 -16.5t16 -6.5q14 0 21.5 15t11 34.5t4 38t0.5 26.5q0 9 -6.5 15.5
t-16.5 6.5q-8 0 -14.5 -6.5t-6.5 -15.5q0 -32 -3.5 -51.5t-8.5 -27.5z" />
    <glyph glyph-name="bullet" unicode="&#x2022;" horiz-adv-x="208" 
d="M79 256q21 0 32.5 11t11.5 25q0 9 -5.5 16t-16.5 7q-6 0 -11.5 -3.5t-8.5 -8.5l-2 -3q-2 -2 -5 0.5t-3 5.5q0 11 9.5 18.5t22.5 7.5q15 0 26 -10t11 -33q0 -22 -16.5 -36t-37.5 -14q-15 0 -20 -5.5t-5 -13.5q0 -6 4.5 -13t20.5 -7q20 0 37.5 7t30.5 19t20.5 28t7.5 34
q0 41 -21.5 63.5t-60.5 22.5q-29 0 -50 -19.5t-21 -49.5q0 -19 14 -34t36 -15z" />
    <glyph glyph-name="endash" unicode="&#x2013;" horiz-adv-x="450" 
d="M425 255q-7 15 -22 15q-4 0 -7 -1q-14 -5 -39 -6.5t-69 -1.5q-12 0 -34 0.5t-46 0.5t-45.5 0.5t-32.5 0.5q-30 0 -53.5 -1t-37.5 -4q-8 -2 -12.5 -8t-4.5 -14q0 -9 6.5 -15.5t14.5 -6.5q4 0 5 1q11 2 33 2.5t49 0.5q13 0 35 -0.5t46 -0.5t45.5 -0.5t32.5 -0.5q53 0 83 3
t40 8q14 7 14 21q0 5 -1 7z" />
    <glyph glyph-name="emdash" unicode="&#x2014;" horiz-adv-x="800" 
d="M753 273q-112 -8 -183 -10.5t-103 -2.5h-35t-54.5 0.5t-64.5 0.5q-33 0 -63 0.5t-54 0.5h-34q-44 0 -74.5 -1t-44.5 -3q-19 -3 -19 -22q0 -9 6.5 -15.5t15.5 -6.5h3q12 2 41 2h71h311q71 0 141.5 2t145.5 11q19 3 19 22q0 9 -6.5 15.5t-15.5 6.5h-3z" />
    <glyph glyph-name="tilde" unicode="&#x2dc;" horiz-adv-x="326" 
d="M214 416q13 0 23.5 6.5t17.5 15t10.5 17t3.5 13.5q0 6 -1.5 11.5t-5.5 7.5q-5 4 -12 4q-13 0 -18 -13q-3 -8 -8.5 -16.5t-14.5 -8.5q-16 0 -34 17q-14 13 -27.5 17.5t-26.5 4.5q-14 0 -25.5 -7t-20 -16.5t-13.5 -20t-5 -16.5q0 -9 5.5 -15.5t14.5 -6.5q13 0 16 10
q5 14 11.5 24.5t17.5 10.5q16 0 36 -19q11 -11 26.5 -15.5t29.5 -4.5z" />
    <glyph glyph-name="trademark" unicode="&#x2122;" horiz-adv-x="620" 
d="M139 632q-38 0 -71.5 -5t-49.5 -19q-19 -16 -19 -37t20 -21q14 0 18 16q1 5 8.5 12t14.5 9q9 2 21 3t27 2q-3 -11 -8 -26.5t-9.5 -34t-8 -37.5t-3.5 -35q0 -36 16 -61.5t50 -30.5q1 0 3.5 -0.5l2.5 -0.5q8 1 14 7t6 14t-5 13.5t-13 5.5q-3 0 -9 2t-12 7.5t-10 16.5t-4 30
q0 17 4 37.5t9 39t10 33.5t8 21q14 1 45.5 0.5t71.5 -1.5q9 -6 9.5 -21t0.5 -21q0 -21 -6 -49.5t-12 -55.5q-4 -18 -8.5 -34t-4.5 -23q0 -9 5 -15t14 -6q16 0 19 16q10 55 24 94.5t29 65t30 38t27 12.5q18 0 23.5 -18.5t5.5 -38.5q0 -19 -3 -44.5t-8 -48.5q-3 -14 -6 -30.5
t-3 -20.5q0 -7 5.5 -13t14.5 -6q6 0 10.5 3t6.5 12q2 8 5 19t5 25q13 79 40.5 120t55.5 41q13 0 20 -17t7 -37q0 -23 -2.5 -44t-6 -39.5t-7 -33t-4.5 -22.5q-1 -5 -3.5 -10.5t-2.5 -10.5t5.5 -9.5t14.5 -4.5q11 0 15.5 4t6.5 10q6 25 15 68.5t9 93.5q0 29 -7 47t-17 28.5
t-20.5 14.5t-17.5 4q-29 0 -53.5 -23t-38.5 -53q-2 39 -20 56.5t-39 17.5q-17 0 -41.5 -17t-43.5 -53q2 31 -8.5 48t-33.5 18q-95 3 -133 3z" />
    <glyph glyph-name="scaron" unicode="&#x161;" horiz-adv-x="285" 
d="M90 141q-29 0 -49 -20t-20 -52q0 -19 9 -34t24 -26t35 -17t41 -6q57 0 88.5 30.5t31.5 77.5q0 38 -22.5 62.5t-59.5 46.5q-30 18 -39.5 29.5t-9.5 25.5q0 20 13 33t37 13q20 0 30.5 -12t12.5 -20q2 -6 7.5 -9.5t10.5 -3.5q10 0 16.5 6.5t6.5 16.5q0 6 -4.5 16.5t-14.5 20
t-26 16.5t-38 7q-23 0 -41 -7.5t-30 -19.5t-18 -27t-6 -30q0 -19 7 -33.5t17.5 -26t23.5 -20t25 -14.5q34 -18 45.5 -38t11.5 -38q0 -34 -23.5 -50t-50.5 -16t-46 15t-19 33q0 11 5 20t19 9q5 0 8 -1t8 -2t12.5 2.5t7.5 16.5q0 15 -11 20.5t-25 5.5zM168 388q4 0 16.5 8
t27.5 18.5l30 21t23 15.5q10 7 10 18q0 5 -5.5 11t-14.5 6t-15 -3q-17 -11 -32.5 -24.5t-35.5 -27.5q-6 6 -16.5 17t-21.5 21.5t-21 18t-16 7.5q-10 0 -16.5 -5.5t-6.5 -11.5q0 -13 11 -19q22 -14 35.5 -30t34.5 -37q4 -4 13 -4z" />
    <glyph glyph-name="guilsinglright" unicode="&#x203a;" horiz-adv-x="204" 
d="M124 222q-23 -18 -41.5 -35.5t-29.5 -29.5q-11 -13 -13.5 -16t-2.5 -11q0 -9 6.5 -15.5t15.5 -6.5q8 0 12.5 4t14.5 15q12 14 32.5 34.5t49.5 40.5q10 7 10 18q0 5 -2 8t-4 7q-5 5 -17 16.5t-25.5 24t-26 24t-16.5 16.5q-2 4 -6.5 5.5t-9.5 1.5q-10 0 -16.5 -6.5
t-6.5 -14.5q0 -9 7 -16q26 -29 50 -48z" />
    <glyph glyph-name="oe" unicode="&#x153;" horiz-adv-x="531" 
d="M376 185q-8 0 -14.5 -6t-6.5 -16q0 -9 6.5 -13.5t15.5 -4.5q22 0 47 7t46 21.5t35 36.5t14 51q0 33 -21 55t-64 22q-35 0 -68.5 -19.5t-56.5 -59.5q-11 41 -38 61t-60 20q-24 0 -43 -8.5t-31.5 -22t-19 -30.5t-6.5 -35q0 -26 19 -45.5t44 -19.5q16 0 32 9.5t16 23.5
q0 20 -22 20q-8 0 -15 -5q-5 -6 -11 -6q-8 0 -13 7.5t-5 17.5q0 20 13 36.5t42 16.5q18 0 30 -9.5t19 -23.5t10 -31t3 -32q0 -28 -6.5 -59.5t-20.5 -58.5t-35 -44.5t-51 -17.5q-20 0 -34.5 9.5t-23.5 25.5t-13 36.5t-4 42.5t1.5 37t6.5 30q2 6 2 8q0 10 -5 16.5t-14 6.5
q-6 0 -12.5 -3.5t-8.5 -10.5q-8 -20 -11.5 -39t-3.5 -45q0 -72 32.5 -113.5t86.5 -41.5q12 0 27.5 3t32 12t32.5 24.5t30 40.5q14 -39 45 -57t68 -18q26 0 45 7t31.5 16t18.5 18.5t6 15.5q0 20 -21 20q-8 0 -16 -8q-11 -14 -25.5 -21t-36.5 -7q-43 0 -63.5 28t-20.5 67
q0 42 12 74t30 54.5t39.5 34t40.5 11.5q20 0 30 -10.5t10 -25.5q0 -17 -8.5 -30.5t-22.5 -23.5t-31.5 -15.5t-35.5 -6.5z" />
    <glyph glyph-name="Ydieresis" unicode="&#x178;" horiz-adv-x="687" 
d="M557 322q0 121 13 184.5t48 63.5q30 0 30 -57q0 -25 -6.5 -56t-18.5 -64.5t-28.5 -67.5t-35.5 -65q0 17 -1 35t-1 27zM378 112q-22 0 -38.5 9t-28 30.5t-17 57t-5.5 89.5v63t-0.5 45t-1.5 33t-2 26q44 32 64 80.5t20 96.5q0 22 -3.5 39.5t-22.5 17.5q-9 0 -14.5 -7
t-5.5 -15q0 -5 1.5 -18t1.5 -17q0 -8 -1.5 -23.5t-7 -34t-15 -37.5t-25.5 -34q-9 42 -24.5 69t-34 43.5t-39 23t-39.5 6.5q-45 0 -74 -29t-29 -71q0 -27 11 -50t29.5 -39t44.5 -25t56 -9q34 0 65 11q1 -14 1.5 -28.5t0.5 -30.5v-63q0 -38 2.5 -81.5t14.5 -81.5t37.5 -63
t71.5 -25q41 0 76 20.5t72 57.5q-2 -97 -29 -166t-71.5 -112.5t-101.5 -63.5t-118 -20q-23 0 -50 6.5t-50 21.5t-39 39.5t-16 61.5q0 35 19 57.5t44 22.5q15 0 27.5 -10.5t12.5 -31.5q0 -11 -5 -28q-2 -4 -2 -8q0 -8 6.5 -15t16.5 -7q9 0 15 6.5t9 15.5t4 19t1 17
q0 38 -25.5 61t-59.5 23q-22 0 -41.5 -9.5t-34 -26t-23 -39t-8.5 -47.5q0 -44 17.5 -76t45.5 -53t63.5 -31t72.5 -10q61 0 126 20.5t117.5 67.5t86.5 125t34 193q0 5 -0.5 17.5t-1.5 26.5q28 36 52 77t41.5 83t27.5 82.5t10 74.5q0 26 -6 48t-20 34q-20 17 -43 17
q-38 0 -60 -23t-33 -62t-14 -91.5t-3 -112.5q0 -16 1 -46.5t3 -71.5q-35 -42 -68 -67t-71 -25zM237 485q-26 -12 -58 -12q-41 0 -69 22t-28 60q0 24 16 41.5t42 17.5q21 0 37 -10t28 -27.5t19.5 -41t12.5 -50.5zM547 769v16q0 9 -2.5 15.5t-7.5 11t-14 4.5t-15.5 -6.5
t-6.5 -15.5q0 -2 1 -8t1 -8q0 -20 3 -36t21 -16q9 0 15.5 6.5t6.5 15.5q0 2 -1 7t-1 7v7zM439 769v16q0 9 -2.5 15.5t-7.5 11t-14 4.5t-15.5 -6.5t-6.5 -15.5q0 -2 1 -8t1 -8q0 -20 3 -36t21 -16q9 0 15.5 6.5t6.5 15.5q0 2 -1 7t-1 7v7z" />
    <glyph glyph-name="exclamdown" unicode="&#xa1;" horiz-adv-x="278" 
d="M149 238q-11 0 -18.5 -11.5t-12.5 -27.5t-7.5 -33.5t-2.5 -30.5q0 -35 3.5 -71.5t5.5 -72.5q2 -33 2.5 -63.5t0.5 -56.5q0 -8 -1 -21.5t-5 -21.5q-23 12 -49 12q-32 0 -52 -19t-20 -48q0 -25 17.5 -42t43.5 -17q28 0 47.5 13t28.5 29q5 -11 6.5 -21.5t1.5 -20.5
q0 -4 -1 -13.5t-1 -12.5q0 -8 5 -14.5t15 -6.5q18 0 21 15.5t3 30.5q0 26 -7.5 47.5t-21.5 38.5q5 11 9.5 31t4.5 43q0 29 -2 63.5t-4 69.5q-2 34 -4 66t-2 63q0 18 2.5 35.5t12.5 34.5q2 6 2 12q0 8 -6 14.5t-15 6.5zM60 -244q-11 0 -17 6.5t-6 14.5t7 14t21 6q11 0 22 -3
t17 -8q-17 -30 -44 -30zM181 339q2 10 -5 18t-20 8q-21 0 -24 -19l-5 -32q-2 -9 4 -16.5t17 -8.5q11 -2 18.5 3.5t9.5 14.5z" />
    <glyph glyph-name="cent" unicode="&#xa2;" horiz-adv-x="450" 
d="M276 644q-10 0 -17 -8q-5 -7 -10.5 -27.5t-12.5 -67.5q-46 -8 -83.5 -35.5t-64.5 -68t-42 -89t-15 -97.5q0 -43 10.5 -75t29 -54t43.5 -35.5t53 -19.5q-6 -31 -11.5 -53.5t-11.5 -35.5q-2 -4 -2 -9q0 -22 22 -22q14 0 20 13q7 14 13.5 40t13.5 61q41 -1 71.5 9.5t51 24.5
t30.5 28.5t10 21.5q0 10 -6 16t-15 6q-12 0 -19 -9q-16 -24 -46 -40t-69 -16q3 19 8 53t10.5 74.5t11.5 84t10.5 81.5t8.5 67t5 41q45 -1 70.5 -23t25.5 -54q0 -17 -8.5 -26t-16.5 -9q-7 0 -12 11q-5 17 -21 17q-10 0 -16 -7.5t-6 -15.5q0 -5 3 -13.5t10 -16t17.5 -13
t24.5 -5.5q25 0 47 21t22 57q0 47 -34.5 81.5t-97.5 36.5q5 29 8 46.5t5 19.5q4 4 4 12q0 9 -6.5 15.5t-15.5 6.5zM213 374q-8 -67 -17.5 -137t-19.5 -130q-54 12 -77 49.5t-23 94.5q0 43 12.5 84.5t33.5 75.5t49 57.5t58 29.5z" />
    <glyph glyph-name="sterling" unicode="&#xa3;" horiz-adv-x="572" 
d="M542 108q-5 14 -21 14q-10 0 -16.5 -6.5t-6.5 -15.5q0 -4 3 -10t3 -8q0 -28 -17.5 -46.5t-59.5 -18.5q-40 0 -70.5 14t-52.5 29q-25 17 -50 33t-46 27q14 32 18 69.5t1 66.5q54 8 91 13t69 5q5 0 19 -1.5t18 -1.5q9 0 15.5 6t6.5 15q0 18 -18 21t-41 3q-35 0 -72.5 -5.5
t-91.5 -13.5q-1 11 -1.5 22t-0.5 21q0 51 10 92t29.5 69t48.5 40.5t66 7.5q-11 -13 -19 -34.5t-8 -41.5q0 -38 22.5 -59t51.5 -21t48.5 23t19.5 54q0 22 -10 46.5t-35 43.5q11 5 19 6.5t16 1.5q7 0 14.5 -2t11.5 -2q9 0 15.5 5t6.5 15q0 9 -5 14t-12.5 7t-16 2.5t-15.5 0.5
q-42 0 -74 -25q-9 2 -20.5 5t-25.5 3q-36 0 -69 -13.5t-58 -43.5t-39.5 -77.5t-14.5 -115.5q0 -12 1 -23t1 -27q-25 -4 -40.5 -6t-32.5 -2q-4 0 -15 1.5t-15 1.5q-8 0 -15 -6.5t-7 -15.5t5.5 -13.5t13 -6.5t16.5 -2h17q19 0 34.5 1.5t41.5 6.5q1 -11 1 -26q0 -14 -1.5 -29
t-5 -29t-9.5 -26q-16 8 -36.5 12.5t-31.5 4.5q-32 0 -54 -9.5t-35.5 -23.5t-19.5 -30.5t-6 -31.5q0 -29 20 -48.5t56 -19.5q80 0 128 87q21 -12 41.5 -26t48.5 -32q38 -25 73.5 -36t74.5 -11q55 0 88.5 29t33.5 77q0 9 -2 16.5t-5 9.5zM411 537q23 -14 30.5 -35.5t7.5 -32.5
q0 -17 -8.5 -27t-20.5 -10q-11 0 -20 11t-9 28q0 21 6.5 38t13.5 28zM63 35q-15 0 -24 8.5t-9 20.5q0 17 16 34.5t51 17.5q32 0 55 -14q-16 -31 -39.5 -49t-49.5 -18z" />
    <glyph glyph-name="currency" unicode="&#xa4;" 
d="M217 358q23 0 43.5 -9.5t35.5 -25t23.5 -36.5t8.5 -43q0 -23 -8.5 -43t-23.5 -35.5t-35.5 -24.5t-43.5 -9q-24 0 -44.5 9t-36 24.5t-24 35.5t-8.5 43q0 22 8.5 43t24 36.5t36 25t44.5 9.5zM22 82l33 -33l69 70q35 -29 93 -29q27 0 50.5 7.5t40.5 21.5l69 -70l33 33
l-69 70q14 17 22 41t8 51t-8.5 50.5t-21.5 40.5l69 71l-33 33l-69 -71q-17 14 -40.5 23t-50.5 9t-51 -9t-42 -23l-69 71l-33 -33l70 -71q-14 -16 -22.5 -40t-8.5 -51t8.5 -50t22.5 -42z" />
    <glyph glyph-name="yen" unicode="&#xa5;" horiz-adv-x="534" 
d="M265 163q0 -72 -9.5 -107.5t-23.5 -35.5q-8 0 -12.5 5.5t-7 13.5t-3 18t-0.5 19q0 27 12 69.5t40 85.5q2 -14 3 -33t1 -35zM230 -18q15 0 29.5 9t25 30.5t17 56t6.5 85.5q0 24 -2.5 45t-4.5 37q40 2 72.5 4t61.5 2q16 0 28 0.5t12 17.5q0 9 -6 15.5t-16 6.5
q-23 1 -58 -0.5t-73 -3.5q22 26 56.5 55.5t67.5 61.5q34 32 51 61t17 62q0 43 -26 64.5t-67 21.5q-9 0 -21.5 -3t-12.5 -20q0 -10 6.5 -16t14.5 -4q27 4 44.5 -8t17.5 -36q0 -34 -23 -61t-53 -54q-20 -19 -49.5 -46.5t-54.5 -59.5q-11 60 -29 109.5t-44 84.5t-58.5 54.5
t-71.5 19.5q-42 0 -66 -25.5t-24 -60.5q0 -13 4.5 -28t21.5 -15q9 0 15 6.5t6 16.5q0 2 -1.5 10t-1.5 10q0 4 1.5 12t6 15t14 12.5t24.5 5.5q53 0 99.5 -63t66.5 -187q-27 -2 -54.5 -3t-50.5 -1q-38 0 -56 5h-4q-9 0 -16 -6.5t-7 -15.5q0 -17 19 -20t65 -3q17 0 35.5 0.5
t38.5 1.5q-16 -24 -27 -48t-17.5 -46t-9.5 -40t-3 -29q0 -51 17.5 -73t46.5 -22z" />
    <glyph glyph-name="brokenbar" unicode="&#xa6;" horiz-adv-x="222" 
d="M88 -175h46v350h-46v-350zM88 325h46v350h-46v-350z" />
    <glyph glyph-name="section" unicode="&#xa7;" horiz-adv-x="390" 
d="M174 -149q30 0 59.5 10t53.5 30t38.5 50.5t14.5 72.5q0 57 -25 85q15 16 27.5 42.5t12.5 54.5q0 29 -9 51.5t-25 40t-37.5 30.5t-45.5 23q-23 10 -43 21t-35 25t-23.5 32t-8.5 42q0 20 8.5 37.5t23 30.5t33 20.5t39.5 7.5q41 0 60.5 -19t18.5 -42q0 -16 -10 -25t-21 -10
q-7 -1 -12 -6t-5 -11q-2 -14 6.5 -18.5t15.5 -4.5q10 0 22.5 5t23 14.5t17.5 24t7 32.5q0 45 -33.5 72.5t-86.5 27.5q-32 0 -59.5 -11.5t-48 -31t-32.5 -45t-12 -52.5q0 -46 32 -84q-15 -14 -28.5 -38t-13.5 -53q0 -53 30.5 -84.5t88.5 -57.5q49 -20 76 -50.5t27 -76.5
q0 -58 -33.5 -89.5t-84.5 -31.5q-25 0 -44 8t-32 21t-20 28.5t-7 30.5q0 26 13.5 44t30.5 18q8 0 15.5 -5t10.5 -12q4 -8 9.5 -13t10.5 -5q7 0 16 5t9 16q0 22 -20.5 38t-47.5 16q-21 0 -38 -9.5t-29 -24.5t-18 -33.5t-6 -36.5q0 -27 11.5 -50t32 -40.5t46.5 -27t54 -9.5z
M199 182q-83 38 -83 102q0 22 7.5 39t15.5 26q17 -14 41.5 -26t47.5 -23q52 -24 68 -51t16 -52q0 -26 -6.5 -42t-14.5 -27q-11 14 -38 28t-54 26z" />
    <glyph glyph-name="dieresis" unicode="&#xa8;" horiz-adv-x="254" 
d="M200 469v16q0 9 -2.5 15.5t-7.5 11t-14 4.5t-15.5 -6.5t-6.5 -15.5q0 -2 1 -8t1 -8q0 -20 3 -36t21 -16q9 0 15.5 6.5t6.5 15.5q0 2 -1 7t-1 7v7zM92 469v16q0 9 -2.5 15.5t-7.5 11t-14 4.5t-15.5 -6.5t-6.5 -15.5q0 -2 1 -8t1 -8q0 -20 3 -36t21 -16q9 0 15.5 6.5
t6.5 15.5q0 2 -1 7t-1 7v7z" />
    <glyph glyph-name="copyright" unicode="&#xa9;" horiz-adv-x="740" 
d="M365 12q-62 0 -114 21t-89 60.5t-57.5 95t-20.5 124.5q0 59 19 115.5t56.5 101t94 72t131.5 27.5q67 0 118 -25.5t85 -67.5t51 -95t17 -108q0 -59 -17.5 -116.5t-53 -103t-90.5 -73.5t-130 -28zM700 333q0 64 -20.5 125t-60.5 107.5t-99 75t-135 28.5q-84 0 -148 -29.5
t-108 -79t-66.5 -114t-22.5 -133.5q0 -78 24 -141t67 -107.5t103 -68t131 -23.5q84 0 147 30.5t105 81t62.5 115.5t20.5 133zM456 518q9 0 16 4.5t7 13.5t-4 14t-9.5 7t-11 2.5t-8.5 0.5q-26 0 -48.5 -18t-34.5 -49q-35 -4 -63 -22t-47.5 -44.5t-30 -59t-10.5 -65.5
q0 -77 41 -120.5t109 -43.5q33 0 57.5 8.5t40.5 20.5t24 24t8 18q0 5 -1 9t-6 8q-4 4 -12 4q-5 0 -10 -1.5t-8 -6.5q-13 -20 -38 -31.5t-55 -11.5q-55 0 -80.5 36t-25.5 87q0 25 7 49t20 44.5t31 35t41 20.5q0 -28 7.5 -49.5t19.5 -36.5t27 -23t30 -8q29 0 45 17t16 45
q0 31 -23.5 60t-67.5 37q8 12 18.5 18.5t18.5 6.5h10zM458 396q0 -12 -6.5 -16.5t-13.5 -4.5q-11 0 -25.5 20t-14.5 59q29 -5 44.5 -22.5t15.5 -35.5z" />
    <glyph glyph-name="ordfeminine" unicode="&#xaa;" horiz-adv-x="313" 
d="M248 388q-2 4 -2 9q0 11 2.5 28.5t5.5 33.5q3 23 7 48.5t4 48.5q0 42 -21.5 66t-57.5 24q-34 0 -61.5 -20.5t-47.5 -51.5t-31 -67.5t-11 -67.5q0 -24 6 -40.5t16 -26.5t22 -14.5t24 -4.5q22 0 38 10t26.5 23.5t15.5 27t5 20.5q0 9 -5.5 15.5t-14.5 6.5q-17 0 -20 -17
q-3 -14 -14 -29t-28 -15t-21.5 15t-4.5 29q0 25 8.5 54.5t22.5 54t33 41t40 16.5q16 0 24 -9q12 -13 12 -40q0 -21 -3.5 -44.5t-6.5 -45.5q-4 -22 -6 -38.5t-2 -29.5q0 -43 26 -43q9 0 15.5 6t6.5 16q0 5 -3 11h1zM159 286q39 0 62.5 3t23.5 21q0 10 -7 16.5t-16 6.5
q-3 0 -7 -2q-8 -2 -23.5 -2.5t-33.5 -0.5h-56q-28 0 -43 -2.5t-15 -19.5q0 -10 8 -16.5t19 -4.5q5 1 12.5 1.5t18.5 0.5z" />
    <glyph glyph-name="guillemotleft" unicode="&#xab;" horiz-adv-x="330" 
d="M249 182q-10 7 -21 14.5t-22 15.5q4 4 14.5 15.5t21.5 24.5t21 24t13 15q6 6 6 15q0 10 -6.5 16t-15.5 6q-4 0 -7.5 -1.5t-9 -6t-13.5 -13.5t-21 -25q-14 -17 -26 -31t-23 -21q-9 -7 -9 -18t9 -18q5 -5 20.5 -16.5t32 -24.5t30 -23l13.5 -10q6 -7 16 -7q9 0 15.5 6.5
t6.5 16.5q0 9 -7 15q-5 5 -14.5 13t-23.5 18zM84 205q4 5 13 17t19 25.5t19 25.5t13 16q6 6 6 15q0 10 -6.5 16.5t-15.5 6.5q-8 0 -17 -7q-12 -14 -22.5 -28.5t-20.5 -28.5q-9 -14 -18.5 -27t-17.5 -18q-10 -8 -10 -18q0 -13 13 -20q29 -15 53 -32.5t36 -29.5q5 -6 15 -6
t16.5 6.5t6.5 15.5q0 7 -6 15q-5 5 -25 21t-51 35z" />
    <glyph glyph-name="logicalnot" unicode="&#xac;" 
d="M356 97h42v198h-364v-42h322v-156z" />
    <glyph glyph-name="hyphen" unicode="&#xad;" horiz-adv-x="307" 
d="M171 216q18 -1 36.5 -0.5t32.5 3.5t23 9t9 16q0 8 -6.5 15t-15.5 7q-3 0 -7 -2q-11 -3 -30.5 -4t-41.5 -1l-72 1q-31 0 -48 -3t-17 -23q0 -10 7.5 -16.5t18.5 -2.5q6 2 16 2h23z" />
    <glyph glyph-name="registered" unicode="&#xae;" horiz-adv-x="516" 
d="M254 232q53 0 92.5 19.5t66 51t40 72t13.5 83.5q0 41 -13 79t-38.5 67.5t-62.5 47t-85 17.5q-53 0 -93 -18.5t-68 -49.5t-42 -71.5t-14 -83.5q0 -49 15 -88.5t42 -67.5t64.5 -43t82.5 -15zM254 268q-35 0 -64.5 11.5t-51.5 34t-34 55.5t-12 77q0 37 11 71t33 59.5t55 41
t76 15.5q37 0 66.5 -14t49.5 -38t30.5 -55.5t10.5 -67.5q0 -38 -10.5 -72t-31.5 -60.5t-53 -42t-75 -15.5zM228 467q2 10 4 23.5t2 24.5v8t-1 13q9 0 19.5 -1.5t19 -6t14.5 -12t6 -17.5q0 -11 -8 -22t-32 -13q-5 0 -9.5 -4.5t-4.5 -14.5q0 -9 5 -14t9 -5q14 -1 23.5 -12
t16.5 -40q7 -25 15.5 -34t22.5 -9q9 0 16 4t7 9q0 8 -5 16q-9 8 -13.5 26.5t-9.5 29.5t-10 17.5t-15 11.5q19 7 28.5 22t9.5 33q0 22 -9.5 37t-25.5 24.5t-36.5 13t-42.5 2.5q-9 -1 -16.5 -2.5t-11.5 -3.5q-5 -2 -7 -6.5t-2 -6.5q0 -9 0.5 -24.5t0.5 -21.5q0 -11 -3.5 -31.5
t-5.5 -30.5q-5 -18 -8 -34.5t-3 -30.5q0 -29 7 -42t22 -13q22 0 22 13q0 7 -1 11q-2 5 -4 13.5t-2 17.5q0 12 3.5 27t7.5 32z" />
    <glyph glyph-name="macron" unicode="&#xaf;" horiz-adv-x="237" 
d="M184 475q-34 -7 -64 -7q-5 0 -15.5 0.5t-22 1.5t-22 1.5t-14.5 0.5q-9 0 -15.5 -6.5t-6.5 -14.5q0 -7 6.5 -12t15.5 -5q5 0 15.5 -0.5t22 -1.5t22 -1.5t14.5 -0.5q17 0 35.5 2t39.5 7q17 2 17 21q0 6 -8.5 12t-19.5 3z" />
    <glyph glyph-name="degree" unicode="&#xb0;" horiz-adv-x="240" 
d="M136 600q-37 0 -62.5 -25.5t-25.5 -61.5q0 -37 25.5 -62t62.5 -25q36 0 61 25t25 62q0 36 -25 61.5t-61 25.5zM136 567q22 0 37 -16t15 -38t-15 -38t-37 -16t-37 16t-15 38t15 38t37 16z" />
    <glyph glyph-name="plusminus" unicode="&#xb1;" 
d="M195 259h-161v-42h161v-133h42v133h161v42h-161v130h-42v-130zM34 7h364v42h-364v-42z" />
    <glyph glyph-name="twosuperior" unicode="&#xb2;" horiz-adv-x="320" 
d="M138 523q0 -5 -3.5 -12t-13.5 -7q-9 0 -17 7t-8 21q0 30 21 51t56 21q33 0 47 -19t14 -44q0 -17 -5 -36.5t-14.5 -39.5t-23 -38.5t-29.5 -33.5q-16 13 -34 25t-42 12q-27 0 -46 -17t-19 -42q0 -23 19 -36.5t44 -13.5q20 0 40 7.5t39 20.5q17 -14 36 -23t43 -9
q32 0 54.5 20t22.5 56q0 7 -2.5 16.5t-16.5 9.5q-9 0 -13.5 -6t-4.5 -15q0 -19 -9 -31t-31 -12q-12 0 -23.5 4.5t-24.5 12.5q38 37 59 83.5t21 85.5q0 42 -26 71.5t-74 29.5q-25 0 -46.5 -8.5t-37.5 -23.5t-25 -35t-9 -43q0 -29 19.5 -47.5t45.5 -18.5t41.5 18t15.5 39
q0 13 -7 23.5t-18 10.5q-8 0 -13.5 -6t-5.5 -14t4 -13v-1zM84 360q-11 0 -17.5 4t-6.5 9q0 11 8.5 15.5t17.5 4.5q12 0 23.5 -6.5t20.5 -14.5q-21 -12 -46 -12z" />
    <glyph glyph-name="threesuperior" unicode="&#xb3;" horiz-adv-x="270" 
d="M133 320q31 0 56 9t42.5 24.5t27 35.5t9.5 43q0 21 -6 39t-19 30q14 26 14 55q0 35 -23 61t-71 26q-22 0 -39.5 -8t-29.5 -19t-18.5 -23t-6.5 -20t6 -14.5t14 -6.5q13 0 18 15q5 20 22.5 29t33.5 9q17 0 27.5 -5t16.5 -12.5t8 -16t2 -15.5q0 -8 -1.5 -16.5t-4.5 -15.5
q-24 12 -58 12q-30 0 -49.5 -14.5t-19.5 -35.5q0 -20 16.5 -34t42.5 -14q44 0 76 30q5 -7 6.5 -16t1.5 -20q0 -33 -26 -54t-68 -21q-32 0 -49 17q-10 11 -12.5 24t-2.5 16q0 8 -5.5 13.5t-14.5 5.5q-8 0 -13.5 -5.5t-5.5 -13.5q0 -14 4.5 -30t16 -30.5t31.5 -24t51 -9.5z
M123 486q0 7 8.5 10t21.5 3q20 0 36 -7q-9 -8 -21 -12.5t-25 -4.5q-8 0 -14 2.5t-6 8.5z" />
    <glyph glyph-name="acute" unicode="&#xb4;" horiz-adv-x="205" 
d="M125 500q-18 -16 -41.5 -34t-48.5 -38q-8 -6 -8 -17q0 -6 4.5 -12t10.5 -6q4 0 8.5 1t9.5 5q9 6 22 16t26.5 21t27 21t23.5 18q20 16 20 31q0 8 -5 12.5t-13 4.5q-2 0 -5.5 -1t-6.5 -2q-7 -5 -13.5 -11t-10.5 -9z" />
    <glyph glyph-name="mu" unicode="&#xb5;" horiz-adv-x="382" 
d="M139 322q0 9 -6.5 16t-16.5 7q-13 0 -20 -14q-5 -10 -9 -38t-12 -85q-6 -43 -13 -93.5t-16 -100t-19.5 -93t-22.5 -70.5q0 -2 -0.5 -4.5t-0.5 -4.5q0 -9 6.5 -15.5t15.5 -6.5q14 0 20 13q16 34 27 91t21 117q13 -31 30.5 -38.5t34.5 -7.5q35 0 63.5 26t47.5 64
q0 -9 1.5 -24t5 -28.5t9.5 -23.5t17 -10q10 0 16.5 6.5t6.5 16.5q0 4 -3 10q-5 11 -7 26.5t-2 34.5t1 36.5t4 38.5t8 47.5t12 64.5q0 3 2 15t2 14q0 18 -19 21q-9 2 -16 -3t-9 -15q-12 -63 -27.5 -113.5t-33.5 -86t-38 -54.5t-41 -19q-12 0 -20 8t-12.5 21t-6.5 29.5
t-2 33.5q0 36 7 88t15 100v3z" />
    <glyph glyph-name="paragraph" unicode="&#xb6;" horiz-adv-x="540" 
d="M308 491q-5 0 -9 -2q-14 -5 -14 -21q0 -2 2 -8q4 -7 4 -38q0 -15 -3 -36t-7.5 -45t-10 -49.5t-10.5 -49.5q-7 -34 -15 -73t-14.5 -78t-10.5 -76t-4 -67q0 -11 0.5 -23.5t3.5 -23t9 -18t17 -7.5q9 0 15.5 6t6.5 16q0 5 -3 10q-1 2 -2.5 10.5t-1.5 29.5q0 30 3.5 64.5
t9.5 71.5t13.5 74t15.5 72q13 58 22.5 107.5t9.5 84.5q0 12 -0.5 24.5t-3 22t-8 16t-15.5 6.5zM428 471q-5 0 -9 -2q-14 -5 -14 -21q0 -2 2 -8q4 -7 4 -38q0 -15 -3.5 -37.5t-8.5 -47.5t-10.5 -50.5t-9.5 -47.5q-5 -26 -11.5 -60.5t-12.5 -71.5t-10 -73t-4 -66
q0 -11 0.5 -23.5t3.5 -23t9 -18t17 -7.5q9 0 15.5 6t6.5 16q0 5 -3 10q-1 2 -2.5 10.5t-1.5 29.5q0 30 4 66t10 73t13 72.5t13 64.5q10 50 19.5 96.5t9.5 81.5q0 12 -0.5 24.5t-3 22t-8 16t-15.5 6.5zM548 505q0 14 -16 30.5t-45.5 31t-71 24t-93.5 9.5q-60 0 -110.5 -16
t-87 -44t-57.5 -66t-21 -82q0 -39 13.5 -67.5t35 -48t48 -29t52.5 -9.5q10 0 16 6t6 15q0 8 -6 14t-15 6q-44 0 -74.5 30t-30.5 83q0 35 17.5 65.5t48.5 53t73 35.5t91 13q39 0 68.5 -5.5t51 -13.5t35.5 -17.5t21 -16.5q5 -5 9.5 -14.5t19.5 -9.5q8 0 15 7t7 16z" />
    <glyph glyph-name="periodcentered" unicode="&#xb7;" horiz-adv-x="130" 
d="M46 231q-2 -11 5 -18t19 -7q22 0 25 18l5 34q1 9 -4.5 16t-16.5 9t-19 -3.5t-10 -14.5z" />
    <glyph glyph-name="periodcentered" unicode="&#x2219;" horiz-adv-x="130" 
d="M46 231q-2 -11 5 -18t19 -7q22 0 25 18l5 34q1 9 -4.5 16t-16.5 9t-19 -3.5t-10 -14.5z" />
    <glyph glyph-name="cedilla" unicode="&#xb8;" horiz-adv-x="243" 
d="M114 -182q13 0 27 5t25.5 14t19 21.5t7.5 27.5q0 18 -6 30t-14.5 19.5t-18.5 12t-17 6.5l43 49l-34 13l-23 -23q-10 -11 -18 -21.5t-8 -20.5q0 -15 9.5 -20.5t17.5 -9.5q13 -6 21 -13.5t8 -22.5q0 -14 -13 -21.5t-22 -7.5t-16 2t-15 8q-7 4 -14 4q-9 0 -14.5 -6.5
t-5.5 -15.5q0 -8 6.5 -13.5t16 -9t20 -5.5t18.5 -2z" />
    <glyph glyph-name="onesuperior" unicode="&#xb9;" horiz-adv-x="260" 
d="M172 519q36 12 55.5 32.5t19.5 48.5q0 17 -11.5 30.5t-36.5 13.5q-15 0 -26 -8t-19.5 -21.5t-13.5 -31t-6 -36.5q-40 -10 -90 -11q-8 0 -14 -5.5t-6 -13.5q0 -9 6 -13.5t14 -4.5q21 0 44 2t43 7q0 -7 1 -22t1.5 -32.5t1.5 -34.5t1 -27q0 -20 -6 -29.5t-6 -17.5t5.5 -14.5
t13.5 -6.5q19 0 26 21.5t7 46.5q0 23 -2 52.5t-2 49.5v25zM200 605q8 0 8 -6q0 -9 -6.5 -18.5t-26.5 -19.5q5 22 12 33t13 11z" />
    <glyph glyph-name="ordmasculine" unicode="&#xba;" horiz-adv-x="306" 
d="M108 563q0 -28 20.5 -45t47.5 -17q11 0 18.5 5t7.5 16q0 10 -6 15t-15 5q-11 0 -20 5.5t-9 18.5q0 17 9 28.5t23 11.5q13 0 22 -7t14 -17.5t7 -23.5t2 -25q0 -26 -6.5 -51t-18.5 -45t-28.5 -32t-37.5 -12q-29 0 -41 27t-12 60q0 27 7 58q1 2 1 6q0 9 -6 15.5t-16 6.5
q-8 0 -13.5 -4.5t-7.5 -12.5q-10 -36 -10 -69q0 -58 26.5 -93t70.5 -35q31 0 56.5 16t43.5 42t27.5 58t9.5 65q0 51 -24.5 82.5t-65.5 31.5q-35 0 -55.5 -25.5t-20.5 -58.5zM171 280q39 0 62 3t23 22q0 9 -6 16t-16 7q-1 0 -7 -2q-8 -3 -23.5 -4t-32.5 -1l-58 1
q-28 0 -42 -2.5t-14 -18.5q0 -11 7.5 -17.5t18.5 -4.5q5 1 13 1h17h58z" />
    <glyph glyph-name="guillemotright" unicode="&#xbb;" horiz-adv-x="330" 
d="M296 197q8 8 8 17q0 5 -5.5 13.5t-13.5 18.5t-17.5 20t-17.5 18l-16.5 16.5t-16.5 18.5q-9 7 -17 7q-9 0 -15.5 -6.5t-6.5 -16.5q0 -4 1 -7t5 -8t11.5 -13t21.5 -22q10 -10 19 -18.5t17 -17.5q-23 -19 -37 -31t-22.5 -19t-13 -11t-7.5 -8q-7 -6 -7 -15t6.5 -15.5
t16.5 -6.5q9 0 15 6q7 7 22 19.5t35 29.5zM178 209q5 7 5 15q0 13 -9 18q-4 3 -17.5 17t-29.5 29t-31.5 27.5t-23.5 12.5q-10 0 -16.5 -6.5t-6.5 -16.5t10 -18q19 -14 32.5 -26.5t24.5 -23.5q5 -5 8.5 -8t6.5 -7q-25 -26 -43.5 -42t-37.5 -25q-13 -8 -13 -20
q0 -10 6.5 -16.5t16.5 -6.5t25 10.5t31.5 25.5t33 31.5t28.5 29.5z" />
    <glyph glyph-name="onequarter" unicode="&#xbc;" horiz-adv-x="720" 
d="M172 519q36 12 55.5 32.5t19.5 48.5q0 17 -11.5 30.5t-36.5 13.5q-15 0 -26 -8t-19.5 -21.5t-13.5 -31t-6 -36.5q-40 -10 -90 -11q-8 0 -14 -5.5t-6 -13.5q0 -9 6 -13.5t14 -4.5q21 0 44 2t43 7q0 -7 1 -22t1.5 -32.5t1.5 -34.5t1 -27q0 -20 -6 -29.5t-6 -17.5t5.5 -14.5
t13.5 -6.5q19 0 26 21.5t7 46.5q0 23 -2 52.5t-2 49.5v25zM200 605q8 0 8 -6q0 -9 -6.5 -18.5t-26.5 -19.5q5 22 12 33t13 11zM136 6q0 -8 4 -14t9 -8q7 -2 14.5 2.5t9.5 13.5q10 39 32 89.5t51.5 106.5t63.5 114t67 114q35 59 62 103.5t45 75.5q7 11 7 18q0 8 -5 14.5
t-12 6.5q-13 0 -20 -12q-15 -24 -45 -74.5t-65 -110.5t-69.5 -119.5t-64 -115.5t-52 -106.5t-32.5 -92.5v-5zM567 -2q12 0 16.5 3t4.5 8q0 1 -2 5q-2 2 -2 7v11q0 12 1 24t2 20q21 -3 37 -3q31 0 45.5 15.5t14.5 28.5q0 8 -5 12t-12 4t-10 -4q-4 -6 -11 -12t-22 -6t-31 3
q1 6 4.5 21.5t7.5 32.5t7 31.5t4 19.5q2 7 4 20t2 21t-2.5 17.5t-19.5 9.5q-12 0 -16.5 -3t-4.5 -8q0 -3 1 -5t1 -14q0 -5 -2.5 -19.5t-8.5 -42.5q-5 -21 -9 -40.5t-8 -34.5q-13 3 -35.5 11.5t-36.5 14.5q26 27 44.5 59.5t18.5 69.5q0 19 -14.5 35.5t-43.5 16.5
q-12 0 -21 -4t-9 -15q0 -7 3 -11.5t8 -3.5l10 1q11 -1 18.5 -7t7.5 -16q0 -29 -19 -59.5t-40 -49.5q-14 6 -28.5 11.5t-34.5 5.5q-25 0 -39.5 -16.5t-14.5 -34.5q0 -16 11.5 -32t37.5 -16t45 11.5t33 23.5q8 -3 14.5 -5.5t14.5 -5.5q17 -6 33 -12t31 -10l-3 -21t-2 -28
q0 -17 4.5 -26.5t20.5 -8.5zM367 126q0 8 5 12t12 6q8 0 16 -2t19 -8q-13 -11 -22 -14.5t-15 -3.5q-5 -1 -10 2t-5 8z" />
    <glyph glyph-name="onehalf" unicode="&#xbd;" horiz-adv-x="650" 
d="M172 519q36 12 55.5 32.5t19.5 48.5q0 17 -11.5 30.5t-36.5 13.5q-15 0 -26 -8t-19.5 -21.5t-13.5 -31t-6 -36.5q-40 -10 -90 -11q-8 0 -14 -5.5t-6 -13.5q0 -9 6 -13.5t14 -4.5q21 0 44 2t43 7q0 -7 1 -22t1.5 -32.5t1.5 -34.5t1 -27q0 -20 -6 -29.5t-6 -17.5t5.5 -14.5
t13.5 -6.5q19 0 26 21.5t7 46.5q0 23 -2 52.5t-2 49.5v25zM121 6q0 -8 4 -14t9 -8q7 -2 14.5 2.5t9.5 13.5q9 39 31.5 89.5t52 106.5t63.5 114t67 114q35 59 62 103.5t45 75.5q7 11 7 18q0 8 -5 14.5t-12 6.5q-13 0 -20 -12q-15 -24 -45 -74.5t-65 -110.5t-69.5 -119.5
t-64 -115.5t-52 -106.5t-32.5 -92.5v-5zM200 605q8 0 8 -6q0 -9 -6.5 -18.5t-26.5 -19.5q5 22 12 33t13 11zM438 193q0 -5 -3.5 -12t-13.5 -7q-9 0 -17 7t-8 21q0 30 21 51t56 21q33 0 47 -19t14 -44q0 -17 -5 -36.5t-14.5 -39.5t-23 -38.5t-29.5 -33.5q-16 13 -34 25
t-42 12q-27 0 -46 -17t-19 -42q0 -23 19 -36.5t44 -13.5q20 0 40 7.5t39 20.5q17 -14 36 -23t43 -9q32 0 54.5 20t22.5 56q0 7 -2.5 16.5t-16.5 9.5q-9 0 -13.5 -6t-4.5 -15q0 -19 -9 -31t-31 -12q-12 0 -23.5 4.5t-24.5 12.5q38 37 59 83.5t21 85.5q0 42 -26 71.5t-74 29.5
q-25 0 -46.5 -8.5t-37.5 -23.5t-25 -35t-9 -43q0 -29 19.5 -47.5t45.5 -18.5t41.5 18t15.5 39q0 13 -7 23.5t-18 10.5q-8 0 -13.5 -6t-5.5 -14t4 -13v-1zM384 30q-11 0 -17.5 4t-6.5 9q0 11 8.5 15.5t17.5 4.5q12 0 23.5 -6.5t20.5 -14.5q-21 -12 -46 -12z" />
    <glyph glyph-name="threequarters" unicode="&#xbe;" horiz-adv-x="720" 
d="M133 320q31 0 56 9t42.5 24.5t27 35.5t9.5 43q0 21 -6 39t-19 30q14 26 14 55q0 35 -23 61t-71 26q-22 0 -39.5 -8t-29.5 -19t-18.5 -23t-6.5 -20t6 -14.5t14 -6.5q13 0 18 15q5 20 22.5 29t33.5 9q17 0 27.5 -5t16.5 -12.5t8 -16t2 -15.5q0 -8 -1.5 -16.5t-4.5 -15.5
q-24 12 -58 12q-30 0 -49.5 -14.5t-19.5 -35.5q0 -20 16.5 -34t42.5 -14q44 0 76 30q5 -7 6.5 -16t1.5 -20q0 -33 -26 -54t-68 -21q-32 0 -49 17q-10 11 -12.5 24t-2.5 16q0 8 -5.5 13.5t-14.5 5.5q-8 0 -13.5 -5.5t-5.5 -13.5q0 -14 4.5 -30t16 -30.5t31.5 -24t51 -9.5z
M123 486q0 7 8.5 10t21.5 3q20 0 36 -7q-9 -8 -21 -12.5t-25 -4.5q-8 0 -14 2.5t-6 8.5zM156 6q0 -8 4 -14t9 -8q7 -2 14.5 2.5t9.5 13.5q10 39 32 89.5t51.5 106.5t63.5 114t67 114q35 59 62 103.5t45 75.5q7 11 7 18q0 8 -5 14.5t-12 6.5q-13 0 -20 -12q-15 -24 -45 -74.5
t-65 -110.5t-69.5 -119.5t-64 -115.5t-52 -106.5t-32.5 -92.5v-5zM567 -2q12 0 16.5 3t4.5 8q0 1 -2 5q-2 2 -2 7v11q0 12 1 24t2 20q21 -3 37 -3q31 0 45.5 15.5t14.5 28.5q0 8 -5 12t-12 4t-10 -4q-4 -6 -11 -12t-22 -6t-31 3q1 6 4.5 21.5t7.5 32.5t7 31.5t4 19.5
q2 7 4 20t2 21t-2.5 17.5t-19.5 9.5q-12 0 -16.5 -3t-4.5 -8q0 -3 1 -5t1 -14q0 -5 -2.5 -19.5t-8.5 -42.5q-5 -21 -9 -40.5t-8 -34.5q-13 3 -35.5 11.5t-36.5 14.5q26 27 44.5 59.5t18.5 69.5q0 19 -14.5 35.5t-43.5 16.5q-12 0 -21 -4t-9 -15q0 -7 3 -11.5t8 -3.5l10 1
q11 -1 18.5 -7t7.5 -16q0 -29 -19 -59.5t-40 -49.5q-14 6 -28.5 11.5t-34.5 5.5q-25 0 -39.5 -16.5t-14.5 -34.5q0 -16 11.5 -32t37.5 -16t45 11.5t33 23.5q8 -3 14.5 -5.5t14.5 -5.5q17 -6 33 -12t31 -10l-3 -21t-2 -28q0 -17 4.5 -26.5t20.5 -8.5zM367 126q0 8 5 12t12 6
q8 0 16 -2t19 -8q-13 -11 -22 -14.5t-15 -3.5q-5 -1 -10 2t-5 8z" />
    <glyph glyph-name="questiondown" unicode="&#xbf;" horiz-adv-x="425" 
d="M223 244q-9 0 -15.5 -6.5t-6.5 -15.5q0 -8 7 -17q4 -3 12 -16t8 -33q0 -32 -21 -55.5t-53 -46.5q-24 -18 -47 -37.5t-41 -43.5t-28.5 -53.5t-10.5 -66.5q0 -60 39 -99q45 -45 125 -45q26 0 48.5 6.5t39.5 16.5q9 -3 17.5 -3.5t14.5 -0.5q25 0 46 6.5t36 16.5t23.5 21.5
t8.5 21.5t-6.5 15.5t-16.5 5.5q-7 0 -11 -4t-9 -12q-5 -9 -23 -21t-44 -10q17 16 24 36.5t7 39.5q0 23 -7.5 40t-19 28t-26 16.5t-29.5 5.5q-30 0 -55 -24t-25 -66q0 -29 12 -53t36 -38q-9 -2 -18.5 -3t-17.5 -1q-60 0 -92 30t-32 73q0 30 8.5 54t22 43.5t31.5 35t37 29.5
q44 32 72.5 64t28.5 78q0 16 -4.5 32t-11.5 28.5t-16 20t-17 7.5zM255 338q2 11 -5 19t-21 8q-9 0 -15 -5.5t-8 -13.5l-6 -33q-1 -8 4.5 -15.5t16.5 -9.5t19 3.5t10 15.5zM228 -156q0 25 11 37t23 12q14 0 27 -10.5t13 -38.5q0 -45 -32 -72q-20 11 -31 30t-11 42z" />
    <glyph glyph-name="Agrave" unicode="&#xc0;" horiz-adv-x="662" 
d="M491 364q2 21 3 40.5t1 38.5q0 123 -45 167q-29 30 -78 30q-37 0 -68 -19.5t-56.5 -52.5t-46 -76t-35.5 -91q-67 -18 -106.5 -54t-39.5 -86q0 -38 25.5 -67.5t80.5 -40.5q-1 -75 13.5 -117.5t35.5 -42.5q10 0 16.5 6.5t6.5 15.5q0 8 -6 14q-10 14 -16 44.5t-6 74.5
q36 -1 68 7.5t56 25t38 39.5t14 51q0 10 -6.5 16t-15.5 6q-21 0 -21 -22q0 -20 -11 -35.5t-29.5 -26t-42.5 -16t-49 -4.5q2 40 9.5 86.5t20.5 91.5q20 3 40.5 5t43.5 2q91 0 160 -33q-7 -72 -11 -123t-4 -77q0 -52 8.5 -84.5t26.5 -51.5q10 -11 24 -16t30 -5q20 0 40 8.5
t36.5 27t26.5 47.5t10 69q0 67 -35.5 127.5t-105.5 100.5zM474 141q0 15 1.5 36.5t3.5 45.5t4.5 48.5t4.5 46.5q45 -30 72.5 -77t27.5 -105q0 -47 -18 -79.5t-49 -32.5q-14 0 -23.5 9t-14.5 25t-7 37.5t-2 45.5zM372 599q28 0 46 -18q33 -33 33 -137q0 -29 -3 -59
q-76 31 -163 31q-18 0 -35 -1.5t-33 -3.5q13 39 29.5 73t36 59.5t42 40.5t47.5 15zM154 354q-11 -39 -18 -82.5t-9 -77.5q-35 10 -48.5 27t-13.5 40q0 33 27 56.5t62 36.5zM287 813q-10 0 -16.5 -7t-6.5 -15q0 -7 7 -12.5t36 -21.5q22 -12 44 -25.5t43 -32.5q5 -5 14 -5
q10 0 16.5 6t6.5 11q0 11 -8 17q-23 20 -46.5 35t-46.5 28q-8 5 -16 9.5t-15 9.5q-3 1 -6.5 2t-5.5 1z" />
    <glyph glyph-name="Aacute" unicode="&#xc1;" horiz-adv-x="662" 
d="M491 364q2 21 3 40.5t1 38.5q0 123 -45 167q-29 30 -78 30q-37 0 -68 -19.5t-56.5 -52.5t-46 -76t-35.5 -91q-67 -18 -106.5 -54t-39.5 -86q0 -38 25.5 -67.5t80.5 -40.5q-1 -75 13.5 -117.5t35.5 -42.5q10 0 16.5 6.5t6.5 15.5q0 8 -6 14q-10 14 -16 44.5t-6 74.5
q36 -1 68 7.5t56 25t38 39.5t14 51q0 10 -6.5 16t-15.5 6q-21 0 -21 -22q0 -20 -11 -35.5t-29.5 -26t-42.5 -16t-49 -4.5q2 40 9.5 86.5t20.5 91.5q20 3 40.5 5t43.5 2q91 0 160 -33q-7 -72 -11 -123t-4 -77q0 -52 8.5 -84.5t26.5 -51.5q10 -11 24 -16t30 -5q20 0 40 8.5
t36.5 27t26.5 47.5t10 69q0 67 -35.5 127.5t-105.5 100.5zM474 141q0 15 1.5 36.5t3.5 45.5t4.5 48.5t4.5 46.5q45 -30 72.5 -77t27.5 -105q0 -47 -18 -79.5t-49 -32.5q-14 0 -23.5 9t-14.5 25t-7 37.5t-2 45.5zM372 599q28 0 46 -18q33 -33 33 -137q0 -29 -3 -59
q-76 31 -163 31q-18 0 -35 -1.5t-33 -3.5q13 39 29.5 73t36 59.5t42 40.5t47.5 15zM154 354q-11 -39 -18 -82.5t-9 -77.5q-35 10 -48.5 27t-13.5 40q0 33 27 56.5t62 36.5zM474 808q-21 -19 -43 -32.5t-44 -25.5q-14 -8 -22.5 -13.5t-13 -9t-6 -7.5t-1.5 -9t6.5 -11t16.5 -6
q2 0 5.5 1t6.5 2q7 5 15 9.5t16 9.5q23 13 46.5 28t46.5 35q8 6 8 17q0 5 -6.5 11t-16.5 6q-9 0 -14 -5z" />
    <glyph glyph-name="Acircumflex" unicode="&#xc2;" horiz-adv-x="662" 
d="M491 364q2 21 3 40.5t1 38.5q0 123 -45 167q-29 30 -78 30q-37 0 -68 -19.5t-56.5 -52.5t-46 -76t-35.5 -91q-67 -18 -106.5 -54t-39.5 -86q0 -38 25.5 -67.5t80.5 -40.5q-1 -75 13.5 -117.5t35.5 -42.5q10 0 16.5 6.5t6.5 15.5q0 8 -6 14q-10 14 -16 44.5t-6 74.5
q36 -1 68 7.5t56 25t38 39.5t14 51q0 10 -6.5 16t-15.5 6q-21 0 -21 -22q0 -20 -11 -35.5t-29.5 -26t-42.5 -16t-49 -4.5q2 40 9.5 86.5t20.5 91.5q20 3 40.5 5t43.5 2q91 0 160 -33q-7 -72 -11 -123t-4 -77q0 -52 8.5 -84.5t26.5 -51.5q10 -11 24 -16t30 -5q20 0 40 8.5
t36.5 27t26.5 47.5t10 69q0 67 -35.5 127.5t-105.5 100.5zM474 141q0 15 1.5 36.5t3.5 45.5t4.5 48.5t4.5 46.5q45 -30 72.5 -77t27.5 -105q0 -47 -18 -79.5t-49 -32.5q-14 0 -23.5 9t-14.5 25t-7 37.5t-2 45.5zM372 599q28 0 46 -18q33 -33 33 -137q0 -29 -3 -59
q-76 31 -163 31q-18 0 -35 -1.5t-33 -3.5q13 39 29.5 73t36 59.5t42 40.5t47.5 15zM154 354q-11 -39 -18 -82.5t-9 -77.5q-35 10 -48.5 27t-13.5 40q0 33 27 56.5t62 36.5zM384 808q-4 0 -18 -7t-31 -16.5t-33.5 -19t-24.5 -15.5q-10 -7 -10 -18q0 -5 6.5 -11t16.5 -6
q3 0 6.5 0.5t5.5 2.5q17 11 37.5 24t42.5 24q6 -5 17 -15t24 -20t24.5 -17.5t17.5 -7.5q10 0 16.5 6t6.5 11q0 13 -11 19q-21 14 -39.5 29t-38.5 31q-6 6 -15 6z" />
    <glyph glyph-name="Atilde" unicode="&#xc3;" horiz-adv-x="662" 
d="M491 364q2 21 3 40.5t1 38.5q0 123 -45 167q-29 30 -78 30q-37 0 -68 -19.5t-56.5 -52.5t-46 -76t-35.5 -91q-67 -18 -106.5 -54t-39.5 -86q0 -38 25.5 -67.5t80.5 -40.5q-1 -75 13.5 -117.5t35.5 -42.5q10 0 16.5 6.5t6.5 15.5q0 8 -6 14q-10 14 -16 44.5t-6 74.5
q36 -1 68 7.5t56 25t38 39.5t14 51q0 10 -6.5 16t-15.5 6q-21 0 -21 -22q0 -20 -11 -35.5t-29.5 -26t-42.5 -16t-49 -4.5q2 40 9.5 86.5t20.5 91.5q20 3 40.5 5t43.5 2q91 0 160 -33q-7 -72 -11 -123t-4 -77q0 -52 8.5 -84.5t26.5 -51.5q10 -11 24 -16t30 -5q20 0 40 8.5
t36.5 27t26.5 47.5t10 69q0 67 -35.5 127.5t-105.5 100.5zM474 141q0 15 1.5 36.5t3.5 45.5t4.5 48.5t4.5 46.5q45 -30 72.5 -77t27.5 -105q0 -47 -18 -79.5t-49 -32.5q-14 0 -23.5 9t-14.5 25t-7 37.5t-2 45.5zM372 599q28 0 46 -18q33 -33 33 -137q0 -29 -3 -59
q-76 31 -163 31q-18 0 -35 -1.5t-33 -3.5q13 39 29.5 73t36 59.5t42 40.5t47.5 15zM154 354q-11 -39 -18 -82.5t-9 -77.5q-35 10 -48.5 27t-13.5 40q0 33 27 56.5t62 36.5zM315 782q-18 0 -33 -6.5t-25 -15.5t-15.5 -18t-5.5 -15q0 -9 6 -15.5t12 -6.5q12 0 18 11
q9 17 20.5 23t22.5 6q10 0 19.5 -3.5t17.5 -8.5q17 -12 34 -17t33 -5q17 0 29.5 5.5t21 13t13 16t4.5 13.5q0 14 -5 18t-12 4q-13 0 -18 -12q-6 -13 -14 -17t-19 -4t-23.5 6.5t-23.5 12.5q-26 15 -57 15z" />
    <glyph glyph-name="Adieresis" unicode="&#xc4;" horiz-adv-x="662" 
d="M491 364q2 21 3 40.5t1 38.5q0 123 -45 167q-29 30 -78 30q-37 0 -68 -19.5t-56.5 -52.5t-46 -76t-35.5 -91q-67 -18 -106.5 -54t-39.5 -86q0 -38 25.5 -67.5t80.5 -40.5q-1 -75 13.5 -117.5t35.5 -42.5q10 0 16.5 6.5t6.5 15.5q0 8 -6 14q-10 14 -16 44.5t-6 74.5
q36 -1 68 7.5t56 25t38 39.5t14 51q0 10 -6.5 16t-15.5 6q-21 0 -21 -22q0 -20 -11 -35.5t-29.5 -26t-42.5 -16t-49 -4.5q2 40 9.5 86.5t20.5 91.5q20 3 40.5 5t43.5 2q91 0 160 -33q-7 -72 -11 -123t-4 -77q0 -52 8.5 -84.5t26.5 -51.5q10 -11 24 -16t30 -5q20 0 40 8.5
t36.5 27t26.5 47.5t10 69q0 67 -35.5 127.5t-105.5 100.5zM474 141q0 15 1.5 36.5t3.5 45.5t4.5 48.5t4.5 46.5q45 -30 72.5 -77t27.5 -105q0 -47 -18 -79.5t-49 -32.5q-14 0 -23.5 9t-14.5 25t-7 37.5t-2 45.5zM372 599q28 0 46 -18q33 -33 33 -137q0 -29 -3 -59
q-76 31 -163 31q-18 0 -35 -1.5t-33 -3.5q13 39 29.5 73t36 59.5t42 40.5t47.5 15zM154 354q-11 -39 -18 -82.5t-9 -77.5q-35 10 -48.5 27t-13.5 40q0 33 27 56.5t62 36.5zM444 769v16q0 9 -2.5 15.5t-7.5 11t-14 4.5t-15.5 -6.5t-6.5 -15.5q0 -2 1 -8t1 -8q0 -20 3 -36
t21 -16q9 0 15.5 6.5t6.5 15.5q0 2 -1 7t-1 7v7zM336 769v16q0 9 -2.5 15.5t-7.5 11t-14 4.5t-15.5 -6.5t-6.5 -15.5q0 -2 1 -8t1 -8q0 -20 3 -36t21 -16q9 0 15.5 6.5t6.5 15.5q0 2 -1 7t-1 7v7z" />
    <glyph glyph-name="Aring" unicode="&#xc5;" horiz-adv-x="662" 
d="M491 364q2 21 3 40.5t1 38.5q0 123 -45 167q-29 30 -78 30q-37 0 -68 -19.5t-56.5 -52.5t-46 -76t-35.5 -91q-67 -18 -106.5 -54t-39.5 -86q0 -38 25.5 -67.5t80.5 -40.5q-1 -75 13.5 -117.5t35.5 -42.5q10 0 16.5 6.5t6.5 15.5q0 8 -6 14q-10 14 -16 44.5t-6 74.5
q36 -1 68 7.5t56 25t38 39.5t14 51q0 10 -6.5 16t-15.5 6q-21 0 -21 -22q0 -20 -11 -35.5t-29.5 -26t-42.5 -16t-49 -4.5q2 40 9.5 86.5t20.5 91.5q20 3 40.5 5t43.5 2q91 0 160 -33q-7 -72 -11 -123t-4 -77q0 -52 8.5 -84.5t26.5 -51.5q10 -11 24 -16t30 -5q20 0 40 8.5
t36.5 27t26.5 47.5t10 69q0 67 -35.5 127.5t-105.5 100.5zM474 141q0 15 1.5 36.5t3.5 45.5t4.5 48.5t4.5 46.5q45 -30 72.5 -77t27.5 -105q0 -47 -18 -79.5t-49 -32.5q-14 0 -23.5 9t-14.5 25t-7 37.5t-2 45.5zM372 599q28 0 46 -18q33 -33 33 -137q0 -29 -3 -59
q-76 31 -163 31q-18 0 -35 -1.5t-33 -3.5q13 39 29.5 73t36 59.5t42 40.5t47.5 15zM154 354q-11 -39 -18 -82.5t-9 -77.5q-35 10 -48.5 27t-13.5 40q0 33 27 56.5t62 36.5zM379 732q-15 0 -31 8t-16 29q0 9 6.5 19t10.5 12q6 4 10 8t4 10q0 9 -6.5 13t-16.5 4
q-7 0 -15.5 -5.5t-15.5 -15t-11.5 -21.5t-4.5 -25q0 -31 22.5 -52.5t63.5 -21.5q18 0 33.5 7t27.5 19t18.5 27.5t6.5 32.5q0 13 -5 24.5t-14 20.5t-21.5 14.5t-27.5 4.5q-9 0 -15.5 -4t-6.5 -14q0 -8 7 -13.5t16 -5.5q16 0 21.5 -11.5t5.5 -15.5q0 -20 -12 -34t-34 -14z" />
    <glyph glyph-name="AE" unicode="&#xc6;" horiz-adv-x="1077" 
d="M471 355q2 23 3 45t1 43q0 63 -10.5 103.5t-33.5 63.5q-30 30 -78 30q-30 0 -57 -13.5t-50 -37t-42 -55.5t-35 -69q-35 -3 -62.5 -14t-46.5 -26.5t-29 -34t-10 -37.5q0 -24 11.5 -41t26.5 -27.5t31 -16t25 -7.5q-5 -29 -7 -56.5t-2 -53.5q0 -75 14.5 -116.5t34.5 -41.5
q10 0 16.5 6.5t6.5 15.5q0 7 -5 14q-11 14 -17 45.5t-6 76.5q1 24 2.5 50.5t5.5 52.5q26 -5 49 -5h33q45 0 89.5 8.5t89.5 23.5q-4 -36 -6.5 -72t-2.5 -68q0 -106 35 -140q17 -17 39 -17q27 0 43 16.5t23.5 39.5t9.5 47t2 40q0 53 -14.5 101t-40.5 84q54 19 101 40.5
t79 40.5q2 -9 4.5 -18.5t6.5 -17.5q-38 -26 -62.5 -65.5t-24.5 -93.5q0 -44 17 -83t51 -67q-33 -54 -33 -113v-12q0 -7 2 -12.5t6.5 -9.5t12.5 -4q10 0 16.5 6t6.5 16l-1 15q1 22 7 47t19 44q47 -26 97 -34t84 -8q73 0 108 30t35 69q0 16 -7 33t-23.5 31t-43 22.5t-65.5 8.5
q-22 0 -49 -6t-54 -18t-51.5 -29.5t-40.5 -40.5q-50 44 -50 115q0 28 8 49t19 36t21.5 24.5t16.5 13.5q29 -36 70 -53t86 -17q20 0 37.5 6t30 15.5t20 22.5t7.5 28q0 13 -6 27t-19.5 26t-36.5 19.5t-57 7.5q-29 0 -59 -6t-57 -18q-6 18 -8 35q33 19 64.5 40t56 43t39 44
t14.5 43q0 27 -15.5 43t-47.5 16t-60 -18.5t-49 -48t-33.5 -66t-13.5 -73.5q-35 -20 -86.5 -45.5t-114.5 -47.5zM896 24q-46 0 -87.5 10t-69.5 27q34 41 79 58t82 17q49 0 71.5 -17t22.5 -37q0 -28 -26.5 -43t-71.5 -15zM925 323q0 -11 -13 -21t-36 -10q-11 0 -26.5 2
t-32 7.5t-33 15t-29.5 24.5q21 10 47 15.5t50 5.5q29 0 51 -8.5t22 -30.5zM839 602q11 0 14.5 -6t3.5 -14q0 -10 -9.5 -24t-26.5 -30t-40 -33.5t-51 -33.5q4 30 15 55.5t26 44.5t32.5 30t35.5 11zM486 27q-11 0 -21.5 26.5t-10.5 87.5q0 32 3 68.5t8 86.5q1 1 2 1
q25 -35 37.5 -78.5t12.5 -91.5q0 -12 -1 -29t-4 -33t-9 -27t-17 -11zM154 422q-11 -27 -19 -59t-13 -61q-8 2 -17.5 5.5t-18 9.5t-14.5 15t-6 22q0 22 21.5 41t66.5 27zM200 424q65 -1 122.5 -21t101.5 -59v-11t-1 -11q-47 -17 -94.5 -25t-88.5 -8q-18 0 -37.5 1t-37.5 4
q5 31 14.5 66t20.5 64zM431 443q0 -12 -0.5 -24.5t-1.5 -26.5q-45 32 -99.5 50.5t-113.5 21.5q12 28 27 52t32 42t36 28.5t39 10.5q25 0 40.5 -11.5t24.5 -32t12.5 -49t3.5 -61.5z" />
    <glyph glyph-name="Ccedilla" unicode="&#xc7;" horiz-adv-x="601" 
d="M264 -17q-8 -9 -17.5 -18t-9.5 -19q0 -14 7 -19t15 -10q13 -6 23.5 -13.5t10.5 -22.5q0 -17 -13.5 -26t-36.5 -9q-9 0 -15 2t-16 8q-7 4 -14 4q-5 0 -10.5 -5.5t-5.5 -11.5q0 -9 6 -16t15 -11t20 -6t21 -2q17 0 33 5t28.5 15t20 23t7.5 30q0 18 -6 30t-14.5 20
t-17.5 12.5t-16 7.5l34 35h6q63 0 108 16.5t73.5 37.5t42 40.5t13.5 25.5q0 10 -6.5 16.5t-14.5 6.5q-12 0 -19 -10q-29 -43 -79.5 -66.5t-117.5 -23.5q-57 0 -101 20t-74 55t-45.5 82t-15.5 101q0 53 15.5 102.5t45 90t71 68.5t94.5 38q-1 -6 -1.5 -12.5t-0.5 -13.5
q0 -49 15.5 -92t45.5 -72q22 -22 48 -34t52 -12q51 0 77.5 31t26.5 73q0 32 -13.5 63t-39 55.5t-62.5 40t-85 18.5q17 30 42 42t52 12q5 0 18 -2t17 -2q9 0 15.5 5t6.5 15q0 9 -6 14.5t-14.5 8.5t-18.5 3.5t-18 0.5q-47 0 -86 -25t-59 -73q-63 -6 -115 -36t-89 -76.5
t-57.5 -105.5t-20.5 -125q0 -58 15.5 -108.5t45 -89.5t72.5 -65t98 -34zM468 393q-18 0 -38 11t-37.5 32t-29 52t-11.5 72q0 16 3 30q41 -1 73 -13t53.5 -30.5t33 -43t11.5 -49.5q0 -7 -1.5 -17.5t-7.5 -20t-17.5 -16.5t-31.5 -7z" />
    <glyph glyph-name="Egrave" unicode="&#xc8;" horiz-adv-x="523" 
d="M302 177q-57 0 -102.5 -12t-80.5 -33q-6 16 -10 33.5t-4 36.5q0 83 56 135q25 -38 70 -61t105 -23q39 0 61.5 10t33.5 23.5t14 27.5t3 21q0 21 -11.5 38.5t-32 30t-49 19.5t-61.5 7q-30 0 -59.5 -7t-53.5 -20q-4 13 -4 31q0 32 13 64t42 55q32 -34 75 -52.5t80 -18.5
q35 0 56.5 18.5t21.5 47.5q0 34 -32 57.5t-92 23.5q-28 0 -52.5 -5.5t-44.5 -15.5q-5 11 -8.5 22.5t-3.5 24.5q0 10 -6.5 16.5t-14.5 6.5q-10 0 -16.5 -6.5t-6.5 -16.5q0 -35 19 -68q-36 -29 -55.5 -69.5t-19.5 -83.5q0 -29 10 -57q-38 -30 -60 -75.5t-22 -99.5
q0 -27 6 -50.5t16 -45.5q-23 -22 -38.5 -53.5t-15.5 -64.5q0 -9 6.5 -15.5t15.5 -6.5t15 6t7 15q2 23 10.5 43.5t24.5 36.5q41 -49 105.5 -71.5t133.5 -22.5q42 0 68.5 8.5t42.5 22t22 29.5t6 30q0 26 -15 47t-40 36t-58 23t-70 8zM440 63q0 -21 -24.5 -35.5t-69.5 -14.5
q-62 0 -118 21t-88 60q28 18 69.5 30t92.5 12q27 0 51.5 -5.5t44 -15.5t31 -23.5t11.5 -28.5zM404 334q0 -40 -69 -40q-48 0 -84 20t-56 48q7 6 18.5 11t25 8t27.5 5t27 2q48 0 79.5 -16.5t31.5 -37.5zM341 588q35 0 57.5 -11t22.5 -29q0 -13 -11 -19.5t-23 -6.5
q-27 0 -60.5 14.5t-57.5 37.5q13 6 33.5 10t38.5 4zM222 813q-10 0 -16.5 -7t-6.5 -15q0 -7 7 -12.5t36 -21.5q22 -12 44 -25.5t43 -32.5q5 -5 14 -5q10 0 16.5 6t6.5 11q0 11 -8 17q-23 20 -46.5 35t-46.5 28q-8 5 -16 9.5t-15 9.5q-3 1 -6.5 2t-5.5 1z" />
    <glyph glyph-name="Eacute" unicode="&#xc9;" horiz-adv-x="523" 
d="M302 177q-57 0 -102.5 -12t-80.5 -33q-6 16 -10 33.5t-4 36.5q0 83 56 135q25 -38 70 -61t105 -23q39 0 61.5 10t33.5 23.5t14 27.5t3 21q0 21 -11.5 38.5t-32 30t-49 19.5t-61.5 7q-30 0 -59.5 -7t-53.5 -20q-4 13 -4 31q0 32 13 64t42 55q32 -34 75 -52.5t80 -18.5
q35 0 56.5 18.5t21.5 47.5q0 34 -32 57.5t-92 23.5q-28 0 -52.5 -5.5t-44.5 -15.5q-5 11 -8.5 22.5t-3.5 24.5q0 10 -6.5 16.5t-14.5 6.5q-10 0 -16.5 -6.5t-6.5 -16.5q0 -35 19 -68q-36 -29 -55.5 -69.5t-19.5 -83.5q0 -29 10 -57q-38 -30 -60 -75.5t-22 -99.5
q0 -27 6 -50.5t16 -45.5q-23 -22 -38.5 -53.5t-15.5 -64.5q0 -9 6.5 -15.5t15.5 -6.5t15 6t7 15q2 23 10.5 43.5t24.5 36.5q41 -49 105.5 -71.5t133.5 -22.5q42 0 68.5 8.5t42.5 22t22 29.5t6 30q0 26 -15 47t-40 36t-58 23t-70 8zM440 63q0 -21 -24.5 -35.5t-69.5 -14.5
q-62 0 -118 21t-88 60q28 18 69.5 30t92.5 12q27 0 51.5 -5.5t44 -15.5t31 -23.5t11.5 -28.5zM404 334q0 -40 -69 -40q-48 0 -84 20t-56 48q7 6 18.5 11t25 8t27.5 5t27 2q48 0 79.5 -16.5t31.5 -37.5zM341 588q35 0 57.5 -11t22.5 -29q0 -13 -11 -19.5t-23 -6.5
q-27 0 -60.5 14.5t-57.5 37.5q13 6 33.5 10t38.5 4zM444 808q-21 -19 -43 -32.5t-44 -25.5q-14 -8 -22.5 -13.5t-13 -9t-6 -7.5t-1.5 -9t6.5 -11t16.5 -6q2 0 5.5 1t6.5 2q7 5 15 9.5t16 9.5q23 13 46.5 28t46.5 35q8 6 8 17q0 5 -6.5 11t-16.5 6q-9 0 -14 -5z" />
    <glyph glyph-name="Ecircumflex" unicode="&#xca;" horiz-adv-x="523" 
d="M302 177q-57 0 -102.5 -12t-80.5 -33q-6 16 -10 33.5t-4 36.5q0 83 56 135q25 -38 70 -61t105 -23q39 0 61.5 10t33.5 23.5t14 27.5t3 21q0 21 -11.5 38.5t-32 30t-49 19.5t-61.5 7q-30 0 -59.5 -7t-53.5 -20q-4 13 -4 31q0 32 13 64t42 55q32 -34 75 -52.5t80 -18.5
q35 0 56.5 18.5t21.5 47.5q0 34 -32 57.5t-92 23.5q-28 0 -52.5 -5.5t-44.5 -15.5q-5 11 -8.5 22.5t-3.5 24.5q0 10 -6.5 16.5t-14.5 6.5q-10 0 -16.5 -6.5t-6.5 -16.5q0 -35 19 -68q-36 -29 -55.5 -69.5t-19.5 -83.5q0 -29 10 -57q-38 -30 -60 -75.5t-22 -99.5
q0 -27 6 -50.5t16 -45.5q-23 -22 -38.5 -53.5t-15.5 -64.5q0 -9 6.5 -15.5t15.5 -6.5t15 6t7 15q2 23 10.5 43.5t24.5 36.5q41 -49 105.5 -71.5t133.5 -22.5q42 0 68.5 8.5t42.5 22t22 29.5t6 30q0 26 -15 47t-40 36t-58 23t-70 8zM440 63q0 -21 -24.5 -35.5t-69.5 -14.5
q-62 0 -118 21t-88 60q28 18 69.5 30t92.5 12q27 0 51.5 -5.5t44 -15.5t31 -23.5t11.5 -28.5zM404 334q0 -40 -69 -40q-48 0 -84 20t-56 48q7 6 18.5 11t25 8t27.5 5t27 2q48 0 79.5 -16.5t31.5 -37.5zM341 588q35 0 57.5 -11t22.5 -29q0 -13 -11 -19.5t-23 -6.5
q-27 0 -60.5 14.5t-57.5 37.5q13 6 33.5 10t38.5 4zM335 808q-4 0 -18 -7t-31 -16.5t-33.5 -19t-24.5 -15.5q-10 -7 -10 -18q0 -5 6.5 -11t16.5 -6q3 0 6.5 0.5t5.5 2.5q17 11 37.5 24t42.5 24q6 -5 17 -15t24 -20t24.5 -17.5t17.5 -7.5q10 0 16.5 6t6.5 11q0 13 -11 19
q-21 14 -39.5 29t-38.5 31q-6 6 -15 6z" />
    <glyph glyph-name="Edieresis" unicode="&#xcb;" horiz-adv-x="523" 
d="M302 177q-57 0 -102.5 -12t-80.5 -33q-6 16 -10 33.5t-4 36.5q0 83 56 135q25 -38 70 -61t105 -23q39 0 61.5 10t33.5 23.5t14 27.5t3 21q0 21 -11.5 38.5t-32 30t-49 19.5t-61.5 7q-30 0 -59.5 -7t-53.5 -20q-4 13 -4 31q0 32 13 64t42 55q32 -34 75 -52.5t80 -18.5
q35 0 56.5 18.5t21.5 47.5q0 34 -32 57.5t-92 23.5q-28 0 -52.5 -5.5t-44.5 -15.5q-5 11 -8.5 22.5t-3.5 24.5q0 10 -6.5 16.5t-14.5 6.5q-10 0 -16.5 -6.5t-6.5 -16.5q0 -35 19 -68q-36 -29 -55.5 -69.5t-19.5 -83.5q0 -29 10 -57q-38 -30 -60 -75.5t-22 -99.5
q0 -27 6 -50.5t16 -45.5q-23 -22 -38.5 -53.5t-15.5 -64.5q0 -9 6.5 -15.5t15.5 -6.5t15 6t7 15q2 23 10.5 43.5t24.5 36.5q41 -49 105.5 -71.5t133.5 -22.5q42 0 68.5 8.5t42.5 22t22 29.5t6 30q0 26 -15 47t-40 36t-58 23t-70 8zM440 63q0 -21 -24.5 -35.5t-69.5 -14.5
q-62 0 -118 21t-88 60q28 18 69.5 30t92.5 12q27 0 51.5 -5.5t44 -15.5t31 -23.5t11.5 -28.5zM404 334q0 -40 -69 -40q-48 0 -84 20t-56 48q7 6 18.5 11t25 8t27.5 5t27 2q48 0 79.5 -16.5t31.5 -37.5zM341 588q35 0 57.5 -11t22.5 -29q0 -13 -11 -19.5t-23 -6.5
q-27 0 -60.5 14.5t-57.5 37.5q13 6 33.5 10t38.5 4zM395 769v16q0 9 -2.5 15.5t-7.5 11t-14 4.5t-15.5 -6.5t-6.5 -15.5q0 -2 1 -8t1 -8q0 -20 3 -36t21 -16q9 0 15.5 6.5t6.5 15.5q0 2 -1 7t-1 7v7zM287 769v16q0 9 -2.5 15.5t-7.5 11t-14 4.5t-15.5 -6.5t-6.5 -15.5
q0 -2 1 -8t1 -8q0 -20 3 -36t21 -16q9 0 15.5 6.5t6.5 15.5q0 2 -1 7t-1 7v7z" />
    <glyph glyph-name="Igrave" unicode="&#xcc;" horiz-adv-x="441" 
d="M203 104q14 3 26.5 5t26.5 2q49 0 79.5 -14.5t30.5 -38.5q0 -22 -21.5 -32t-50.5 -10q-40 0 -64 25t-27 63zM234 523q-14 -2 -27 -3t-23 -1q-37 0 -62 11.5t-25 31.5q0 15 15.5 23.5t38.5 8.5q21 0 35.5 -6.5t24 -16.5t15 -23t8.5 -25zM184 478q28 0 56 5
q2 -45 -10.5 -86.5t-29.5 -87.5q-7 -20 -14.5 -42t-14 -45t-10.5 -45.5t-4 -41.5q-48 -13 -78.5 -35.5t-48 -45.5t-24 -43t-6.5 -27q0 -9 5.5 -15.5t15.5 -6.5q8 0 13.5 5t7.5 13q7 40 41 70.5t75 41.5q6 -53 42.5 -85t92.5 -32q57 0 87.5 23.5t30.5 58.5q0 18 -9 35.5
t-28 30.5t-48.5 21t-69.5 8q-13 0 -26.5 -2t-26.5 -4q2 34 15 74t25 73q17 48 31 95.5t10 103.5q39 9 64 24.5t39.5 33t20.5 35t7 32.5q1 10 -5 17.5t-17 7.5q-8 0 -14.5 -6t-7.5 -14q-4 -37 -30.5 -58t-62.5 -30q-7 27 -20 46.5t-30 31.5t-37 17.5t-40 5.5
q-42 0 -70.5 -20.5t-28.5 -52.5q0 -16 7.5 -31t23 -27t40.5 -19t61 -7zM146 813q-10 0 -16.5 -7t-6.5 -15q0 -7 7 -12.5t36 -21.5q22 -12 44 -25.5t43 -32.5q5 -5 14 -5q10 0 16.5 6t6.5 11q0 11 -8 17q-23 20 -46.5 35t-46.5 28q-8 5 -16 9.5t-15 9.5q-3 1 -6.5 2t-5.5 1z
" />
    <glyph glyph-name="Iacute" unicode="&#xcd;" horiz-adv-x="441" 
d="M203 104q14 3 26.5 5t26.5 2q49 0 79.5 -14.5t30.5 -38.5q0 -22 -21.5 -32t-50.5 -10q-40 0 -64 25t-27 63zM234 523q-14 -2 -27 -3t-23 -1q-37 0 -62 11.5t-25 31.5q0 15 15.5 23.5t38.5 8.5q21 0 35.5 -6.5t24 -16.5t15 -23t8.5 -25zM184 478q28 0 56 5
q2 -45 -10.5 -86.5t-29.5 -87.5q-7 -20 -14.5 -42t-14 -45t-10.5 -45.5t-4 -41.5q-48 -13 -78.5 -35.5t-48 -45.5t-24 -43t-6.5 -27q0 -9 5.5 -15.5t15.5 -6.5q8 0 13.5 5t7.5 13q7 40 41 70.5t75 41.5q6 -53 42.5 -85t92.5 -32q57 0 87.5 23.5t30.5 58.5q0 18 -9 35.5
t-28 30.5t-48.5 21t-69.5 8q-13 0 -26.5 -2t-26.5 -4q2 34 15 74t25 73q17 48 31 95.5t10 103.5q39 9 64 24.5t39.5 33t20.5 35t7 32.5q1 10 -5 17.5t-17 7.5q-8 0 -14.5 -6t-7.5 -14q-4 -37 -30.5 -58t-62.5 -30q-7 27 -20 46.5t-30 31.5t-37 17.5t-40 5.5
q-42 0 -70.5 -20.5t-28.5 -52.5q0 -16 7.5 -31t23 -27t40.5 -19t61 -7zM363 808q-21 -19 -43 -32.5t-44 -25.5q-14 -8 -22.5 -13.5t-13 -9t-6 -7.5t-1.5 -9t6.5 -11t16.5 -6q2 0 5.5 1t6.5 2q7 5 15 9.5t16 9.5q23 13 46.5 28t46.5 35q8 6 8 17q0 5 -6.5 11t-16.5 6
q-9 0 -14 -5z" />
    <glyph glyph-name="Icircumflex" unicode="&#xce;" horiz-adv-x="441" 
d="M203 104q14 3 26.5 5t26.5 2q49 0 79.5 -14.5t30.5 -38.5q0 -22 -21.5 -32t-50.5 -10q-40 0 -64 25t-27 63zM234 523q-14 -2 -27 -3t-23 -1q-37 0 -62 11.5t-25 31.5q0 15 15.5 23.5t38.5 8.5q21 0 35.5 -6.5t24 -16.5t15 -23t8.5 -25zM184 478q28 0 56 5
q2 -45 -10.5 -86.5t-29.5 -87.5q-7 -20 -14.5 -42t-14 -45t-10.5 -45.5t-4 -41.5q-48 -13 -78.5 -35.5t-48 -45.5t-24 -43t-6.5 -27q0 -9 5.5 -15.5t15.5 -6.5q8 0 13.5 5t7.5 13q7 40 41 70.5t75 41.5q6 -53 42.5 -85t92.5 -32q57 0 87.5 23.5t30.5 58.5q0 18 -9 35.5
t-28 30.5t-48.5 21t-69.5 8q-13 0 -26.5 -2t-26.5 -4q2 34 15 74t25 73q17 48 31 95.5t10 103.5q39 9 64 24.5t39.5 33t20.5 35t7 32.5q1 10 -5 17.5t-17 7.5q-8 0 -14.5 -6t-7.5 -14q-4 -37 -30.5 -58t-62.5 -30q-7 27 -20 46.5t-30 31.5t-37 17.5t-40 5.5
q-42 0 -70.5 -20.5t-28.5 -52.5q0 -16 7.5 -31t23 -27t40.5 -19t61 -7zM254 808q-4 0 -18 -7t-31 -16.5t-33.5 -19t-24.5 -15.5q-10 -7 -10 -18q0 -5 6.5 -11t16.5 -6q3 0 6.5 0.5t5.5 2.5q17 11 37.5 24t42.5 24q6 -5 17 -15t24 -20t24.5 -17.5t17.5 -7.5q10 0 16.5 6
t6.5 11q0 13 -11 19q-21 14 -39.5 29t-38.5 31q-6 6 -15 6z" />
    <glyph glyph-name="Idieresis" unicode="&#xcf;" horiz-adv-x="441" 
d="M203 104q14 3 26.5 5t26.5 2q49 0 79.5 -14.5t30.5 -38.5q0 -22 -21.5 -32t-50.5 -10q-40 0 -64 25t-27 63zM234 523q-14 -2 -27 -3t-23 -1q-37 0 -62 11.5t-25 31.5q0 15 15.5 23.5t38.5 8.5q21 0 35.5 -6.5t24 -16.5t15 -23t8.5 -25zM184 478q28 0 56 5
q2 -45 -10.5 -86.5t-29.5 -87.5q-7 -20 -14.5 -42t-14 -45t-10.5 -45.5t-4 -41.5q-48 -13 -78.5 -35.5t-48 -45.5t-24 -43t-6.5 -27q0 -9 5.5 -15.5t15.5 -6.5q8 0 13.5 5t7.5 13q7 40 41 70.5t75 41.5q6 -53 42.5 -85t92.5 -32q57 0 87.5 23.5t30.5 58.5q0 18 -9 35.5
t-28 30.5t-48.5 21t-69.5 8q-13 0 -26.5 -2t-26.5 -4q2 34 15 74t25 73q17 48 31 95.5t10 103.5q39 9 64 24.5t39.5 33t20.5 35t7 32.5q1 10 -5 17.5t-17 7.5q-8 0 -14.5 -6t-7.5 -14q-4 -37 -30.5 -58t-62.5 -30q-7 27 -20 46.5t-30 31.5t-37 17.5t-40 5.5
q-42 0 -70.5 -20.5t-28.5 -52.5q0 -16 7.5 -31t23 -27t40.5 -19t61 -7zM329 769v16q0 9 -2.5 15.5t-7.5 11t-14 4.5t-15.5 -6.5t-6.5 -15.5q0 -2 1 -8t1 -8q0 -20 3 -36t21 -16q9 0 15.5 6.5t6.5 15.5q0 2 -1 7t-1 7v7zM221 769v16q0 9 -2.5 15.5t-7.5 11t-14 4.5
t-15.5 -6.5t-6.5 -15.5q0 -2 1 -8t1 -8q0 -20 3 -36t21 -16q9 0 15.5 6.5t6.5 15.5q0 2 -1 7t-1 7v7z" />
    <glyph glyph-name="Eth" unicode="&#xd0;" horiz-adv-x="602" 
d="M273 -14q47 0 88.5 16.5t76 44.5t62 66t46.5 80t29 86.5t10 86.5q0 51 -15.5 99t-51 86t-93.5 61t-144 23q-48 0 -93.5 -12.5t-80.5 -35.5t-56 -54.5t-21 -68.5q0 -26 10.5 -47t27.5 -36t39 -24t45 -10q-3 -18 -5 -41.5t-3 -37.5q-25 -5 -42.5 -7.5t-35.5 -2.5
q-9 0 -14.5 -3t-7.5 -7t-2.5 -7t-0.5 -4q0 -5 4 -12.5t21 -7.5q19 0 36 2.5t40 6.5q0 -43 3 -86t16.5 -77t40 -55.5t71.5 -21.5zM274 27q-26 0 -43.5 14.5t-27.5 41.5t-14 65.5t-3 86.5q21 4 45 9t47 9t43 7t32 3q9 0 15 5t6 14q0 10 -6 16t-15 6q-26 0 -65.5 -7.5
t-98.5 -18.5q0 8 2 27.5t5 37.5q45 1 76 13.5t50 30.5t27.5 37.5t8.5 34.5q0 9 -6.5 15.5t-15.5 6.5t-15.5 -6t-7.5 -14q-1 -13 -8.5 -26t-21.5 -24t-34.5 -18.5t-46.5 -8.5q2 13 5 29.5t6.5 33t6.5 31.5l5 25q1 3 1 10t-6 13t-15 6q-7 0 -13 -4t-8 -12q-3 -11 -7 -27.5
t-7.5 -35t-7 -36t-4.5 -29.5q-12 1 -26 5t-27 13t-21.5 23t-8.5 35q0 26 16 49.5t44 41.5t65 28.5t79 10.5q84 0 135.5 -23.5t79.5 -58t37 -74t9 -72.5q0 -35 -8.5 -73.5t-24.5 -76.5t-39.5 -72t-53 -60t-65 -41.5t-75.5 -15.5z" />
    <glyph glyph-name="Ntilde" unicode="&#xd1;" horiz-adv-x="710" 
d="M297 329q0 -68 -8.5 -124t-23 -96.5t-32 -63t-35.5 -22.5q-17 0 -25 14t-8 30q0 30 9.5 70.5t27 84.5t41 88t52.5 82q1 -14 1.5 -31.5t0.5 -31.5zM633 397q0 -41 -8 -88t-23.5 -96t-37.5 -97.5t-50 -93.5q-3 -6 -3 -12q0 -10 6.5 -16.5t15.5 -6.5q12 0 19 11
q59 96 92.5 200.5t33.5 198.5q0 65 -13 107t-33.5 66t-46.5 33.5t-53 9.5q-54 0 -105.5 -34t-99.5 -86q-5 25 -10.5 49.5t-13.5 45.5q38 27 59.5 65t21.5 81q0 13 -3.5 30.5t-9.5 33t-14.5 26.5t-18.5 11t-16 -6.5t-6 -16.5q0 -8 3 -11q20 -31 20 -67q0 -30 -14 -57.5
t-38 -47.5q-31 65 -77.5 99t-100.5 34q-47 0 -78 -26.5t-31 -66.5q0 -26 13.5 -48t37.5 -38t56.5 -25t70.5 -9q24 0 49 6t36 11q9 -26 15 -52t10 -64q-37 -42 -67.5 -93.5t-53 -103.5t-35 -100.5t-12.5 -85.5q0 -39 21.5 -62.5t53.5 -23.5q35 0 62 28.5t46 76.5t28.5 111
t9.5 132q0 59 -6 110q46 57 96.5 95t99.5 38q52 0 77 -47.5t25 -127.5zM46 669q0 27 17.5 39.5t45.5 12.5q39 0 76 -28.5t66 -88.5q-14 -5 -34 -9.5t-39 -4.5q-28 0 -52 6.5t-42 17t-28 25t-10 30.5zM489 782q-18 0 -33 -6.5t-25 -15.5t-15.5 -18t-5.5 -15q0 -9 6 -15.5
t12 -6.5q12 0 18 11q9 17 20.5 23t22.5 6q10 0 19.5 -3.5t17.5 -8.5q17 -12 34 -17t33 -5q17 0 29.5 5.5t21 13t13 16t4.5 13.5q0 14 -5 18t-12 4q-13 0 -18 -12q-6 -13 -14 -17t-19 -4t-23.5 6.5t-23.5 12.5q-26 15 -57 15z" />
    <glyph glyph-name="Ograve" unicode="&#xd2;" horiz-adv-x="660" 
d="M621 640q4 -11 5.5 -22.5t1.5 -22.5q0 -25 -9 -51t-32 -49q-46 76 -111.5 110t-135.5 34q-63 0 -101 -28t-38 -70q0 -33 19 -59t51 -45t74 -29t87 -10q36 0 75 9t61 23q8 -25 11 -48.5t3 -52.5q0 -60 -20 -113.5t-55 -93.5t-82 -63t-102 -23q-52 0 -95.5 17.5t-75 50.5
t-49 81t-17.5 108q0 30 5 59t13.5 55.5t20.5 47.5t27 35q6 6 6 15q0 10 -6.5 16t-15.5 6t-16 -6q-19 -18 -33.5 -44.5t-24.5 -57t-15.5 -63.5t-5.5 -63q0 -70 21 -125t58 -93.5t88.5 -59t112.5 -20.5q64 0 119.5 25t97 69.5t65.5 106t24 133.5q0 35 -5 67t-16 59
q31 26 48.5 63t17.5 78q0 7 -0.5 20.5t-4 26t-10.5 20t-19 4.5q-17 -5 -17 -22v-5zM552 469q-19 -13 -52 -21.5t-64 -8.5q-39 0 -73.5 8t-61 22t-41.5 31.5t-15 37.5q0 24 22 42t73 18q59 0 116.5 -32t95.5 -97zM276 813q-10 0 -16.5 -7t-6.5 -15q0 -7 7 -12.5t36 -21.5
q22 -12 44 -25.5t43 -32.5q5 -5 14 -5q10 0 16.5 6t6.5 11q0 11 -8 17q-23 20 -46.5 35t-46.5 28q-8 5 -16 9.5t-15 9.5q-3 1 -6.5 2t-5.5 1z" />
    <glyph glyph-name="Oacute" unicode="&#xd3;" horiz-adv-x="660" 
d="M621 640q4 -11 5.5 -22.5t1.5 -22.5q0 -25 -9 -51t-32 -49q-46 76 -111.5 110t-135.5 34q-63 0 -101 -28t-38 -70q0 -33 19 -59t51 -45t74 -29t87 -10q36 0 75 9t61 23q8 -25 11 -48.5t3 -52.5q0 -60 -20 -113.5t-55 -93.5t-82 -63t-102 -23q-52 0 -95.5 17.5t-75 50.5
t-49 81t-17.5 108q0 30 5 59t13.5 55.5t20.5 47.5t27 35q6 6 6 15q0 10 -6.5 16t-15.5 6t-16 -6q-19 -18 -33.5 -44.5t-24.5 -57t-15.5 -63.5t-5.5 -63q0 -70 21 -125t58 -93.5t88.5 -59t112.5 -20.5q64 0 119.5 25t97 69.5t65.5 106t24 133.5q0 35 -5 67t-16 59
q31 26 48.5 63t17.5 78q0 7 -0.5 20.5t-4 26t-10.5 20t-19 4.5q-17 -5 -17 -22v-5zM552 469q-19 -13 -52 -21.5t-64 -8.5q-39 0 -73.5 8t-61 22t-41.5 31.5t-15 37.5q0 24 22 42t73 18q59 0 116.5 -32t95.5 -97zM483 808q-21 -19 -43 -32.5t-44 -25.5q-14 -8 -22.5 -13.5
t-13 -9t-6 -7.5t-1.5 -9t6.5 -11t16.5 -6q2 0 5.5 1t6.5 2q7 5 15 9.5t16 9.5q23 13 46.5 28t46.5 35q8 6 8 17q0 5 -6.5 11t-16.5 6q-9 0 -14 -5z" />
    <glyph glyph-name="Ocircumflex" unicode="&#xd4;" horiz-adv-x="660" 
d="M621 640q4 -11 5.5 -22.5t1.5 -22.5q0 -25 -9 -51t-32 -49q-46 76 -111.5 110t-135.5 34q-63 0 -101 -28t-38 -70q0 -33 19 -59t51 -45t74 -29t87 -10q36 0 75 9t61 23q8 -25 11 -48.5t3 -52.5q0 -60 -20 -113.5t-55 -93.5t-82 -63t-102 -23q-52 0 -95.5 17.5t-75 50.5
t-49 81t-17.5 108q0 30 5 59t13.5 55.5t20.5 47.5t27 35q6 6 6 15q0 10 -6.5 16t-15.5 6t-16 -6q-19 -18 -33.5 -44.5t-24.5 -57t-15.5 -63.5t-5.5 -63q0 -70 21 -125t58 -93.5t88.5 -59t112.5 -20.5q64 0 119.5 25t97 69.5t65.5 106t24 133.5q0 35 -5 67t-16 59
q31 26 48.5 63t17.5 78q0 7 -0.5 20.5t-4 26t-10.5 20t-19 4.5q-17 -5 -17 -22v-5zM552 469q-19 -13 -52 -21.5t-64 -8.5q-39 0 -73.5 8t-61 22t-41.5 31.5t-15 37.5q0 24 22 42t73 18q59 0 116.5 -32t95.5 -97zM383 808q-4 0 -18 -7t-31 -16.5t-33.5 -19t-24.5 -15.5
q-10 -7 -10 -18q0 -5 6.5 -11t16.5 -6q3 0 6.5 0.5t5.5 2.5q17 11 37.5 24t42.5 24q6 -5 17 -15t24 -20t24.5 -17.5t17.5 -7.5q10 0 16.5 6t6.5 11q0 13 -11 19q-21 14 -39.5 29t-38.5 31q-6 6 -15 6z" />
    <glyph glyph-name="Otilde" unicode="&#xd5;" horiz-adv-x="660" 
d="M621 640q4 -11 5.5 -22.5t1.5 -22.5q0 -25 -9 -51t-32 -49q-46 76 -111.5 110t-135.5 34q-63 0 -101 -28t-38 -70q0 -33 19 -59t51 -45t74 -29t87 -10q36 0 75 9t61 23q8 -25 11 -48.5t3 -52.5q0 -60 -20 -113.5t-55 -93.5t-82 -63t-102 -23q-52 0 -95.5 17.5t-75 50.5
t-49 81t-17.5 108q0 30 5 59t13.5 55.5t20.5 47.5t27 35q6 6 6 15q0 10 -6.5 16t-15.5 6t-16 -6q-19 -18 -33.5 -44.5t-24.5 -57t-15.5 -63.5t-5.5 -63q0 -70 21 -125t58 -93.5t88.5 -59t112.5 -20.5q64 0 119.5 25t97 69.5t65.5 106t24 133.5q0 35 -5 67t-16 59
q31 26 48.5 63t17.5 78q0 7 -0.5 20.5t-4 26t-10.5 20t-19 4.5q-17 -5 -17 -22v-5zM552 469q-19 -13 -52 -21.5t-64 -8.5q-39 0 -73.5 8t-61 22t-41.5 31.5t-15 37.5q0 24 22 42t73 18q59 0 116.5 -32t95.5 -97zM329 782q-18 0 -33 -6.5t-25 -15.5t-15.5 -18t-5.5 -15
q0 -9 6 -15.5t12 -6.5q12 0 18 11q9 17 20.5 23t22.5 6q10 0 19.5 -3.5t17.5 -8.5q17 -12 34 -17t33 -5q17 0 29.5 5.5t21 13t13 16t4.5 13.5q0 14 -5 18t-12 4q-13 0 -18 -12q-6 -13 -14 -17t-19 -4t-23.5 6.5t-23.5 12.5q-26 15 -57 15z" />
    <glyph glyph-name="Odieresis" unicode="&#xd6;" horiz-adv-x="660" 
d="M621 640q4 -11 5.5 -22.5t1.5 -22.5q0 -25 -9 -51t-32 -49q-46 76 -111.5 110t-135.5 34q-63 0 -101 -28t-38 -70q0 -33 19 -59t51 -45t74 -29t87 -10q36 0 75 9t61 23q8 -25 11 -48.5t3 -52.5q0 -60 -20 -113.5t-55 -93.5t-82 -63t-102 -23q-52 0 -95.5 17.5t-75 50.5
t-49 81t-17.5 108q0 30 5 59t13.5 55.5t20.5 47.5t27 35q6 6 6 15q0 10 -6.5 16t-15.5 6t-16 -6q-19 -18 -33.5 -44.5t-24.5 -57t-15.5 -63.5t-5.5 -63q0 -70 21 -125t58 -93.5t88.5 -59t112.5 -20.5q64 0 119.5 25t97 69.5t65.5 106t24 133.5q0 35 -5 67t-16 59
q31 26 48.5 63t17.5 78q0 7 -0.5 20.5t-4 26t-10.5 20t-19 4.5q-17 -5 -17 -22v-5zM552 469q-19 -13 -52 -21.5t-64 -8.5q-39 0 -73.5 8t-61 22t-41.5 31.5t-15 37.5q0 24 22 42t73 18q59 0 116.5 -32t95.5 -97zM443 769v16q0 9 -2.5 15.5t-7.5 11t-14 4.5t-15.5 -6.5
t-6.5 -15.5q0 -2 1 -8t1 -8q0 -20 3 -36t21 -16q9 0 15.5 6.5t6.5 15.5q0 2 -1 7t-1 7v7zM335 769v16q0 9 -2.5 15.5t-7.5 11t-14 4.5t-15.5 -6.5t-6.5 -15.5q0 -2 1 -8t1 -8q0 -20 3 -36t21 -16q9 0 15.5 6.5t6.5 15.5q0 2 -1 7t-1 7v7z" />
    <glyph glyph-name="multiply" unicode="&#xd7;" 
d="M186 202l-137 -137l29 -30l137 138l139 -138l29 30l-138 137l138 138l-29 29l-139 -138l-137 138l-29 -29z" />
    <glyph glyph-name="Oslash" unicode="&#xd8;" horiz-adv-x="660" 
d="M501 545q-27 0 -47 -9t-37 -27t-33.5 -44.5t-36.5 -60.5t-44.5 -74.5t-51 -81.5t-51.5 -79t-44 -66q-33 35 -52 83t-18 114q1 61 21.5 114t56 92t82 61t98.5 22q19 0 30.5 -2.5t21.5 -2.5q8 0 14.5 5t6.5 15q0 18 -18 21q-14 2 -28 3.5t-28 1.5q-61 0 -115.5 -25.5
t-96 -70t-66 -105t-24.5 -130.5q0 -77 25.5 -136.5t63.5 -93.5q-36 -46 -69 -79q-6 -6 -6 -16q0 -9 6 -14t15 -5q7 0 15 6q30 29 69 80q31 -21 74 -33.5t93 -12.5q61 0 115.5 26t95.5 71.5t65 107.5t24 134q0 50 -10.5 89.5t-28 66.5t-40.5 41t-47 14zM327 36q-42 0 -76.5 9
t-63.5 32q21 30 47 68.5t53 80t52.5 82.5t45.5 74q20 34 35 57.5t27.5 38t25.5 20.5t29 6q12 0 26 -10.5t26 -31.5t20 -53t8 -75q0 -60 -19.5 -114.5t-54 -95t-81 -64.5t-100.5 -24z" />
    <glyph glyph-name="Ugrave" unicode="&#xd9;" horiz-adv-x="725" 
d="M84 562q0 17 12 26.5t28 9.5q25 0 45.5 -24t30.5 -65q-5 -1 -12.5 -2t-14.5 -1q-16 0 -32 4t-28.5 11t-20.5 17.5t-8 23.5zM358 27q-49 0 -81 42.5t-32 140.5q0 14 1 47.5t2 70t1.5 69.5t0.5 45q0 10 -0.5 19.5t-1.5 18.5q48 21 78.5 65t30.5 99q0 13 -2 30t-7 32
t-13 25.5t-19 10.5q-22 0 -22 -22q0 -7 5 -14q6 -8 9.5 -25.5t3.5 -36.5q0 -39 -19 -71.5t-52 -49.5q-13 59 -46 88.5t-70 29.5q-36 0 -60.5 -23t-24.5 -56q0 -23 11 -41.5t29.5 -31t42.5 -19t50 -6.5q16 0 31 3q1 -6 1 -12v-13q0 -14 -0.5 -47.5t-1 -70t-1.5 -69.5t-1 -45
q0 -104 39 -164t118 -60q46 0 89 24.5t80 65.5q10 -32 23.5 -53.5t30.5 -34.5t36 -18.5t40 -5.5q13 0 26 4t13 20q0 10 -6.5 13.5t-15.5 3.5q-2 0 -10.5 -0.5t-10.5 -0.5q-35 0 -56 27.5t-37 84.5q33 45 59.5 97.5t45.5 106t29.5 104t10.5 90.5q0 35 -7.5 57t-18.5 34
t-23.5 16t-22.5 4q-34 0 -59.5 -32t-42 -82.5t-24.5 -113t-8 -123.5q0 -33 3.5 -72t11.5 -77q-35 -44 -74.5 -71t-81.5 -27zM660 514q0 -33 -7 -74t-21.5 -86.5t-35.5 -93t-48 -93.5q-3 20 -4 47t-1 50q0 73 8.5 132t22 100.5t29.5 64t30 22.5q16 0 21.5 -20t5.5 -49z
M398 813q-10 0 -16.5 -7t-6.5 -15q0 -7 7 -12.5t36 -21.5q22 -12 44 -25.5t43 -32.5q5 -5 14 -5q10 0 16.5 6t6.5 11q0 11 -8 17q-23 20 -46.5 35t-46.5 28q-8 5 -16 9.5t-15 9.5q-3 1 -6.5 2t-5.5 1z" />
    <glyph glyph-name="Uacute" unicode="&#xda;" horiz-adv-x="725" 
d="M84 562q0 17 12 26.5t28 9.5q25 0 45.5 -24t30.5 -65q-5 -1 -12.5 -2t-14.5 -1q-16 0 -32 4t-28.5 11t-20.5 17.5t-8 23.5zM358 27q-49 0 -81 42.5t-32 140.5q0 14 1 47.5t2 70t1.5 69.5t0.5 45q0 10 -0.5 19.5t-1.5 18.5q48 21 78.5 65t30.5 99q0 13 -2 30t-7 32
t-13 25.5t-19 10.5q-22 0 -22 -22q0 -7 5 -14q6 -8 9.5 -25.5t3.5 -36.5q0 -39 -19 -71.5t-52 -49.5q-13 59 -46 88.5t-70 29.5q-36 0 -60.5 -23t-24.5 -56q0 -23 11 -41.5t29.5 -31t42.5 -19t50 -6.5q16 0 31 3q1 -6 1 -12v-13q0 -14 -0.5 -47.5t-1 -70t-1.5 -69.5t-1 -45
q0 -104 39 -164t118 -60q46 0 89 24.5t80 65.5q10 -32 23.5 -53.5t30.5 -34.5t36 -18.5t40 -5.5q13 0 26 4t13 20q0 10 -6.5 13.5t-15.5 3.5q-2 0 -10.5 -0.5t-10.5 -0.5q-35 0 -56 27.5t-37 84.5q33 45 59.5 97.5t45.5 106t29.5 104t10.5 90.5q0 35 -7.5 57t-18.5 34
t-23.5 16t-22.5 4q-34 0 -59.5 -32t-42 -82.5t-24.5 -113t-8 -123.5q0 -33 3.5 -72t11.5 -77q-35 -44 -74.5 -71t-81.5 -27zM660 514q0 -33 -7 -74t-21.5 -86.5t-35.5 -93t-48 -93.5q-3 20 -4 47t-1 50q0 73 8.5 132t22 100.5t29.5 64t30 22.5q16 0 21.5 -20t5.5 -49z
M575 808q-21 -19 -43 -32.5t-44 -25.5q-14 -8 -22.5 -13.5t-13 -9t-6 -7.5t-1.5 -9t6.5 -11t16.5 -6q2 0 5.5 1t6.5 2q7 5 15 9.5t16 9.5q23 13 46.5 28t46.5 35q8 6 8 17q0 5 -6.5 11t-16.5 6q-9 0 -14 -5z" />
    <glyph glyph-name="Ucircumflex" unicode="&#xdb;" horiz-adv-x="725" 
d="M84 562q0 17 12 26.5t28 9.5q25 0 45.5 -24t30.5 -65q-5 -1 -12.5 -2t-14.5 -1q-16 0 -32 4t-28.5 11t-20.5 17.5t-8 23.5zM358 27q-49 0 -81 42.5t-32 140.5q0 14 1 47.5t2 70t1.5 69.5t0.5 45q0 10 -0.5 19.5t-1.5 18.5q48 21 78.5 65t30.5 99q0 13 -2 30t-7 32
t-13 25.5t-19 10.5q-22 0 -22 -22q0 -7 5 -14q6 -8 9.5 -25.5t3.5 -36.5q0 -39 -19 -71.5t-52 -49.5q-13 59 -46 88.5t-70 29.5q-36 0 -60.5 -23t-24.5 -56q0 -23 11 -41.5t29.5 -31t42.5 -19t50 -6.5q16 0 31 3q1 -6 1 -12v-13q0 -14 -0.5 -47.5t-1 -70t-1.5 -69.5t-1 -45
q0 -104 39 -164t118 -60q46 0 89 24.5t80 65.5q10 -32 23.5 -53.5t30.5 -34.5t36 -18.5t40 -5.5q13 0 26 4t13 20q0 10 -6.5 13.5t-15.5 3.5q-2 0 -10.5 -0.5t-10.5 -0.5q-35 0 -56 27.5t-37 84.5q33 45 59.5 97.5t45.5 106t29.5 104t10.5 90.5q0 35 -7.5 57t-18.5 34
t-23.5 16t-22.5 4q-34 0 -59.5 -32t-42 -82.5t-24.5 -113t-8 -123.5q0 -33 3.5 -72t11.5 -77q-35 -44 -74.5 -71t-81.5 -27zM660 514q0 -33 -7 -74t-21.5 -86.5t-35.5 -93t-48 -93.5q-3 20 -4 47t-1 50q0 73 8.5 132t22 100.5t29.5 64t30 22.5q16 0 21.5 -20t5.5 -49z
M496 808q-4 0 -18 -7t-31 -16.5t-33.5 -19t-24.5 -15.5q-10 -7 -10 -18q0 -5 6.5 -11t16.5 -6q3 0 6.5 0.5t5.5 2.5q17 11 37.5 24t42.5 24q6 -5 17 -15t24 -20t24.5 -17.5t17.5 -7.5q10 0 16.5 6t6.5 11q0 13 -11 19q-21 14 -39.5 29t-38.5 31q-6 6 -15 6z" />
    <glyph glyph-name="Udieresis" unicode="&#xdc;" horiz-adv-x="725" 
d="M84 562q0 17 12 26.5t28 9.5q25 0 45.5 -24t30.5 -65q-5 -1 -12.5 -2t-14.5 -1q-16 0 -32 4t-28.5 11t-20.5 17.5t-8 23.5zM358 27q-49 0 -81 42.5t-32 140.5q0 14 1 47.5t2 70t1.5 69.5t0.5 45q0 10 -0.5 19.5t-1.5 18.5q48 21 78.5 65t30.5 99q0 13 -2 30t-7 32
t-13 25.5t-19 10.5q-22 0 -22 -22q0 -7 5 -14q6 -8 9.5 -25.5t3.5 -36.5q0 -39 -19 -71.5t-52 -49.5q-13 59 -46 88.5t-70 29.5q-36 0 -60.5 -23t-24.5 -56q0 -23 11 -41.5t29.5 -31t42.5 -19t50 -6.5q16 0 31 3q1 -6 1 -12v-13q0 -14 -0.5 -47.5t-1 -70t-1.5 -69.5t-1 -45
q0 -104 39 -164t118 -60q46 0 89 24.5t80 65.5q10 -32 23.5 -53.5t30.5 -34.5t36 -18.5t40 -5.5q13 0 26 4t13 20q0 10 -6.5 13.5t-15.5 3.5q-2 0 -10.5 -0.5t-10.5 -0.5q-35 0 -56 27.5t-37 84.5q33 45 59.5 97.5t45.5 106t29.5 104t10.5 90.5q0 35 -7.5 57t-18.5 34
t-23.5 16t-22.5 4q-34 0 -59.5 -32t-42 -82.5t-24.5 -113t-8 -123.5q0 -33 3.5 -72t11.5 -77q-35 -44 -74.5 -71t-81.5 -27zM660 514q0 -33 -7 -74t-21.5 -86.5t-35.5 -93t-48 -93.5q-3 20 -4 47t-1 50q0 73 8.5 132t22 100.5t29.5 64t30 22.5q16 0 21.5 -20t5.5 -49z
M556 769v16q0 9 -2.5 15.5t-7.5 11t-14 4.5t-15.5 -6.5t-6.5 -15.5q0 -2 1 -8t1 -8q0 -20 3 -36t21 -16q9 0 15.5 6.5t6.5 15.5q0 2 -1 7t-1 7v7zM448 769v16q0 9 -2.5 15.5t-7.5 11t-14 4.5t-15.5 -6.5t-6.5 -15.5q0 -2 1 -8t1 -8q0 -20 3 -36t21 -16q9 0 15.5 6.5
t6.5 15.5q0 2 -1 7t-1 7v7z" />
    <glyph glyph-name="Yacute" unicode="&#xdd;" horiz-adv-x="687" 
d="M557 322q0 121 13 184.5t48 63.5q30 0 30 -57q0 -25 -6.5 -56t-18.5 -64.5t-28.5 -67.5t-35.5 -65q0 17 -1 35t-1 27zM378 112q-22 0 -38.5 9t-28 30.5t-17 57t-5.5 89.5v63t-0.5 45t-1.5 33t-2 26q44 32 64 80.5t20 96.5q0 22 -3.5 39.5t-22.5 17.5q-9 0 -14.5 -7
t-5.5 -15q0 -5 1.5 -18t1.5 -17q0 -8 -1.5 -23.5t-7 -34t-15 -37.5t-25.5 -34q-9 42 -24.5 69t-34 43.5t-39 23t-39.5 6.5q-45 0 -74 -29t-29 -71q0 -27 11 -50t29.5 -39t44.5 -25t56 -9q34 0 65 11q1 -14 1.5 -28.5t0.5 -30.5v-63q0 -38 2.5 -81.5t14.5 -81.5t37.5 -63
t71.5 -25q41 0 76 20.5t72 57.5q-2 -97 -29 -166t-71.5 -112.5t-101.5 -63.5t-118 -20q-23 0 -50 6.5t-50 21.5t-39 39.5t-16 61.5q0 35 19 57.5t44 22.5q15 0 27.5 -10.5t12.5 -31.5q0 -11 -5 -28q-2 -4 -2 -8q0 -8 6.5 -15t16.5 -7q9 0 15 6.5t9 15.5t4 19t1 17
q0 38 -25.5 61t-59.5 23q-22 0 -41.5 -9.5t-34 -26t-23 -39t-8.5 -47.5q0 -44 17.5 -76t45.5 -53t63.5 -31t72.5 -10q61 0 126 20.5t117.5 67.5t86.5 125t34 193q0 5 -0.5 17.5t-1.5 26.5q28 36 52 77t41.5 83t27.5 82.5t10 74.5q0 26 -6 48t-20 34q-20 17 -43 17
q-38 0 -60 -23t-33 -62t-14 -91.5t-3 -112.5q0 -16 1 -46.5t3 -71.5q-35 -42 -68 -67t-71 -25zM237 485q-26 -12 -58 -12q-41 0 -69 22t-28 60q0 24 16 41.5t42 17.5q21 0 37 -10t28 -27.5t19.5 -41t12.5 -50.5zM571 808q-21 -19 -43 -32.5t-44 -25.5q-14 -8 -22.5 -13.5
t-13 -9t-6 -7.5t-1.5 -9t6.5 -11t16.5 -6q2 0 5.5 1t6.5 2q7 5 15 9.5t16 9.5q23 13 46.5 28t46.5 35q8 6 8 17q0 5 -6.5 11t-16.5 6q-9 0 -14 -5z" />
    <glyph glyph-name="Thorn" unicode="&#xde;" horiz-adv-x="589" 
d="M380 246q-10 0 -16.5 -5.5t-6.5 -15.5t7.5 -15.5t18 -8t21.5 -3t18 -0.5q37 0 67.5 13t52.5 35t34.5 51.5t12.5 63.5q0 38 -14 69t-38.5 52.5t-57.5 33.5t-72 12q-51 0 -100 -22q-5 23 -12.5 45t-17.5 42q35 19 53 41t18 33q0 21 -22 21q-13 0 -19 -11q-15 -26 -51 -47
q-5 8 -15.5 21t-27.5 25t-40 20.5t-53 8.5q-42 0 -71 -20.5t-29 -52.5q0 -29 29.5 -51.5t93.5 -22.5q47 0 93 17q11 -19 18 -42.5t12 -50.5q-66 -48 -106.5 -131t-40.5 -186q0 -81 27 -130t71 -49q38 0 60.5 24.5t34.5 63.5t16 87t4 96t-3.5 100.5t-11.5 106.5q20 11 43 17
t47 6q29 0 54 -8.5t43.5 -25t29 -40t10.5 -52.5q0 -27 -9.5 -49t-25.5 -38t-38.5 -25t-47.5 -9q-18 0 -39 6h-4zM66 632q0 16 17 24t35 8q35 0 61 -16t38 -36q-20 -8 -37.5 -10.5t-34.5 -2.5q-14 0 -28 1.5t-25.5 5t-18.5 10t-7 16.5zM288 257q0 -113 -17.5 -172t-52.5 -59
q-21 0 -37.5 38t-16.5 101q0 83 29 155t82 117q6 -40 9.5 -85t3.5 -95z" />
    <glyph glyph-name="germandbls" unicode="&#xdf;" horiz-adv-x="461" 
d="M-82 -211q41 6 71.5 33.5t52 69t35.5 94t23 109t14.5 113t9.5 106.5q12 154 53 223.5t103 69.5q20 0 34.5 -8t24 -20t14 -27t4.5 -29q0 -18 -5.5 -36t-21.5 -23q-47 -13 -74.5 -45.5t-27.5 -73.5q0 -22 7.5 -39t19.5 -31t27 -25.5t30 -21.5q72 -50 72 -107q0 -46 -29 -74
t-76 -28q-11 0 -26 3.5t-28.5 12t-23 22.5t-9.5 35q0 26 11.5 38t21.5 12q13 0 17.5 -7.5t4.5 -16.5q0 -3 -2.5 -12.5t-2.5 -11.5q0 -9 6.5 -15.5t15.5 -6.5q10 0 15.5 7t8.5 15t3.5 15.5t0.5 8.5q0 28 -19 46.5t-48 18.5q-14 0 -28.5 -6.5t-25.5 -18.5t-18 -29t-7 -37
q0 -30 12.5 -51.5t32 -35.5t43 -20.5t45.5 -6.5q34 0 62 11t47.5 30t30 45.5t10.5 56.5q0 29 -11 53t-26.5 42t-31.5 31t-26 20q-23 16 -42.5 33.5t-19.5 43.5q0 19 7 33t18 23.5t23.5 15.5t24.5 9q29 8 43 34t14 64q0 24 -8 46.5t-23.5 40t-38 28t-51.5 10.5
q-55 0 -91.5 -30t-59.5 -77.5t-34.5 -106t-15.5 -116.5q-4 -44 -8.5 -95.5t-12.5 -104t-19.5 -102t-29 -88.5t-41.5 -65t-56 -31q-20 -3 -20 -22q0 -10 7 -15.5t15 -5.5h3z" />
    <glyph glyph-name="agrave" unicode="&#xe0;" horiz-adv-x="346" 
d="M216 346q-41 0 -74.5 -24.5t-57.5 -61t-37 -80.5t-13 -83q0 -28 7 -48t18.5 -32.5t26 -18.5t29.5 -6q27 0 46.5 10.5t32.5 25t19 28.5t6 20q0 9 -5.5 15.5t-15.5 6.5q-14 0 -19 -13q-8 -20 -22.5 -35.5t-34.5 -15.5t-31.5 17.5t-11.5 45.5q0 34 10 70.5t28 67t42 50
t53 19.5q20 0 36 -15t16 -51q0 -26 -4 -54.5t-9 -56.5q-4 -27 -7.5 -48t-3.5 -37q0 -15 5.5 -31.5t22.5 -16.5q9 0 16 6.5t7 14.5q0 4 -1 6.5t-3 5.5q-2 6 -2 13q0 15 3.5 37.5t6.5 42.5q5 29 9 60t4 60q0 52 -24.5 79t-67.5 27zM260 411q0 11 -8 17q-25 20 -48.5 38
t-41.5 34q-4 3 -10.5 9t-13.5 11q-3 1 -6.5 2t-5.5 1q-8 0 -13 -4.5t-5 -12.5t4 -15t16 -16q10 -8 23.5 -18t27 -21t26.5 -21.5t22 -17.5q5 -4 9.5 -5t8.5 -1q6 0 10.5 5.5t4.5 14.5z" />
    <glyph glyph-name="aacute" unicode="&#xe1;" horiz-adv-x="346" 
d="M216 346q-41 0 -74.5 -24.5t-57.5 -61t-37 -80.5t-13 -83q0 -28 7 -48t18.5 -32.5t26 -18.5t29.5 -6q27 0 46.5 10.5t32.5 25t19 28.5t6 20q0 9 -5.5 15.5t-15.5 6.5q-14 0 -19 -13q-8 -20 -22.5 -35.5t-34.5 -15.5t-31.5 17.5t-11.5 45.5q0 34 10 70.5t28 67t42 50
t53 19.5q20 0 36 -15t16 -51q0 -26 -4 -54.5t-9 -56.5q-4 -27 -7.5 -48t-3.5 -37q0 -15 5.5 -31.5t22.5 -16.5q9 0 16 6.5t7 14.5q0 4 -1 6.5t-3 5.5q-2 6 -2 13q0 15 3.5 37.5t6.5 42.5q5 29 9 60t4 60q0 52 -24.5 79t-67.5 27zM266 500q-18 -16 -41.5 -34t-48.5 -38
q-8 -6 -8 -17q0 -6 4.5 -12t10.5 -6q4 0 8.5 1t9.5 5q9 6 22 16t26.5 21t27 21t23.5 18q20 16 20 31q0 8 -5 12.5t-13 4.5q-2 0 -5.5 -1t-6.5 -2q-7 -5 -13.5 -11t-10.5 -9z" />
    <glyph glyph-name="acircumflex" unicode="&#xe2;" horiz-adv-x="346" 
d="M216 346q-41 0 -74.5 -24.5t-57.5 -61t-37 -80.5t-13 -83q0 -28 7 -48t18.5 -32.5t26 -18.5t29.5 -6q27 0 46.5 10.5t32.5 25t19 28.5t6 20q0 9 -5.5 15.5t-15.5 6.5q-14 0 -19 -13q-8 -20 -22.5 -35.5t-34.5 -15.5t-31.5 17.5t-11.5 45.5q0 34 10 70.5t28 67t42 50
t53 19.5q20 0 36 -15t16 -51q0 -26 -4 -54.5t-9 -56.5q-4 -27 -7.5 -48t-3.5 -37q0 -15 5.5 -31.5t22.5 -16.5q9 0 16 6.5t7 14.5q0 4 -1 6.5t-3 5.5q-2 6 -2 13q0 15 3.5 37.5t6.5 42.5q5 29 9 60t4 60q0 52 -24.5 79t-67.5 27zM220 513q-4 0 -16.5 -8t-27.5 -18.5l-30 -21
t-23 -15.5q-10 -7 -10 -18q0 -5 5.5 -11t14.5 -6t15 3q17 11 32.5 24.5t35.5 27.5q6 -6 16.5 -17t21.5 -21.5t21 -18t16 -7.5q10 0 16.5 5.5t6.5 11.5q0 13 -11 19q-22 14 -35.5 30t-34.5 37q-4 4 -13 4z" />
    <glyph glyph-name="atilde" unicode="&#xe3;" horiz-adv-x="346" 
d="M216 346q-41 0 -74.5 -24.5t-57.5 -61t-37 -80.5t-13 -83q0 -28 7 -48t18.5 -32.5t26 -18.5t29.5 -6q27 0 46.5 10.5t32.5 25t19 28.5t6 20q0 9 -5.5 15.5t-15.5 6.5q-14 0 -19 -13q-8 -20 -22.5 -35.5t-34.5 -15.5t-31.5 17.5t-11.5 45.5q0 34 10 70.5t28 67t42 50
t53 19.5q20 0 36 -15t16 -51q0 -26 -4 -54.5t-9 -56.5q-4 -27 -7.5 -48t-3.5 -37q0 -15 5.5 -31.5t22.5 -16.5q9 0 16 6.5t7 14.5q0 4 -1 6.5t-3 5.5q-2 6 -2 13q0 15 3.5 37.5t6.5 42.5q5 29 9 60t4 60q0 52 -24.5 79t-67.5 27zM249 416q13 0 23.5 6.5t17.5 15t10.5 17
t3.5 13.5q0 6 -1.5 11.5t-5.5 7.5q-5 4 -12 4q-13 0 -18 -13q-3 -8 -8.5 -16.5t-14.5 -8.5q-16 0 -34 17q-14 13 -27.5 17.5t-26.5 4.5q-14 0 -25.5 -7t-20 -16.5t-13.5 -20t-5 -16.5q0 -9 5.5 -15.5t14.5 -6.5q13 0 16 10q5 14 11.5 24.5t17.5 10.5q16 0 36 -19
q11 -11 26.5 -15.5t29.5 -4.5z" />
    <glyph glyph-name="adieresis" unicode="&#xe4;" horiz-adv-x="346" 
d="M216 346q-41 0 -74.5 -24.5t-57.5 -61t-37 -80.5t-13 -83q0 -28 7 -48t18.5 -32.5t26 -18.5t29.5 -6q27 0 46.5 10.5t32.5 25t19 28.5t6 20q0 9 -5.5 15.5t-15.5 6.5q-14 0 -19 -13q-8 -20 -22.5 -35.5t-34.5 -15.5t-31.5 17.5t-11.5 45.5q0 34 10 70.5t28 67t42 50
t53 19.5q20 0 36 -15t16 -51q0 -26 -4 -54.5t-9 -56.5q-4 -27 -7.5 -48t-3.5 -37q0 -15 5.5 -31.5t22.5 -16.5q9 0 16 6.5t7 14.5q0 4 -1 6.5t-3 5.5q-2 6 -2 13q0 15 3.5 37.5t6.5 42.5q5 29 9 60t4 60q0 52 -24.5 79t-67.5 27zM286 469v16q0 9 -2.5 15.5t-7.5 11t-14 4.5
t-15.5 -6.5t-6.5 -15.5q0 -2 1 -8t1 -8q0 -20 3 -36t21 -16q9 0 15.5 6.5t6.5 15.5q0 2 -1 7t-1 7v7zM178 469v16q0 9 -2.5 15.5t-7.5 11t-14 4.5t-15.5 -6.5t-6.5 -15.5q0 -2 1 -8t1 -8q0 -20 3 -36t21 -16q9 0 15.5 6.5t6.5 15.5q0 2 -1 7t-1 7v7z" />
    <glyph glyph-name="aring" unicode="&#xe5;" horiz-adv-x="346" 
d="M216 346q-41 0 -74.5 -24.5t-57.5 -61t-37 -80.5t-13 -83q0 -28 7 -48t18.5 -32.5t26 -18.5t29.5 -6q27 0 46.5 10.5t32.5 25t19 28.5t6 20q0 9 -5.5 15.5t-15.5 6.5q-14 0 -19 -13q-8 -20 -22.5 -35.5t-34.5 -15.5t-31.5 17.5t-11.5 45.5q0 34 10 70.5t28 67t42 50
t53 19.5q20 0 36 -15t16 -51q0 -26 -4 -54.5t-9 -56.5q-4 -27 -7.5 -48t-3.5 -37q0 -15 5.5 -31.5t22.5 -16.5q9 0 16 6.5t7 14.5q0 4 -1 6.5t-3 5.5q-2 6 -2 13q0 15 3.5 37.5t6.5 42.5q5 29 9 60t4 60q0 52 -24.5 79t-67.5 27zM199 399q16 0 30.5 6.5t26 18t18 26
t6.5 30.5q0 11 -5 23t-13.5 21t-20 15t-24.5 5q-9 0 -15.5 -3.5t-6.5 -11.5q0 -10 7 -16t16 -6q10 0 16 -10.5t6 -16.5q0 -17 -10 -30t-32 -13q-14 0 -27.5 8t-13.5 24q0 10 4 19.5t8 11.5q6 4 10 8t4 10q0 9 -6.5 13t-16.5 4q-7 0 -14.5 -5.5t-13.5 -14.5t-10 -21t-4 -25
q0 -28 22 -49t59 -21z" />
    <glyph glyph-name="ae" unicode="&#xe6;" horiz-adv-x="512" 
d="M249 130q0 -41 11 -68.5t29 -44t40 -23.5t45 -7q26 0 45 7t31.5 16t18.5 18.5t6 14.5q0 10 -6 16.5t-15 6.5q-11 0 -18 -9q-11 -14 -25 -21.5t-36 -7.5q-44 0 -62.5 28t-18.5 68q0 41 12 73t30 54.5t39.5 34t40.5 11.5q21 0 30.5 -11t9.5 -25q0 -17 -8.5 -30.5
t-22.5 -23.5t-31.5 -15.5t-35.5 -5.5q-9 -1 -15 -7t-6 -15q0 -10 6.5 -15t14.5 -5q23 0 48 7.5t46 22t34.5 36.5t13.5 51q0 33 -21 55t-64 22q-31 0 -62 -16.5t-53 -51.5q-8 34 -29.5 53.5t-54.5 19.5q-39 0 -72.5 -25t-58 -62.5t-38 -82t-13.5 -83.5q0 -29 7.5 -48.5
t19.5 -31.5t27.5 -17.5t31.5 -5.5q27 0 48.5 12.5t36 28.5t22.5 31.5t8 21.5q0 10 -6 16.5t-16 6.5q-6 0 -12 -4t-8 -11q-5 -10 -12 -21t-16.5 -20t-20.5 -14.5t-23 -5.5q-20 0 -31.5 15t-11.5 47q0 34 11.5 71.5t30 68.5t43 51.5t51.5 20.5q21 0 33.5 -18.5t12.5 -50.5
q0 -6 -1 -16.5t-2.5 -23t-3.5 -26.5t-3 -26z" />
    <glyph glyph-name="ccedilla" unicode="&#xe7;" horiz-adv-x="300" 
d="M109 -182q13 0 27 5t25.5 14t19 21.5t7.5 27.5q0 17 -6 29t-15 20t-19 12.5t-18 6.5l33 38q25 3 44.5 13t33.5 22t21.5 24t7.5 19q0 10 -5 16.5t-14 6.5q-12 0 -19 -13q-15 -27 -38.5 -38.5t-43.5 -11.5q-8 0 -19.5 3t-22 12t-18 27t-7.5 48q0 28 8 59.5t23 58t37.5 44
t51.5 17.5q14 0 22 -5.5t13 -13.5q8 -11 19 -11q10 0 15.5 6.5t5.5 15.5q0 8 -3 14q-6 15 -22 26t-47 11q-37 0 -68 -19.5t-53 -51t-34.5 -71t-12.5 -80.5q0 -57 22.5 -87.5t59.5 -38.5l-2 -1q-9 -11 -17.5 -21.5t-8.5 -20.5q0 -15 9.5 -20.5t17.5 -9.5q13 -6 21 -13.5
t8 -22.5q0 -14 -13 -21.5t-22 -7.5t-16 2t-15 8q-7 4 -14 4q-9 0 -14.5 -6.5t-5.5 -15.5q0 -8 6.5 -13.5t16 -9t20 -5.5t18.5 -2z" />
    <glyph glyph-name="egrave" unicode="&#xe8;" horiz-adv-x="298" 
d="M144 188q-10 -1 -16 -7.5t-6 -14.5q0 -10 6.5 -15.5t15.5 -5.5q22 0 47 7.5t46 22t35 36.5t14 52t-19.5 53.5t-64.5 23.5q-30 0 -59.5 -15.5t-53.5 -44t-39 -68t-15 -86.5q0 -64 34 -100t91 -36q23 0 43 6.5t34.5 16t23 19.5t8.5 17q0 10 -5.5 16.5t-14.5 6.5
q-10 0 -16 -8q-13 -16 -31.5 -24.5t-38.5 -8.5q-27 0 -43.5 10t-25 24.5t-11.5 31t-3 29.5q0 40 12 72t30 54t39 33.5t40 11.5q20 0 30 -9.5t10 -24.5q0 -17 -8.5 -30.5t-22.5 -23.5t-31 -15.5t-35 -5.5zM246 411q0 11 -8 17q-25 20 -48.5 38t-41.5 34q-4 3 -10.5 9
t-13.5 11q-3 1 -6.5 2t-5.5 1q-8 0 -13 -4.5t-5 -12.5t4 -15t16 -16q10 -8 23.5 -18t27 -21t26.5 -21.5t22 -17.5q5 -4 9.5 -5t8.5 -1q6 0 10.5 5.5t4.5 14.5z" />
    <glyph glyph-name="eacute" unicode="&#xe9;" horiz-adv-x="298" 
d="M144 188q-10 -1 -16 -7.5t-6 -14.5q0 -10 6.5 -15.5t15.5 -5.5q22 0 47 7.5t46 22t35 36.5t14 52t-19.5 53.5t-64.5 23.5q-30 0 -59.5 -15.5t-53.5 -44t-39 -68t-15 -86.5q0 -64 34 -100t91 -36q23 0 43 6.5t34.5 16t23 19.5t8.5 17q0 10 -5.5 16.5t-14.5 6.5
q-10 0 -16 -8q-13 -16 -31.5 -24.5t-38.5 -8.5q-27 0 -43.5 10t-25 24.5t-11.5 31t-3 29.5q0 40 12 72t30 54t39 33.5t40 11.5q20 0 30 -9.5t10 -24.5q0 -17 -8.5 -30.5t-22.5 -23.5t-31 -15.5t-35 -5.5zM262 500q-18 -16 -41.5 -34t-48.5 -38q-8 -6 -8 -17q0 -6 4.5 -12
t10.5 -6q4 0 8.5 1t9.5 5q9 6 22 16t26.5 21t27 21t23.5 18q20 16 20 31q0 8 -5 12.5t-13 4.5q-2 0 -5.5 -1t-6.5 -2q-7 -5 -13.5 -11t-10.5 -9z" />
    <glyph glyph-name="ecircumflex" unicode="&#xea;" horiz-adv-x="298" 
d="M144 188q-10 -1 -16 -7.5t-6 -14.5q0 -10 6.5 -15.5t15.5 -5.5q22 0 47 7.5t46 22t35 36.5t14 52t-19.5 53.5t-64.5 23.5q-30 0 -59.5 -15.5t-53.5 -44t-39 -68t-15 -86.5q0 -64 34 -100t91 -36q23 0 43 6.5t34.5 16t23 19.5t8.5 17q0 10 -5.5 16.5t-14.5 6.5
q-10 0 -16 -8q-13 -16 -31.5 -24.5t-38.5 -8.5q-27 0 -43.5 10t-25 24.5t-11.5 31t-3 29.5q0 40 12 72t30 54t39 33.5t40 11.5q20 0 30 -9.5t10 -24.5q0 -17 -8.5 -30.5t-22.5 -23.5t-31 -15.5t-35 -5.5zM206 513q-4 0 -16.5 -8t-27.5 -18.5l-30 -21t-23 -15.5
q-10 -7 -10 -18q0 -5 5.5 -11t14.5 -6t15 3q17 11 32.5 24.5t35.5 27.5q6 -6 16.5 -17t21.5 -21.5t21 -18t16 -7.5q10 0 16.5 5.5t6.5 11.5q0 13 -11 19q-22 14 -35.5 30t-34.5 37q-4 4 -13 4z" />
    <glyph glyph-name="edieresis" unicode="&#xeb;" horiz-adv-x="298" 
d="M144 188q-10 -1 -16 -7.5t-6 -14.5q0 -10 6.5 -15.5t15.5 -5.5q22 0 47 7.5t46 22t35 36.5t14 52t-19.5 53.5t-64.5 23.5q-30 0 -59.5 -15.5t-53.5 -44t-39 -68t-15 -86.5q0 -64 34 -100t91 -36q23 0 43 6.5t34.5 16t23 19.5t8.5 17q0 10 -5.5 16.5t-14.5 6.5
q-10 0 -16 -8q-13 -16 -31.5 -24.5t-38.5 -8.5q-27 0 -43.5 10t-25 24.5t-11.5 31t-3 29.5q0 40 12 72t30 54t39 33.5t40 11.5q20 0 30 -9.5t10 -24.5q0 -17 -8.5 -30.5t-22.5 -23.5t-31 -15.5t-35 -5.5zM272 469v16q0 9 -2.5 15.5t-7.5 11t-14 4.5t-15.5 -6.5t-6.5 -15.5
q0 -2 1 -8t1 -8q0 -20 3 -36t21 -16q9 0 15.5 6.5t6.5 15.5q0 2 -1 7t-1 7v7zM164 469v16q0 9 -2.5 15.5t-7.5 11t-14 4.5t-15.5 -6.5t-6.5 -15.5q0 -2 1 -8t1 -8q0 -20 3 -36t21 -16q9 0 15.5 6.5t6.5 15.5q0 2 -1 7t-1 7v7z" />
    <glyph glyph-name="igrave" unicode="&#xec;" horiz-adv-x="160" 
d="M112 332q-9 2 -17 -2.5t-10 -13.5q-11 -45 -19.5 -96.5t-14 -96.5t-8.5 -76.5t-3 -36.5q0 -10 6.5 -16.5t16.5 -6.5q9 0 15 6t7 15q2 36 6.5 76.5t10.5 80.5t12.5 76.5t13.5 63.5q1 2 1 5q0 17 -17 22zM167 411q0 11 -8 17q-25 20 -48.5 38t-41.5 34q-4 3 -10.5 9
t-13.5 11q-3 1 -6.5 2t-5.5 1q-8 0 -13 -4.5t-5 -12.5t4 -15t16 -16q10 -8 23.5 -18t27 -21t26.5 -21.5t22 -17.5q5 -4 9.5 -5t8.5 -1q6 0 10.5 5.5t4.5 14.5z" />
    <glyph glyph-name="iacute" unicode="&#xed;" horiz-adv-x="160" 
d="M112 332q-9 2 -17 -2.5t-10 -13.5q-11 -45 -19.5 -96.5t-14 -96.5t-8.5 -76.5t-3 -36.5q0 -10 6.5 -16.5t16.5 -6.5q9 0 15 6t7 15q2 36 6.5 76.5t10.5 80.5t12.5 76.5t13.5 63.5q1 2 1 5q0 17 -17 22zM163 500q-18 -16 -41.5 -34t-48.5 -38q-8 -6 -8 -17q0 -6 4.5 -12
t10.5 -6q4 0 8.5 1t9.5 5q9 6 22 16t26.5 21t27 21t23.5 18q20 16 20 31q0 8 -5 12.5t-13 4.5q-2 0 -5.5 -1t-6.5 -2q-7 -5 -13.5 -11t-10.5 -9z" />
    <glyph glyph-name="icircumflex" unicode="&#xee;" horiz-adv-x="160" 
d="M112 332q-9 2 -17 -2.5t-10 -13.5q-11 -45 -19.5 -96.5t-14 -96.5t-8.5 -76.5t-3 -36.5q0 -10 6.5 -16.5t16.5 -6.5q9 0 15 6t7 15q2 36 6.5 76.5t10.5 80.5t12.5 76.5t13.5 63.5q1 2 1 5q0 17 -17 22zM117 513q-4 0 -16.5 -8t-27.5 -18.5l-30 -21t-23 -15.5
q-10 -7 -10 -18q0 -5 5.5 -11t14.5 -6t15 3q17 11 32.5 24.5t35.5 27.5q6 -6 16.5 -17t21.5 -21.5t21 -18t16 -7.5q10 0 16.5 5.5t6.5 11.5q0 13 -11 19q-22 14 -35.5 30t-34.5 37q-4 4 -13 4z" />
    <glyph glyph-name="idieresis" unicode="&#xef;" horiz-adv-x="160" 
d="M112 332q-9 2 -17 -2.5t-10 -13.5q-11 -45 -19.5 -96.5t-14 -96.5t-8.5 -76.5t-3 -36.5q0 -10 6.5 -16.5t16.5 -6.5q9 0 15 6t7 15q2 36 6.5 76.5t10.5 80.5t12.5 76.5t13.5 63.5q1 2 1 5q0 17 -17 22zM183 469v16q0 9 -2.5 15.5t-7.5 11t-14 4.5t-15.5 -6.5t-6.5 -15.5
q0 -2 1 -8t1 -8q0 -20 3 -36t21 -16q9 0 15.5 6.5t6.5 15.5q0 2 -1 7t-1 7v7zM75 469v16q0 9 -2.5 15.5t-7.5 11t-14 4.5t-15.5 -6.5t-6.5 -15.5q0 -2 1 -8t1 -8q0 -20 3 -36t21 -16q9 0 15.5 6.5t6.5 15.5q0 2 -1 7t-1 7v7z" />
    <glyph glyph-name="eth" unicode="&#xf0;" horiz-adv-x="332" 
d="M145 -8q50 0 87 38q29 30 45.5 74t25 87.5t10.5 80.5t2 53q0 20 -3 42.5t-8 44t-11.5 40.5t-14.5 33q24 15 42 26t29 13q8 2 13 8t5 14q0 11 -8.5 16t-19.5 3q-14 -2 -34 -15t-46 -30q-12 22 -31 41t-39.5 33t-39.5 21.5t-32 7.5h-4q-9 0 -16 -6.5t-7 -16.5q0 -8 5 -13
t13 -6q35 -4 65 -28t49 -56q-21 -14 -44.5 -26t-34.5 -14q-8 -1 -13.5 -7t-5.5 -14q0 -10 6.5 -15t16.5 -5q8 0 20.5 5t26 11.5t26 14.5t21.5 14q14 -23 21.5 -61.5t7.5 -74.5q0 -50 -7 -102.5t-22 -95t-38 -69.5t-56 -27q-17 0 -30 9t-22 24t-14 35t-5 42q0 35 7.5 64
t20.5 49.5t29.5 31.5t33.5 11q13 0 19 -3.5t11 -10.5q5 -8 11.5 -10.5t12.5 -2.5q10 0 16 6.5t6 15.5q0 4 -3.5 12t-11.5 16t-22.5 14.5t-35.5 6.5q-27 0 -52 -14.5t-44.5 -41t-31 -63t-11.5 -81.5q0 -34 9 -61.5t24 -47t36 -30t45 -10.5z" />
    <glyph glyph-name="ntilde" unicode="&#xf1;" horiz-adv-x="350" 
d="M230 338q-70 0 -111 -94q3 45 -12.5 71t-30.5 26q-9 0 -15.5 -6.5t-6.5 -14.5t5 -16q10 -10 13.5 -23.5t4.5 -36.5q-1 -26 -7 -57.5t-14 -65.5q-2 -6 -5.5 -21t-7 -31t-6.5 -30.5t-3 -18.5q0 -10 5.5 -16.5t15.5 -6.5q18 0 21 17q12 62 29.5 113t37.5 88t41.5 57t41.5 20
t28 -25.5t8 -65.5q0 -24 -2.5 -50t-5.5 -49.5t-7 -43.5t-7 -33q-1 -2 -1 -4q0 -10 6.5 -16.5t16.5 -6.5q2 0 11 2.5t11 17.5q3 13 6.5 33t7.5 45t6.5 52t2.5 53q0 46 -9 73t-21 41.5t-25 18.5t-22 4zM246 416q13 0 23.5 6.5t17.5 15t10.5 17t3.5 13.5q0 6 -1.5 11.5
t-5.5 7.5q-5 4 -12 4q-13 0 -18 -13q-3 -8 -8.5 -16.5t-14.5 -8.5q-16 0 -34 17q-14 13 -27.5 17.5t-26.5 4.5q-14 0 -25.5 -7t-20 -16.5t-13.5 -20t-5 -16.5q0 -9 5.5 -15.5t14.5 -6.5q13 0 16 10q5 14 11.5 24.5t17.5 10.5q16 0 36 -19q11 -11 26.5 -15.5t29.5 -4.5z" />
    <glyph glyph-name="ograve" unicode="&#xf2;" horiz-adv-x="341" 
d="M213 348q-24 0 -42.5 -8.5t-30.5 -22.5t-18.5 -31.5t-6.5 -35.5q0 -35 22 -59.5t66 -24.5q19 0 23 8.5t4 13.5q0 9 -6.5 15.5t-16.5 6.5q-6 0 -14.5 0.5t-15.5 4.5t-12 12t-5 23q0 9 2.5 19t8.5 18t16 13.5t24 5.5q18 0 30 -9t19.5 -23t11 -30.5t3.5 -31.5
q0 -32 -8.5 -64t-23.5 -58t-37 -42t-49 -16q-19 0 -32.5 10.5t-22.5 26.5t-13 36t-4 40q0 16 2 34.5t7 29.5q2 6 2 10q0 8 -6 15t-15 7q-16 0 -21 -16q-14 -38 -14 -81q0 -70 31.5 -112t83.5 -42q38 0 68.5 19.5t52 51t33 71.5t11.5 80q0 60 -28.5 98t-78.5 38zM257 411
q0 11 -8 17q-25 20 -48.5 38t-41.5 34q-4 3 -10.5 9t-13.5 11q-3 1 -6.5 2t-5.5 1q-8 0 -13 -4.5t-5 -12.5t4 -15t16 -16q10 -8 23.5 -18t27 -21t26.5 -21.5t22 -17.5q5 -4 9.5 -5t8.5 -1q6 0 10.5 5.5t4.5 14.5z" />
    <glyph glyph-name="oacute" unicode="&#xf3;" horiz-adv-x="341" 
d="M213 348q-24 0 -42.5 -8.5t-30.5 -22.5t-18.5 -31.5t-6.5 -35.5q0 -35 22 -59.5t66 -24.5q19 0 23 8.5t4 13.5q0 9 -6.5 15.5t-16.5 6.5q-6 0 -14.5 0.5t-15.5 4.5t-12 12t-5 23q0 9 2.5 19t8.5 18t16 13.5t24 5.5q18 0 30 -9t19.5 -23t11 -30.5t3.5 -31.5
q0 -32 -8.5 -64t-23.5 -58t-37 -42t-49 -16q-19 0 -32.5 10.5t-22.5 26.5t-13 36t-4 40q0 16 2 34.5t7 29.5q2 6 2 10q0 8 -6 15t-15 7q-16 0 -21 -16q-14 -38 -14 -81q0 -70 31.5 -112t83.5 -42q38 0 68.5 19.5t52 51t33 71.5t11.5 80q0 60 -28.5 98t-78.5 38zM273 500
q-18 -16 -41.5 -34t-48.5 -38q-8 -6 -8 -17q0 -6 4.5 -12t10.5 -6q4 0 8.5 1t9.5 5q9 6 22 16t26.5 21t27 21t23.5 18q20 16 20 31q0 8 -5 12.5t-13 4.5q-2 0 -5.5 -1t-6.5 -2q-7 -5 -13.5 -11t-10.5 -9z" />
    <glyph glyph-name="ocircumflex" unicode="&#xf4;" horiz-adv-x="341" 
d="M213 348q-24 0 -42.5 -8.5t-30.5 -22.5t-18.5 -31.5t-6.5 -35.5q0 -35 22 -59.5t66 -24.5q19 0 23 8.5t4 13.5q0 9 -6.5 15.5t-16.5 6.5q-6 0 -14.5 0.5t-15.5 4.5t-12 12t-5 23q0 9 2.5 19t8.5 18t16 13.5t24 5.5q18 0 30 -9t19.5 -23t11 -30.5t3.5 -31.5
q0 -32 -8.5 -64t-23.5 -58t-37 -42t-49 -16q-19 0 -32.5 10.5t-22.5 26.5t-13 36t-4 40q0 16 2 34.5t7 29.5q2 6 2 10q0 8 -6 15t-15 7q-16 0 -21 -16q-14 -38 -14 -81q0 -70 31.5 -112t83.5 -42q38 0 68.5 19.5t52 51t33 71.5t11.5 80q0 60 -28.5 98t-78.5 38zM208 513
q-4 0 -16.5 -8t-27.5 -18.5l-30 -21t-23 -15.5q-10 -7 -10 -18q0 -5 5.5 -11t14.5 -6t15 3q17 11 32.5 24.5t35.5 27.5q6 -6 16.5 -17t21.5 -21.5t21 -18t16 -7.5q10 0 16.5 5.5t6.5 11.5q0 13 -11 19q-22 14 -35.5 30t-34.5 37q-4 4 -13 4z" />
    <glyph glyph-name="otilde" unicode="&#xf5;" horiz-adv-x="341" 
d="M213 348q-24 0 -42.5 -8.5t-30.5 -22.5t-18.5 -31.5t-6.5 -35.5q0 -35 22 -59.5t66 -24.5q19 0 23 8.5t4 13.5q0 9 -6.5 15.5t-16.5 6.5q-6 0 -14.5 0.5t-15.5 4.5t-12 12t-5 23q0 9 2.5 19t8.5 18t16 13.5t24 5.5q18 0 30 -9t19.5 -23t11 -30.5t3.5 -31.5
q0 -32 -8.5 -64t-23.5 -58t-37 -42t-49 -16q-19 0 -32.5 10.5t-22.5 26.5t-13 36t-4 40q0 16 2 34.5t7 29.5q2 6 2 10q0 8 -6 15t-15 7q-16 0 -21 -16q-14 -38 -14 -81q0 -70 31.5 -112t83.5 -42q38 0 68.5 19.5t52 51t33 71.5t11.5 80q0 60 -28.5 98t-78.5 38zM252 416
q13 0 23.5 6.5t17.5 15t10.5 17t3.5 13.5q0 6 -1.5 11.5t-5.5 7.5q-5 4 -12 4q-13 0 -18 -13q-3 -8 -8.5 -16.5t-14.5 -8.5q-16 0 -34 17q-14 13 -27.5 17.5t-26.5 4.5q-14 0 -25.5 -7t-20 -16.5t-13.5 -20t-5 -16.5q0 -9 5.5 -15.5t14.5 -6.5q13 0 16 10q5 14 11.5 24.5
t17.5 10.5q16 0 36 -19q11 -11 26.5 -15.5t29.5 -4.5z" />
    <glyph glyph-name="odieresis" unicode="&#xf6;" horiz-adv-x="341" 
d="M213 348q-24 0 -42.5 -8.5t-30.5 -22.5t-18.5 -31.5t-6.5 -35.5q0 -35 22 -59.5t66 -24.5q19 0 23 8.5t4 13.5q0 9 -6.5 15.5t-16.5 6.5q-6 0 -14.5 0.5t-15.5 4.5t-12 12t-5 23q0 9 2.5 19t8.5 18t16 13.5t24 5.5q18 0 30 -9t19.5 -23t11 -30.5t3.5 -31.5
q0 -32 -8.5 -64t-23.5 -58t-37 -42t-49 -16q-19 0 -32.5 10.5t-22.5 26.5t-13 36t-4 40q0 16 2 34.5t7 29.5q2 6 2 10q0 8 -6 15t-15 7q-16 0 -21 -16q-14 -38 -14 -81q0 -70 31.5 -112t83.5 -42q38 0 68.5 19.5t52 51t33 71.5t11.5 80q0 60 -28.5 98t-78.5 38zM284 469v16
q0 9 -2.5 15.5t-7.5 11t-14 4.5t-15.5 -6.5t-6.5 -15.5q0 -2 1 -8t1 -8q0 -20 3 -36t21 -16q9 0 15.5 6.5t6.5 15.5q0 2 -1 7t-1 7v7zM176 469v16q0 9 -2.5 15.5t-7.5 11t-14 4.5t-15.5 -6.5t-6.5 -15.5q0 -2 1 -8t1 -8q0 -20 3 -36t21 -16q9 0 15.5 6.5t6.5 15.5q0 2 -1 7
t-1 7v7z" />
    <glyph glyph-name="divide" unicode="&#xf7;" 
d="M398 181v42h-364v-42h364zM173 351q0 -17 13 -30t31 -13q17 0 29.5 13.5t12.5 29.5q0 18 -13 30.5t-30 12.5t-30 -12.5t-13 -30.5zM173 53q0 -17 13 -30t31 -13q17 0 29.5 13.5t12.5 29.5q0 17 -13 30t-30 13t-30 -12.5t-13 -30.5z" />
    <glyph glyph-name="oslash" unicode="&#xf8;" horiz-adv-x="337" 
d="M157 190q-14 -26 -29 -55.5t-32 -56.5q-6 13 -9 30t-3 36q0 36 10 66t24.5 51t31 32.5t30.5 11.5q16 0 20.5 6.5t4.5 11.5t-4 14t-21 9q-24 0 -48.5 -14.5t-45 -41t-33.5 -63.5t-13 -83q0 -32 8.5 -60.5t22.5 -46.5q-13 -20 -23.5 -35t-20.5 -29q-5 -7 -5 -15
q0 -9 6.5 -14t14.5 -5q12 0 18 9q10 14 19 27.5t20 30.5q25 -16 55 -16q38 0 68.5 19.5t52 51t33 71.5t11.5 80q0 71 -26 96q-15 15 -35 15q-23 0 -39 -24.5t-44 -74.5zM213 203q6 12 13.5 25.5t14 25t12 19t8.5 7.5q5 0 9.5 -15t4.5 -53q0 -32 -8.5 -64.5t-24 -58.5
t-37.5 -42t-49 -16q-18 0 -35 12q19 32 37.5 62.5t35.5 61.5z" />
    <glyph glyph-name="ugrave" unicode="&#xf9;" horiz-adv-x="336" 
d="M104 307q0 9 -6.5 15.5t-16.5 6.5q-14 0 -17.5 -8.5t-5.5 -15.5q-3 -14 -6.5 -34t-7 -43.5t-6 -49.5t-2.5 -51q0 -43 8.5 -69.5t21 -41.5t27.5 -20.5t29 -5.5q33 0 63 26.5t50 73.5q0 -21 4 -39t10.5 -31t14.5 -20.5t16 -7.5q9 0 15.5 6.5t6.5 15.5t-5 15q-20 21 -20 69
q0 26 5 60t12 75q5 26 9 50t5 32q2 9 -3 17t-13 8q-23 0 -26 -19q-8 -59 -22.5 -111.5t-33.5 -91.5t-41.5 -62t-46.5 -23q-12 0 -20.5 8t-13 21.5t-6.5 30.5t-2 34q0 47 8 94.5t16 80.5v5zM225 411q0 11 -8 17q-25 20 -48.5 38t-41.5 34q-4 3 -10.5 9t-13.5 11q-3 1 -6.5 2
t-5.5 1q-8 0 -13 -4.5t-5 -12.5t4 -15t16 -16q10 -8 23.5 -18t27 -21t26.5 -21.5t22 -17.5q5 -4 9.5 -5t8.5 -1q6 0 10.5 5.5t4.5 14.5z" />
    <glyph glyph-name="uacute" unicode="&#xfa;" horiz-adv-x="336" 
d="M104 307q0 9 -6.5 15.5t-16.5 6.5q-14 0 -17.5 -8.5t-5.5 -15.5q-3 -14 -6.5 -34t-7 -43.5t-6 -49.5t-2.5 -51q0 -43 8.5 -69.5t21 -41.5t27.5 -20.5t29 -5.5q33 0 63 26.5t50 73.5q0 -21 4 -39t10.5 -31t14.5 -20.5t16 -7.5q9 0 15.5 6.5t6.5 15.5t-5 15q-20 21 -20 69
q0 26 5 60t12 75q5 26 9 50t5 32q2 9 -3 17t-13 8q-23 0 -26 -19q-8 -59 -22.5 -111.5t-33.5 -91.5t-41.5 -62t-46.5 -23q-12 0 -20.5 8t-13 21.5t-6.5 30.5t-2 34q0 47 8 94.5t16 80.5v5zM251 500q-18 -16 -41.5 -34t-48.5 -38q-8 -6 -8 -17q0 -6 4.5 -12t10.5 -6
q4 0 8.5 1t9.5 5q9 6 22 16t26.5 21t27 21t23.5 18q20 16 20 31q0 8 -5 12.5t-13 4.5q-2 0 -5.5 -1t-6.5 -2q-7 -5 -13.5 -11t-10.5 -9z" />
    <glyph glyph-name="ucircumflex" unicode="&#xfb;" horiz-adv-x="336" 
d="M104 307q0 9 -6.5 15.5t-16.5 6.5q-14 0 -17.5 -8.5t-5.5 -15.5q-3 -14 -6.5 -34t-7 -43.5t-6 -49.5t-2.5 -51q0 -43 8.5 -69.5t21 -41.5t27.5 -20.5t29 -5.5q33 0 63 26.5t50 73.5q0 -21 4 -39t10.5 -31t14.5 -20.5t16 -7.5q9 0 15.5 6.5t6.5 15.5t-5 15q-20 21 -20 69
q0 26 5 60t12 75q5 26 9 50t5 32q2 9 -3 17t-13 8q-23 0 -26 -19q-8 -59 -22.5 -111.5t-33.5 -91.5t-41.5 -62t-46.5 -23q-12 0 -20.5 8t-13 21.5t-6.5 30.5t-2 34q0 47 8 94.5t16 80.5v5zM195 513q-4 0 -16.5 -8t-27.5 -18.5l-30 -21t-23 -15.5q-10 -7 -10 -18
q0 -5 5.5 -11t14.5 -6t15 3q17 11 32.5 24.5t35.5 27.5q6 -6 16.5 -17t21.5 -21.5t21 -18t16 -7.5q10 0 16.5 5.5t6.5 11.5q0 13 -11 19q-22 14 -35.5 30t-34.5 37q-4 4 -13 4z" />
    <glyph glyph-name="udieresis" unicode="&#xfc;" horiz-adv-x="336" 
d="M104 307q0 9 -6.5 15.5t-16.5 6.5q-14 0 -17.5 -8.5t-5.5 -15.5q-3 -14 -6.5 -34t-7 -43.5t-6 -49.5t-2.5 -51q0 -43 8.5 -69.5t21 -41.5t27.5 -20.5t29 -5.5q33 0 63 26.5t50 73.5q0 -21 4 -39t10.5 -31t14.5 -20.5t16 -7.5q9 0 15.5 6.5t6.5 15.5t-5 15q-20 21 -20 69
q0 26 5 60t12 75q5 26 9 50t5 32q2 9 -3 17t-13 8q-23 0 -26 -19q-8 -59 -22.5 -111.5t-33.5 -91.5t-41.5 -62t-46.5 -23q-12 0 -20.5 8t-13 21.5t-6.5 30.5t-2 34q0 47 8 94.5t16 80.5v5zM271 469v16q0 9 -2.5 15.5t-7.5 11t-14 4.5t-15.5 -6.5t-6.5 -15.5q0 -2 1 -8t1 -8
q0 -20 3 -36t21 -16q9 0 15.5 6.5t6.5 15.5q0 2 -1 7t-1 7v7zM163 469v16q0 9 -2.5 15.5t-7.5 11t-14 4.5t-15.5 -6.5t-6.5 -15.5q0 -2 1 -8t1 -8q0 -20 3 -36t21 -16q9 0 15.5 6.5t6.5 15.5q0 2 -1 7t-1 7v7z" />
    <glyph glyph-name="yacute" unicode="&#xfd;" horiz-adv-x="331" 
d="M108 315q0 10 -6.5 16.5t-15.5 6.5q-14 0 -18 -9t-6 -14q-3 -14 -6.5 -34.5t-7 -44.5t-6 -50.5t-2.5 -52.5t4 -51t14 -44t26 -30.5t39 -11.5q18 0 37 10t35.5 27.5t31 41t23.5 49.5q-2 -23 -6 -49t-9 -51.5t-10.5 -49t-11.5 -42.5q-27 9 -64 9q-39 0 -80.5 -12
t-75.5 -33.5t-56 -52.5t-22 -70q0 -46 28 -65.5t65 -19.5q33 0 67.5 13t65 37t56 58.5t42.5 76.5q7 -3 19 -14.5t12 -32.5q0 -9 6 -15.5t15 -6.5t15.5 6.5t6.5 15.5q0 29 -16.5 52.5t-41.5 37.5q20 65 27 121.5t9 88.5q1 18 3 43.5t3.5 52.5t2.5 52t1 42q0 9 -5.5 15.5
t-14.5 6.5t-16 -6t-7 -15q0 -45 -12.5 -94t-32 -89.5t-43.5 -67t-47 -26.5q-13 0 -20.5 10.5t-11.5 25t-5 30.5t-1 27q0 24 2.5 49t5.5 48t7 44t7 37zM14 -271q-20 0 -37 11.5t-17 35.5q0 27 18 49.5t45.5 39t61 26t64.5 9.5q13 0 27 -1.5t25 -4.5q-15 -38 -36 -68t-46 -52
t-52 -33.5t-53 -11.5zM268 500q-18 -16 -41.5 -34t-48.5 -38q-8 -6 -8 -17q0 -6 4.5 -12t10.5 -6q4 0 8.5 1t9.5 5q9 6 22 16t26.5 21t27 21t23.5 18q20 16 20 31q0 8 -5 12.5t-13 4.5q-2 0 -5.5 -1t-6.5 -2q-7 -5 -13.5 -11t-10.5 -9z" />
    <glyph glyph-name="thorn" unicode="&#xfe;" horiz-adv-x="407" 
d="M271 341q-38 0 -70.5 -18.5t-60.5 -49.5q-14 78 -35 128t-41.5 78t-37 38.5t-21.5 10.5q-8 0 -14.5 -6.5t-6.5 -15.5q0 -5 2 -10.5t7 -8.5q24 -16 41.5 -43.5t31 -62t22.5 -74.5t15 -81q-23 -38 -41.5 -81.5t-31.5 -90t-19.5 -94.5t-6.5 -94q0 -22 2.5 -51t11 -54.5
t24.5 -43t43 -17.5q26 0 41 19.5t23 53.5t10 79t2 95q0 66 -2.5 135t-10.5 135q6 9 17.5 23t27 26.5t35.5 22t43 9.5q36 0 53.5 -30.5t17.5 -70.5q0 -33 -7 -63t-18.5 -52.5t-27 -35.5t-33.5 -13q-11 0 -19.5 8t-12.5 19q-5 16 -21 16q-10 0 -16.5 -6.5t-6.5 -15.5
q0 -8 4.5 -19t13.5 -21t23 -17t34 -7q30 0 54 17.5t41 46t26.5 66t9.5 77.5q0 64 -32 104t-83 40zM117 -53q0 -74 -3.5 -115t-8.5 -61t-10.5 -25t-9.5 -5q-6 0 -12.5 5.5t-11.5 20t-8 39t-3 60.5q0 35 4 73t12 76.5t19.5 74.5t26.5 67q5 -61 5 -118v-92z" />
    <glyph glyph-name="ydieresis" unicode="&#xff;" horiz-adv-x="331" 
d="M108 315q0 10 -6.5 16.5t-15.5 6.5q-14 0 -18 -9t-6 -14q-3 -14 -6.5 -34.5t-7 -44.5t-6 -50.5t-2.5 -52.5t4 -51t14 -44t26 -30.5t39 -11.5q18 0 37 10t35.5 27.5t31 41t23.5 49.5q-2 -23 -6 -49t-9 -51.5t-10.5 -49t-11.5 -42.5q-27 9 -64 9q-39 0 -80.5 -12
t-75.5 -33.5t-56 -52.5t-22 -70q0 -46 28 -65.5t65 -19.5q33 0 67.5 13t65 37t56 58.5t42.5 76.5q7 -3 19 -14.5t12 -32.5q0 -9 6 -15.5t15 -6.5t15.5 6.5t6.5 15.5q0 29 -16.5 52.5t-41.5 37.5q20 65 27 121.5t9 88.5q1 18 3 43.5t3.5 52.5t2.5 52t1 42q0 9 -5.5 15.5
t-14.5 6.5t-16 -6t-7 -15q0 -45 -12.5 -94t-32 -89.5t-43.5 -67t-47 -26.5q-13 0 -20.5 10.5t-11.5 25t-5 30.5t-1 27q0 24 2.5 49t5.5 48t7 44t7 37zM14 -271q-20 0 -37 11.5t-17 35.5q0 27 18 49.5t45.5 39t61 26t64.5 9.5q13 0 27 -1.5t25 -4.5q-15 -38 -36 -68t-46 -52
t-52 -33.5t-53 -11.5zM264 469v16q0 9 -2.5 15.5t-7.5 11t-14 4.5t-15.5 -6.5t-6.5 -15.5q0 -2 1 -8t1 -8q0 -20 3 -36t21 -16q9 0 15.5 6.5t6.5 15.5q0 2 -1 7t-1 7v7zM156 469v16q0 9 -2.5 15.5t-7.5 11t-14 4.5t-15.5 -6.5t-6.5 -15.5q0 -2 1 -8t1 -8q0 -20 3 -36t21 -16
q9 0 15.5 6.5t6.5 15.5q0 2 -1 7t-1 7v7z" />
    <glyph glyph-name=".null" unicode="&#xe000;" horiz-adv-x="0" 
 />
    <glyph glyph-name="nonmarkingreturn" unicode="&#xe001;" horiz-adv-x="500" 
 />
  </font>
</defs>
</svg>
